{
.appVersion = "3436";
.formatVersion = 3;
DisplayStrings = (
o
);
customParameters = (
{
name = vendorID;
value = "    ";
},
{
name = panose;
value = (
0,
0,
0,
0,
0,
0,
0,
0,
0,
0
);
},
{
name = unicodeRanges;
value = (
0,
1,
2,
3,
5,
7,
31,
32,
33,
35,
37,
38,
47,
69
);
},
{
name = fsType;
value = (
);
},
{
name = glyphOrder;
value = (
.notdef,
.null,
uni000D,
space,
uni000A,
exclam,
quotedbl,
numbersign,
dollar,
percent,
ampersand,
quotesingle,
parenleft,
parenright,
asterisk,
plus,
comma,
hyphen,
period,
slash,
zero,
one,
two,
three,
four,
five,
six,
seven,
eight,
nine,
colon,
semicolon,
less,
equal,
greater,
question,
at,
A,
B,
C,
D,
E,
F,
G,
H,
I,
J,
K,
L,
M,
N,
O,
P,
Q,
R,
S,
T,
U,
V,
W,
X,
Y,
Z,
bracketleft,
backslash,
bracketright,
asciicircum,
underscore,
grave,
a,
b,
c,
d,
e,
f,
g,
h,
i,
j,
k,
l,
m,
n,
o,
p,
q,
r,
s,
t,
u,
v,
w,
x,
y,
z,
braceleft,
bar,
braceright,
asciitilde,
uni00A0,
exclamdown,
cent,
sterling,
currency,
yen,
brokenbar,
section,
dieresis,
copyright,
ordfeminine,
guillemotleft,
logicalnot,
uni00AD,
registered,
macron,
degree,
plusminus,
twosuperior,
threesuperior,
acute,
uni00B5,
paragraph,
periodcentered,
cedilla,
onesuperior,
ordmasculine,
guillemotright,
onequarter,
onehalf,
threequarters,
questiondown,
Adieresis,
AE,
Ccedilla,
Eth,
Odieresis,
multiply,
Oslash,
Udieresis,
Thorn,
germandbls,
adieresis,
ae,
ccedilla,
eth,
odieresis,
divide,
oslash,
udieresis,
thorn,
dotlessi,
Lslash,
lslash,
OE,
oe,
uni0237,
circumflex,
caron,
ring,
tilde,
pi,
endash,
emdash,
quoteleft,
quoteright,
quotesinglbase,
quotereversed,
quotedblleft,
quotedblright,
quotedblbase,
dagger,
daggerdbl,
bullet,
ellipsis,
perthousand,
guilsinglleft,
guilsinglright,
fraction,
uni2074,
Euro,
trademark,
arrowleft,
arrowup,
arrowright,
arrowdown,
summation,
minus,
uni2215,
infinity,
integral,
approxequal,
notequal,
lessequal,
greaterequal,
uni2713,
uni2717,
uniFFFD,
iDot,
jDot
);
}
);
date = "2019-05-25 22:00:41 +0000";
familyName = "Heading West";
fontMaster = (
{

glyphs = (
{
glyphname = exclam;
layers = (
{
layerId = m01;
shapes = (
{
closed = 1;
nodes = (
(94,31,o),
(90,41,qs),
(88,46,o),
(74,51,o),
(66,51,qs),
(58,51,o),
(48,47,qs),
(40,44,o),
(39,25,o),
(44,20,qs),
(49,15,o),
(65,10,o),
(71,13,qs),
(82,18,o)
);
},
{
closed = 1;
nodes = (
(69,220,o),
(60,181,o),
(56,145,o),
(59,131,qs),
(61,118,o),
(72,118,qs),
(81,118,o),
(82,127,q),
(91,168,o),
(108,226,o),
(124,264,qs),
(137,296,o),
(158,337,o),
(174,364,o),
(185,380,o),
(186,387,qs),
(188,394,o),
(172,404,o),
(163,404,qs),
(153,404,o),
(148,398,qs),
(143,391,o),
(127,361,o),
(109,325,o),
(92,287,o),
(86,272,qs),
(80,257,o)
);
}
);
userData = {
assembly = "PUSHW[ ]	/* 1 value pushed */
0
CALL[ ]	/* CallFunction */
SVTCA[0]	/* SetFreedomAndProjectionVectorToAxis */
PUSHW[ ]	/* 1 value pushed */
19
MDAP[1]	/* MoveDirectAbsPt */
PUSHW[ ]	/* 1 value pushed */
21
MDAP[1]	/* MoveDirectAbsPt */
PUSHW[ ]	/* 1 value pushed */
6
MDAP[1]	/* MoveDirectAbsPt */
PUSHW[ ]	/* 1 value pushed */
8
MDAP[1]	/* MoveDirectAbsPt */
SVTCA[1]	/* SetFreedomAndProjectionVectorToAxis */
PUSHW[ ]	/* 3 values pushed */
32 36 3
CALL[ ]	/* CallFunction */
NPUSHW[ ]	/* 27 values pushed */
6 32 22 32 38 32 54 32 70 32 86 32 102 32 118 32 134 32 150 32 166 32 182 32 198 32 13
DELTAP1[ ]	/* DeltaExceptionP1 */
NPUSHW[ ]	/* 5 values pushed */
213 32 229 32 2
DELTAP1[ ]	/* DeltaExceptionP1 */
IUP[0]	/* InterpolateUntPts */
IUP[1]	/* InterpolateUntPts */";
};
width = 226;
}
);
note = exclam;
unicode = 33;
},
{
glyphname = quotedbl;
layers = (
{
layerId = m01;
shapes = (
{
closed = 1;
nodes = (
(54,324,o),
(69,324,qs),
(77,324,o),
(82,337,o),
(80,344,qs),
(77,352,o),
(72,370,o),
(73,377,qs),
(74,388,o),
(78,403,o),
(82,416,o),
(85,428,o),
(85,436,qs),
(85,442,o),
(76,450,o),
(70,450,qs),
(63,450,o),
(52,429,o),
(44,401,o),
(40,375,o),
(40,369,qs),
(40,357,o)
);
},
{
closed = 1;
nodes = (
(122,366,o),
(127,350,o),
(137,339,o),
(145,339,qs),
(151,339,o),
(156,351,o),
(154,357,qs),
(150,374,o),
(153,401,qs),
(155,416,o),
(162,440,o),
(162,448,qs),
(162,459,o),
(151,459,qs),
(141,459,o),
(135,449,qs),
(121,429,o),
(120,388,qs),
(120,382,o)
);
}
);
userData = {
assembly = "PUSHW[ ]	/* 1 value pushed */
0
CALL[ ]	/* CallFunction */
SVTCA[0]	/* SetFreedomAndProjectionVectorToAxis */
PUSHW[ ]	/* 3 values pushed */
5 19 3
CALL[ ]	/* CallFunction */
PUSHW[ ]	/* 3 values pushed */
26 36 3
CALL[ ]	/* CallFunction */
SVTCA[1]	/* SetFreedomAndProjectionVectorToAxis */
PUSHW[ ]	/* 3 values pushed */
26 22 3
CALL[ ]	/* CallFunction */
PUSHW[ ]	/* 3 values pushed */
13 0 3
CALL[ ]	/* CallFunction */
NPUSHW[ ]	/* 27 values pushed */
6 13 22 13 38 13 54 13 70 13 86 13 102 13 118 13 134 13 150 13 166 13 182 13 198 13 13
DELTAP1[ ]	/* DeltaExceptionP1 */
NPUSHW[ ]	/* 5 values pushed */
213 13 229 13 2
DELTAP1[ ]	/* DeltaExceptionP1 */
NPUSHW[ ]	/* 5 values pushed */
218 22 234 22 2
DELTAP1[ ]	/* DeltaExceptionP1 */
NPUSHW[ ]	/* 27 values pushed */
9 22 25 22 41 22 57 22 73 22 89 22 105 22 121 22 137 22 153 22 169 22 185 22 201 22 13
DELTAP1[ ]	/* DeltaExceptionP1 */
PUSHW[ ]	/* 1 value pushed */
26
SRP0[ ]	/* SetRefPoint0 */
PUSHW[ ]	/* 1 value pushed */
31
MDRP[10000]	/* MoveDirectRelPt */
PUSHW[ ]	/* 1 value pushed */
31
MDAP[1]	/* MoveDirectAbsPt */
IUP[0]	/* InterpolateUntPts */
IUP[1]	/* InterpolateUntPts */";
};
width = 202;
}
);
note = quotedbl;
unicode = 34;
},
{
glyphname = numbersign;
layers = (
{
layerId = m01;
shapes = (
{
closed = 1;
nodes = (
(189,154,o),
(160,146,q),
(163,160,o),
(172,188,o),
(177,202,q),
(193,207,o),
(220,218,o),
(229,222,qs),
(242,227,o),
(273,240,o),
(290,246,q),
(286,234,o),
(281,213,o),
(279,207,qs),
(277,201,o),
(276,191,o),
(274,186,q),
(246,174,o)
);
},
{
closed = 1;
nodes = (
(372,275,o),
(381,278,qs),
(399,284,o),
(416,286,o),
(425,284,qs),
(430,283,o),
(439,280,o),
(444,283,qs),
(450,287,o),
(443,311,o),
(425,315,qs),
(409,318,o),
(378,312,o),
(361,306,qs),
(356,304,o),
(346,301,o),
(340,299,q),
(345,313,o),
(353,337,o),
(353,346,qs),
(354,353,o),
(345,359,o),
(339,359,qs),
(334,359,o),
(324,353,o),
(322,348,qs),
(320,342,o),
(309,307,o),
(302,286,q),
(285,280,o),
(249,266,o),
(231,258,qs),
(220,253,o),
(198,245,o),
(187,240,q),
(196,272,o),
(213,316,o),
(213,328,qs),
(214,336,o),
(203,345,o),
(197,345,qs),
(190,345,o),
(187,339,qs),
(184,331,o),
(176,299,o),
(171,282,qs),
(167,272,o),
(158,242,o),
(153,226,q),
(141,221,o),
(119,213,o),
(108,209,qs),
(87,202,o),
(67,198,o),
(53,192,qs),
(49,190,o),
(44,180,o),
(46,170,o),
(55,163,o),
(64,164,qs),
(71,165,o),
(81,167,o),
(92,171,o),
(107,177,o),
(117,180,qs),
(122,182,o),
(135,187,o),
(142,189,q),
(141,185,o),
(139,178,o),
(138,176,q),
(136,167,o),
(132,148,o),
(131,137,q),
(112,132,o),
(73,125,o),
(53,125,qs),
(49,125,o),
(48,116,o),
(51,105,o),
(60,96,o),
(66,96,qs),
(77,96,o),
(111,101,o),
(129,105,q),
(129,101,o),
(132,88,o),
(136,74,o),
(143,64,o),
(149,64,qs),
(156,64,o),
(157,73,qs),
(159,81,o),
(157,100,o),
(157,111,q),
(185,119,o),
(240,139,o),
(267,150,q),
(262,127,o),
(258,93,o),
(256,75,qs),
(255,68,o),
(265,60,o),
(270,60,qs),
(275,60,o),
(282,68,o),
(283,76,qs),
(286,98,o),
(295,142,o),
(300,163,q),
(310,167,o),
(325,173,o),
(330,175,qs),
(338,178,o),
(366,188,o),
(396,197,o),
(422,205,o),
(428,206,qs),
(432,207,o),
(440,213,o),
(441,219,o),
(435,225,o),
(426,225,qs),
(420,225,ls),
(397,225,o),
(338,209,o),
(309,199,q),
(311,207,o),
(315,222,o),
(317,230,qs),
(319,238,o),
(324,252,o),
(326,259,q),
(343,265,o)
);
}
);
userData = {
assembly = "PUSHW[ ]	/* 1 value pushed */
0
CALL[ ]	/* CallFunction */
SVTCA[0]	/* SetFreedomAndProjectionVectorToAxis */
PUSHW[ ]	/* 1 value pushed */
105
MDAP[1]	/* MoveDirectAbsPt */
PUSHW[ ]	/* 1 value pushed */
122
MDAP[1]	/* MoveDirectAbsPt */
PUSHW[ ]	/* 1 value pushed */
143
MDAP[1]	/* MoveDirectAbsPt */
PUSHW[ ]	/* 1 value pushed */
146
MDAP[1]	/* MoveDirectAbsPt */
PUSHW[ ]	/* 1 value pushed */
149
MDAP[1]	/* MoveDirectAbsPt */
PUSHW[ ]	/* 3 values pushed */
74 69 3
CALL[ ]	/* CallFunction */
PUSHW[ ]	/* 3 values pushed */
0 41 3
CALL[ ]	/* CallFunction */
PUSHW[ ]	/* 3 values pushed */
27 3 3
CALL[ ]	/* CallFunction */
PUSHW[ ]	/* 1 value pushed */
41
SRP0[ ]	/* SetRefPoint0 */
PUSHW[ ]	/* 1 value pushed */
91
MDRP[10000]	/* MoveDirectRelPt */
PUSHW[ ]	/* 1 value pushed */
91
MDAP[1]	/* MoveDirectAbsPt */
PUSHW[ ]	/* 1 value pushed */
24
MDRP[11100]	/* MoveDirectRelPt */
PUSHW[ ]	/* 1 value pushed */
33
MDRP[10000]	/* MoveDirectRelPt */
PUSHW[ ]	/* 1 value pushed */
33
MDAP[1]	/* MoveDirectAbsPt */
PUSHW[ ]	/* 3 values pushed */
83 91 24
SRP1[ ]	/* SetRefPoint1 */
SRP2[ ]	/* SetRefPoint2 */
IP[ ]	/* InterpolatePts */
SVTCA[1]	/* SetFreedomAndProjectionVectorToAxis */
PUSHW[ ]	/* 3 values pushed */
56 66 3
CALL[ ]	/* CallFunction */
PUSHW[ ]	/* 3 values pushed */
131 125 3
CALL[ ]	/* CallFunction */
NPUSHW[ ]	/* 5 values pushed */
218 125 234 125 2
DELTAP1[ ]	/* DeltaExceptionP1 */
NPUSHW[ ]	/* 27 values pushed */
9 125 25 125 41 125 57 125 73 125 89 125 105 125 121 125 137 125 153 125 169 125 185 125 201 125 13
DELTAP1[ ]	/* DeltaExceptionP1 */
PUSHW[ ]	/* 1 value pushed */
125
SRP0[ ]	/* SetRefPoint0 */
PUSHW[ ]	/* 1 value pushed */
44
MDRP[11100]	/* MoveDirectRelPt */
PUSHW[ ]	/* 3 values pushed */
6 125 44
SRP1[ ]	/* SetRefPoint1 */
SRP2[ ]	/* SetRefPoint2 */
IP[ ]	/* InterpolatePts */
NPUSHW[ ]	/* 27 values pushed */
6 56 22 56 38 56 54 56 70 56 86 56 102 56 118 56 134 56 150 56 166 56 182 56 198 56 13
DELTAP1[ ]	/* DeltaExceptionP1 */
NPUSHW[ ]	/* 5 values pushed */
213 56 229 56 2
DELTAP1[ ]	/* DeltaExceptionP1 */
PUSHW[ ]	/* 1 value pushed */
56
SRP0[ ]	/* SetRefPoint0 */
PUSHW[ ]	/* 1 value pushed */
15
MDRP[10000]	/* MoveDirectRelPt */
PUSHW[ ]	/* 1 value pushed */
15
MDAP[1]	/* MoveDirectAbsPt */
PUSHW[ ]	/* 3 values pushed */
24 125 44
SRP1[ ]	/* SetRefPoint1 */
SRP2[ ]	/* SetRefPoint2 */
IP[ ]	/* InterpolatePts */
PUSHW[ ]	/* 3 values pushed */
53 66 131
SRP1[ ]	/* SetRefPoint1 */
SRP2[ ]	/* SetRefPoint2 */
IP[ ]	/* InterpolatePts */
PUSHW[ ]	/* 1 value pushed */
56
SRP0[ ]	/* SetRefPoint0 */
PUSHW[ ]	/* 1 value pushed */
59
MDRP[10000]	/* MoveDirectRelPt */
PUSHW[ ]	/* 1 value pushed */
66
SRP0[ ]	/* SetRefPoint0 */
PUSHW[ ]	/* 1 value pushed */
77
MDRP[10000]	/* MoveDirectRelPt */
PUSHW[ ]	/* 1 value pushed */
77
MDAP[1]	/* MoveDirectAbsPt */
PUSHW[ ]	/* 3 values pushed */
83 66 56
SRP1[ ]	/* SetRefPoint1 */
SRP2[ ]	/* SetRefPoint2 */
IP[ ]	/* InterpolatePts */
PUSHW[ ]	/* 3 values pushed */
116 66 131
SRP1[ ]	/* SetRefPoint1 */
SRP2[ ]	/* SetRefPoint2 */
IP[ ]	/* InterpolatePts */
PUSHW[ ]	/* 3 values pushed */
134 125 131
SRP1[ ]	/* SetRefPoint1 */
SRP2[ ]	/* SetRefPoint2 */
IP[ ]	/* InterpolatePts */
IUP[0]	/* InterpolateUntPts */
IUP[1]	/* InterpolateUntPts */";
};
width = 503;
}
);
note = numbersign;
unicode = 35;
},
{
glyphname = dollar;
layers = (
{
layerId = m01;
shapes = (
{
closed = 1;
nodes = (
(199,290,o),
(217,301,q),
(212,286,o),
(204,258,o),
(201,246,qs),
(199,238,o),
(194,221,o),
(191,211,q),
(171,223,o),
(171,243,qs),
(170,258,o)
);
},
{
closed = 1;
nodes = (
(196,144,o),
(207,178,q),
(212,176,o),
(220,173,o),
(225,171,q),
(220,151,o),
(212,111,o),
(210,98,qs),
(209,94,o),
(209,86,o),
(208,82,q),
(202,78,o),
(190,72,o),
(185,69,qs),
(180,67,o),
(173,65,o),
(169,63,q),
(174,81,o)
);
},
{
closed = 1;
nodes = (
(233,202,o),
(231,193,q),
(226,195,o),
(218,198,o),
(214,200,q),
(219,214,o),
(227,238,o),
(229,249,q),
(233,260,o),
(243,297,o),
(248,317,q),
(255,320,o),
(268,325,o),
(274,327,q),
(266,302,o),
(249,249,o),
(241,227,qs),
(239,219,o)
);
},
{
closed = 1;
nodes = (
(248,111,o),
(237,102,q),
(239,111,o),
(242,129,o),
(244,138,qs),
(246,151,o),
(250,162,q),
(261,158,o),
(272,150,o),
(270,145,qs),
(266,133,o)
);
},
{
closed = 1;
nodes = (
(315,362,q),
(320,372,o),
(328,386,o),
(331,391,qs),
(335,396,o),
(321,409,o),
(313,409,qs),
(308,409,o),
(304,405,qs),
(295,395,o),
(284,358,q),
(279,358,o),
(276,357,qs),
(258,351,l),
(263,370,o),
(272,403,o),
(276,414,qs),
(278,421,o),
(264,432,o),
(257,432,qs),
(252,432,o),
(250,427,qs),
(245,407,o),
(234,362,o),
(228,339,q),
(215,333,o),
(185,315,o),
(159,291,o),
(141,263,o),
(139,248,qs),
(138,239,o),
(151,207,o),
(180,190,q),
(181,189,o),
(182,189,o),
(183,188,q),
(172,153,o),
(148,80,o),
(141,54,q),
(130,52,o),
(112,51,o),
(102,52,qs),
(92,54,o),
(78,68,o),
(76,84,qs),
(76,90,o),
(69,95,o),
(64,95,qs),
(59,95,o),
(49,87,o),
(50,79,qs),
(51,68,o),
(71,37,o),
(94,29,qs),
(109,23,o),
(136,26,q),
(135,7,o),
(141,-4,qs),
(144,-9,o),
(153,-9,qs),
(158,-9,o),
(166,-4,o),
(167,1,qs),
(168,9,o),
(166,22,o),
(166,32,q),
(176,35,o),
(196,43,o),
(207,48,q),
(208,40,o),
(210,27,o),
(212,22,qs),
(216,14,o),
(233,18,o),
(233,25,qs),
(233,34,o),
(233,53,o),
(234,64,q),
(253,78,o),
(278,101,o),
(293,122,o),
(300,142,o),
(301,154,qs),
(302,165,o),
(273,178,o),
(256,183,q),
(264,210,o),
(279,264,o),
(284,278,qs),
(288,291,o),
(298,320,o),
(304,334,q),
(328,338,o),
(355,325,qs),
(360,323,o),
(368,327,o),
(371,336,o),
(369,347,o),
(363,351,qs),
(346,364,o)
);
}
);
userData = {
assembly = "PUSHW[ ]	/* 1 value pushed */
0
CALL[ ]	/* CallFunction */
SVTCA[0]	/* SetFreedomAndProjectionVectorToAxis */
PUSHW[ ]	/* 1 value pushed */
135
MDAP[1]	/* MoveDirectAbsPt */
PUSHW[ ]	/* 1 value pushed */
137
MDAP[1]	/* MoveDirectAbsPt */
PUSHW[ ]	/* 1 value pushed */
140
MDAP[1]	/* MoveDirectAbsPt */
PUSHW[ ]	/* 1 value pushed */
148
MDAP[1]	/* MoveDirectAbsPt */
PUSHW[ ]	/* 1 value pushed */
150
MDAP[1]	/* MoveDirectAbsPt */
PUSHW[ ]	/* 1 value pushed */
144
MDAP[1]	/* MoveDirectAbsPt */
PUSHW[ ]	/* 1 value pushed */
146
MDAP[1]	/* MoveDirectAbsPt */
PUSHW[ ]	/* 1 value pushed */
156
MDAP[1]	/* MoveDirectAbsPt */
PUSHW[ ]	/* 1 value pushed */
0
RCVT[ ]	/* ReadCVT */
IF[ ]	/* If */
PUSHW[ ]	/* 1 value pushed */
97
MDAP[1]	/* MoveDirectAbsPt */
ELSE[ ]	/* Else */
PUSHW[ ]	/* 2 values pushed */
97 5
MIAP[0]	/* MoveIndirectAbsPt */
EIF[ ]	/* EndIf */
PUSHW[ ]	/* 1 value pushed */
0
RCVT[ ]	/* ReadCVT */
IF[ ]	/* If */
PUSHW[ ]	/* 1 value pushed */
99
MDAP[1]	/* MoveDirectAbsPt */
ELSE[ ]	/* Else */
PUSHW[ ]	/* 2 values pushed */
99 5
MIAP[0]	/* MoveIndirectAbsPt */
EIF[ ]	/* EndIf */
PUSHW[ ]	/* 3 values pushed */
115 82 3
CALL[ ]	/* CallFunction */
PUSHW[ ]	/* 3 values pushed */
8 97 137
SRP1[ ]	/* SetRefPoint1 */
SRP2[ ]	/* SetRefPoint2 */
IP[ ]	/* InterpolatePts */
PUSHW[ ]	/* 3 values pushed */
32 97 137
SRP1[ ]	/* SetRefPoint1 */
SRP2[ ]	/* SetRefPoint2 */
IP[ ]	/* InterpolatePts */
PUSHW[ ]	/* 3 values pushed */
55 97 137
SRP1[ ]	/* SetRefPoint1 */
SRP2[ ]	/* SetRefPoint2 */
IP[ ]	/* InterpolatePts */
PUSHW[ ]	/* 1 value pushed */
156
SRP0[ ]	/* SetRefPoint0 */
PUSHW[ ]	/* 1 value pushed */
65
MDRP[11100]	/* MoveDirectRelPt */
PUSHW[ ]	/* 3 values pushed */
88 82 115
SRP1[ ]	/* SetRefPoint1 */
SRP2[ ]	/* SetRefPoint2 */
IP[ ]	/* InterpolatePts */
PUSHW[ ]	/* 1 value pushed */
82
SRP0[ ]	/* SetRefPoint0 */
PUSHW[ ]	/* 1 value pushed */
101
MDRP[10000]	/* MoveDirectRelPt */
PUSHW[ ]	/* 1 value pushed */
101
MDAP[1]	/* MoveDirectAbsPt */
PUSHW[ ]	/* 1 value pushed */
115
SRP0[ ]	/* SetRefPoint0 */
PUSHW[ ]	/* 1 value pushed */
118
MDRP[10000]	/* MoveDirectRelPt */
PUSHW[ ]	/* 1 value pushed */
118
MDAP[1]	/* MoveDirectAbsPt */
PUSHW[ ]	/* 3 values pushed */
143 156 65
SRP1[ ]	/* SetRefPoint1 */
SRP2[ ]	/* SetRefPoint2 */
IP[ ]	/* InterpolatePts */
SVTCA[1]	/* SetFreedomAndProjectionVectorToAxis */
PUSHW[ ]	/* 3 values pushed */
112 106 3
CALL[ ]	/* CallFunction */
PUSHW[ ]	/* 3 values pushed */
11 118 3
CALL[ ]	/* CallFunction */
PUSHW[ ]	/* 3 values pushed */
44 26 3
CALL[ ]	/* CallFunction */
NPUSHW[ ]	/* 27 values pushed */
6 11 22 11 38 11 54 11 70 11 86 11 102 11 118 11 134 11 150 11 166 11 182 11 198 11 13
DELTAP1[ ]	/* DeltaExceptionP1 */
NPUSHW[ ]	/* 5 values pushed */
213 11 229 11 2
DELTAP1[ ]	/* DeltaExceptionP1 */
PUSHW[ ]	/* 1 value pushed */
11
SRP0[ ]	/* SetRefPoint0 */
PUSHW[ ]	/* 1 value pushed */
0
MDRP[10000]	/* MoveDirectRelPt */
PUSHW[ ]	/* 1 value pushed */
0
MDAP[1]	/* MoveDirectAbsPt */
NPUSHW[ ]	/* 5 values pushed */
218 26 234 26 2
DELTAP1[ ]	/* DeltaExceptionP1 */
NPUSHW[ ]	/* 27 values pushed */
9 26 25 26 41 26 57 26 73 26 89 26 105 26 121 26 137 26 153 26 169 26 185 26 201 26 13
DELTAP1[ ]	/* DeltaExceptionP1 */
PUSHW[ ]	/* 3 values pushed */
8 26 44
SRP1[ ]	/* SetRefPoint1 */
SRP2[ ]	/* SetRefPoint2 */
IP[ ]	/* InterpolatePts */
PUSHW[ ]	/* 1 value pushed */
26
SRP0[ ]	/* SetRefPoint0 */
PUSHW[ ]	/* 1 value pushed */
20
MDRP[10000]	/* MoveDirectRelPt */
PUSHW[ ]	/* 1 value pushed */
20
MDAP[1]	/* MoveDirectAbsPt */
PUSHW[ ]	/* 1 value pushed */
44
SRP0[ ]	/* SetRefPoint0 */
PUSHW[ ]	/* 1 value pushed */
55
MDRP[10000]	/* MoveDirectRelPt */
PUSHW[ ]	/* 1 value pushed */
55
MDAP[1]	/* MoveDirectAbsPt */
PUSHW[ ]	/* 1 value pushed */
44
SRP0[ ]	/* SetRefPoint0 */
PUSHW[ ]	/* 1 value pushed */
79
MDRP[10000]	/* MoveDirectRelPt */
PUSHW[ ]	/* 1 value pushed */
79
MDAP[1]	/* MoveDirectAbsPt */
PUSHW[ ]	/* 1 value pushed */
44
SRP0[ ]	/* SetRefPoint0 */
PUSHW[ ]	/* 1 value pushed */
82
MDRP[10000]	/* MoveDirectRelPt */
PUSHW[ ]	/* 1 value pushed */
82
MDAP[1]	/* MoveDirectAbsPt */
PUSHW[ ]	/* 1 value pushed */
26
SRP0[ ]	/* SetRefPoint0 */
PUSHW[ ]	/* 1 value pushed */
88
MDRP[10000]	/* MoveDirectRelPt */
PUSHW[ ]	/* 1 value pushed */
11
SRP0[ ]	/* SetRefPoint0 */
PUSHW[ ]	/* 1 value pushed */
91
MDRP[10000]	/* MoveDirectRelPt */
PUSHW[ ]	/* 1 value pushed */
91
MDAP[1]	/* MoveDirectAbsPt */
PUSHW[ ]	/* 1 value pushed */
11
SRP0[ ]	/* SetRefPoint0 */
PUSHW[ ]	/* 1 value pushed */
94
MDRP[10000]	/* MoveDirectRelPt */
PUSHW[ ]	/* 1 value pushed */
94
MDAP[1]	/* MoveDirectAbsPt */
PUSHW[ ]	/* 1 value pushed */
118
SRP0[ ]	/* SetRefPoint0 */
PUSHW[ ]	/* 1 value pushed */
101
MDRP[10000]	/* MoveDirectRelPt */
PUSHW[ ]	/* 1 value pushed */
101
MDAP[1]	/* MoveDirectAbsPt */
NPUSHW[ ]	/* 27 values pushed */
6 112 22 112 38 112 54 112 70 112 86 112 102 112 118 112 134 112 150 112 166 112 182 112 198 112 13
DELTAP1[ ]	/* DeltaExceptionP1 */
NPUSHW[ ]	/* 5 values pushed */
213 112 229 112 2
DELTAP1[ ]	/* DeltaExceptionP1 */
PUSHW[ ]	/* 1 value pushed */
118
SRP0[ ]	/* SetRefPoint0 */
PUSHW[ ]	/* 1 value pushed */
127
MDRP[10000]	/* MoveDirectRelPt */
PUSHW[ ]	/* 1 value pushed */
127
MDAP[1]	/* MoveDirectAbsPt */
IUP[0]	/* InterpolateUntPts */
IUP[1]	/* InterpolateUntPts */";
};
width = 421;
}
);
note = dollar;
unicode = 36;
},
{
glyphname = percent;
layers = (
{
layerId = m01;
shapes = (
{
closed = 1;
nodes = (
(148,332,o),
(158,334,qs),
(171,337,o),
(184,333,o),
(195,334,qs),
(202,335,o),
(199,346,o),
(194,351,q),
(208,353,o),
(228,347,o),
(230,338,qs),
(232,328,o),
(222,306,o),
(204,285,o),
(184,267,o),
(175,259,qs),
(161,247,o),
(125,225,o),
(113,227,qs),
(107,228,o),
(101,240,o),
(101,257,o),
(107,277,o),
(111,286,qs),
(119,302,o)
);
},
{
closed = 1;
nodes = (
(419,103,o),
(387,75,o),
(353,55,o),
(343,55,qs),
(333,55,o),
(327,74,o),
(329,82,qs),
(330,89,o),
(343,112,o),
(364,136,o),
(391,157,o),
(406,162,qs),
(410,164,o),
(412,166,q),
(420,160,o),
(443,152,o),
(443,143,qs),
(443,133,o)
);
},
{
closed = 1;
nodes = (
(131,197,o),
(162,211,o),
(190,232,o),
(214,255,o),
(223,264,qs),
(247,289,o),
(264,325,o),
(263,340,qs),
(261,361,o),
(221,381,o),
(198,382,qs),
(179,382,o),
(155,371,o),
(150,363,q),
(135,362,o),
(106,336,o),
(82,302,o),
(66,265,o),
(65,252,qs),
(63,233,o),
(89,199,o),
(111,197,qs),
(116,197,ls)
);
},
{
closed = 1;
nodes = (
(481,418,qs),
(471,418,o),
(461,410,qs),
(451,402,o),
(410,366,o),
(358,319,o),
(300,267,o),
(249,220,o),
(209,183,o),
(201,175,qs),
(174,149,o),
(135,110,o),
(102,77,o),
(73,47,o),
(57,30,qs),
(46,19,o),
(56,5,o),
(66,1,qs),
(74,-1,o),
(78,-1,qs),
(99,-1,o),
(109,26,qs),
(113,37,o),
(159,89,o),
(225,156,o),
(302,229,o),
(371,294,o),
(425,342,o),
(434,350,qs),
(446,360,o),
(470,377,o),
(479,382,qs),
(498,393,o),
(495,410,qs),
(493,418,o)
);
},
{
closed = 1;
nodes = (
(405,190,q),
(403,190,ls),
(384,191,o),
(346,166,o),
(326,145,qs),
(306,122,o),
(285,80,o),
(293,60,qs),
(299,43,o),
(328,22,o),
(345,22,qs),
(362,23,o),
(408,52,o),
(432,74,qs),
(457,97,o),
(476,130,o),
(475,143,qs),
(475,152,o),
(462,170,o),
(443,185,o),
(422,195,o),
(414,196,qs),
(405,196,o)
);
}
);
userData = {
assembly = "PUSHW[ ]	/* 1 value pushed */
0
CALL[ ]	/* CallFunction */
SVTCA[0]	/* SetFreedomAndProjectionVectorToAxis */
PUSHW[ ]	/* 1 value pushed */
99
MDAP[1]	/* MoveDirectAbsPt */
PUSHW[ ]	/* 1 value pushed */
43
MDAP[1]	/* MoveDirectAbsPt */
PUSHW[ ]	/* 1 value pushed */
101
MDAP[1]	/* MoveDirectAbsPt */
PUSHW[ ]	/* 1 value pushed */
121
MDAP[1]	/* MoveDirectAbsPt */
PUSHW[ ]	/* 1 value pushed */
0
RCVT[ ]	/* ReadCVT */
IF[ ]	/* If */
PUSHW[ ]	/* 1 value pushed */
80
MDAP[1]	/* MoveDirectAbsPt */
ELSE[ ]	/* Else */
PUSHW[ ]	/* 2 values pushed */
80 5
MIAP[0]	/* MoveIndirectAbsPt */
EIF[ ]	/* EndIf */
PUSHW[ ]	/* 1 value pushed */
0
RCVT[ ]	/* ReadCVT */
IF[ ]	/* If */
PUSHW[ ]	/* 1 value pushed */
82
MDAP[1]	/* MoveDirectAbsPt */
ELSE[ ]	/* Else */
PUSHW[ ]	/* 2 values pushed */
82 5
MIAP[0]	/* MoveIndirectAbsPt */
EIF[ ]	/* EndIf */
PUSHW[ ]	/* 3 values pushed */
38 112 3
CALL[ ]	/* CallFunction */
PUSHW[ ]	/* 3 values pushed */
54 16 3
CALL[ ]	/* CallFunction */
PUSHW[ ]	/* 1 value pushed */
43
SRP0[ ]	/* SetRefPoint0 */
PUSHW[ ]	/* 1 value pushed */
5
MDRP[11100]	/* MoveDirectRelPt */
PUSHW[ ]	/* 1 value pushed */
43
SRP0[ ]	/* SetRefPoint0 */
PUSHW[ ]	/* 1 value pushed */
122
MDRP[10000]	/* MoveDirectRelPt */
PUSHW[ ]	/* 1 value pushed */
122
MDAP[1]	/* MoveDirectAbsPt */
SVTCA[1]	/* SetFreedomAndProjectionVectorToAxis */
PUSHW[ ]	/* 3 values pushed */
106 25 3
CALL[ ]	/* CallFunction */
NPUSHW[ ]	/* 5 values pushed */
218 25 234 25 2
DELTAP1[ ]	/* DeltaExceptionP1 */
NPUSHW[ ]	/* 27 values pushed */
9 25 25 25 41 25 57 25 73 25 89 25 105 25 121 25 137 25 153 25 169 25 185 25 201 25 13
DELTAP1[ ]	/* DeltaExceptionP1 */
IUP[0]	/* InterpolateUntPts */
IUP[1]	/* InterpolateUntPts */";
};
width = 545;
}
);
note = percent;
unicode = 37;
},
{
glyphname = ampersand;
layers = (
{
layerId = m01;
shapes = (
{
closed = 1;
nodes = (
(120,27,o),
(106,27,qs),
(102,27,l),
(95,29,o),
(85,42,o),
(88,47,qs),
(91,52,o),
(117,78,o),
(132,95,q),
(136,87,o),
(140,81,qs),
(143,76,o),
(149,66,o),
(153,60,q),
(145,50,o)
);
},
{
closed = 1;
nodes = (
(135,386,o),
(169,390,q),
(176,390,ls),
(199,390,o),
(222,350,o),
(220,324,qs),
(216,273,o),
(167,185,o),
(138,145,q),
(121,180,o),
(102,249,o),
(100,281,qs),
(98,321,o)
);
},
{
closed = 1;
nodes = (
(289,121,o),
(274,120,qs),
(260,120,o),
(227,133,o),
(213,133,qs),
(202,133,o),
(195,126,qs),
(189,121,o),
(176,99,o),
(169,87,q),
(166,92,o),
(161,100,o),
(159,104,qs),
(157,107,o),
(154,114,o),
(152,117,q),
(176,149,o),
(224,225,o),
(238,263,qs),
(245,283,o),
(252,325,o),
(251,348,qs),
(251,360,o),
(239,388,o),
(218,410,o),
(189,425,o),
(171,425,qs),
(142,425,o),
(104,395,o),
(90,371,qs),
(76,346,o),
(70,269,o),
(78,232,qs),
(83,209,o),
(107,148,o),
(119,122,q),
(111,112,o),
(98,98,o),
(94,94,qs),
(77,77,o),
(49,52,o),
(50,39,qs),
(52,23,o),
(85,-7,o),
(104,-7,qs),
(116,-7,o),
(145,0,o),
(156,11,qs),
(161,16,o),
(169,25,o),
(173,30,q),
(186,11,o),
(192,3,qs),
(200,-6,o),
(226,-27,o),
(240,-27,qs),
(251,-27,o),
(261,-9,o),
(248,-3,qs),
(237,1,o),
(224,13,o),
(214,24,qs),
(205,35,o),
(191,55,q),
(197,65,o),
(206,82,o),
(211,90,qs),
(215,97,o),
(220,97,qs),
(226,97,o),
(247,90,o),
(264,90,qs),
(274,90,o),
(300,96,o),
(326,105,o),
(350,118,o),
(357,125,qs),
(362,130,o),
(358,144,o),
(344,140,qs),
(328,135,o)
);
}
);
userData = {
assembly = "PUSHW[ ]	/* 1 value pushed */
0
CALL[ ]	/* CallFunction */
SVTCA[0]	/* SetFreedomAndProjectionVectorToAxis */
PUSHW[ ]	/* 1 value pushed */
52
MDAP[1]	/* MoveDirectAbsPt */
PUSHW[ ]	/* 1 value pushed */
0
RCVT[ ]	/* ReadCVT */
IF[ ]	/* If */
PUSHW[ ]	/* 1 value pushed */
49
MDAP[1]	/* MoveDirectAbsPt */
ELSE[ ]	/* Else */
PUSHW[ ]	/* 2 values pushed */
49 5
MIAP[0]	/* MoveIndirectAbsPt */
EIF[ ]	/* EndIf */
PUSHW[ ]	/* 1 value pushed */
0
RCVT[ ]	/* ReadCVT */
IF[ ]	/* If */
PUSHW[ ]	/* 1 value pushed */
63
MDAP[1]	/* MoveDirectAbsPt */
ELSE[ ]	/* Else */
PUSHW[ ]	/* 2 values pushed */
63 5
MIAP[0]	/* MoveIndirectAbsPt */
EIF[ ]	/* EndIf */
PUSHW[ ]	/* 3 values pushed */
81 25 3
CALL[ ]	/* CallFunction */
PUSHW[ ]	/* 3 values pushed */
106 36 3
CALL[ ]	/* CallFunction */
PUSHW[ ]	/* 3 values pushed */
5 36 106
SRP1[ ]	/* SetRefPoint1 */
SRP2[ ]	/* SetRefPoint2 */
IP[ ]	/* InterpolatePts */
PUSHW[ ]	/* 1 value pushed */
63
SRP0[ ]	/* SetRefPoint0 */
PUSHW[ ]	/* 1 value pushed */
11
MDRP[11100]	/* MoveDirectRelPt */
NPUSHW[ ]	/* 27 values pushed */
7 11 23 11 39 11 55 11 71 11 87 11 103 11 119 11 135 11 151 11 167 11 183 11 199 11 13
DELTAP1[ ]	/* DeltaExceptionP1 */
NPUSHW[ ]	/* 5 values pushed */
214 11 230 11 2
DELTAP1[ ]	/* DeltaExceptionP1 */
PUSHW[ ]	/* 1 value pushed */
36
SRP0[ ]	/* SetRefPoint0 */
PUSHW[ ]	/* 1 value pushed */
39
MDRP[10000]	/* MoveDirectRelPt */
PUSHW[ ]	/* 1 value pushed */
39
MDAP[1]	/* MoveDirectAbsPt */
SVTCA[1]	/* SetFreedomAndProjectionVectorToAxis */
PUSHW[ ]	/* 3 values pushed */
86 21 3
CALL[ ]	/* CallFunction */
NPUSHW[ ]	/* 5 values pushed */
218 21 234 21 2
DELTAP1[ ]	/* DeltaExceptionP1 */
NPUSHW[ ]	/* 27 values pushed */
9 21 25 21 41 21 57 21 73 21 89 21 105 21 121 21 137 21 153 21 169 21 185 21 201 21 13
DELTAP1[ ]	/* DeltaExceptionP1 */
IUP[0]	/* InterpolateUntPts */
IUP[1]	/* InterpolateUntPts */";
};
width = 410;
}
);
note = ampersand;
unicode = 38;
},
{
glyphname = quotesingle;
layers = (
{
layerId = m01;
shapes = (
{
closed = 1;
nodes = (
(51,354,o),
(57,354,qs),
(67,354,o),
(71,361,qs),
(74,365,o),
(82,384,o),
(91,407,o),
(99,429,o),
(100,437,qs),
(102,447,o),
(91,456,o),
(83,456,qs),
(78,456,o),
(70,452,o),
(68,447,qs),
(62,430,o),
(50,381,o),
(45,365,qs),
(43,360,o)
);
}
);
userData = {
assembly = "PUSHW[ ]	/* 1 value pushed */
0
CALL[ ]	/* CallFunction */
SVTCA[0]	/* SetFreedomAndProjectionVectorToAxis */
PUSHW[ ]	/* 3 values pushed */
6 16 3
CALL[ ]	/* CallFunction */
IUP[0]	/* InterpolateUntPts */
IUP[1]	/* InterpolateUntPts */";
};
width = 106;
}
);
note = quotesingle;
unicode = 39;
},
{
glyphname = parenleft;
layers = (
{
layerId = m01;
shapes = (
{
closed = 1;
nodes = (
(176,409,o),
(105,318,o),
(48,207,o),
(41,151,qs),
(35,104,o),
(65,22,o),
(120,-38,o),
(194,-73,o),
(233,-74,qs),
(250,-75,o),
(248,-62,o),
(236,-60,qs),
(205,-54,o),
(145,-17,o),
(99,37,o),
(73,105,o),
(76,143,qs),
(79,192,o),
(123,286,o),
(179,364,o),
(236,421,o),
(253,431,qs),
(262,437,o),
(280,439,o),
(293,440,o),
(303,442,o),
(304,448,qs),
(306,458,o),
(282,469,o),
(270,468,qs),
(248,467,o)
);
}
);
userData = {
assembly = "PUSHW[ ]	/* 1 value pushed */
0
CALL[ ]	/* CallFunction */
SVTCA[0]	/* SetFreedomAndProjectionVectorToAxis */
PUSHW[ ]	/* 1 value pushed */
21
MDAP[1]	/* MoveDirectAbsPt */
PUSHW[ ]	/* 3 values pushed */
0 3 3
CALL[ ]	/* CallFunction */
IUP[0]	/* InterpolateUntPts */
IUP[1]	/* InterpolateUntPts */";
};
width = 254;
}
);
note = parenleft;
unicode = 40;
},
{
glyphname = parenright;
layers = (
{
layerId = m01;
shapes = (
{
closed = 1;
nodes = (
(128,97,o),
(87,19,o),
(47,-40,o),
(38,-53,qs),
(32,-61,o),
(36,-71,o),
(43,-71,qs),
(54,-71,o),
(66,-58,qs),
(75,-48,o),
(118,14,o),
(162,100,o),
(195,202,o),
(195,251,qs),
(195,297,o),
(165,370,o),
(122,423,o),
(72,456,o),
(52,463,qs),
(44,466,o),
(30,461,o),
(24,453,o),
(27,444,o),
(35,441,qs),
(64,430,o),
(112,389,o),
(145,335,o),
(163,269,o),
(161,234,qs),
(160,188,o)
);
}
);
userData = {
assembly = "PUSHW[ ]	/* 1 value pushed */
0
CALL[ ]	/* CallFunction */
SVTCA[0]	/* SetFreedomAndProjectionVectorToAxis */
PUSHW[ ]	/* 1 value pushed */
22
MDAP[1]	/* MoveDirectAbsPt */
IUP[0]	/* InterpolateUntPts */
IUP[1]	/* InterpolateUntPts */";
};
width = 235;
}
);
note = parenright;
unicode = 41;
},
{
glyphname = asterisk;
lastChange = "2025-12-25 14:18:58 +0000";
layers = (
{
layerId = m01;
shapes = (
{
closed = 1;
nodes = (
(244,220,o),
(218,209,q),
(235,235,o),
(263,275,o),
(271,286,qs),
(278,297,o),
(265,307,o),
(257,307,qs),
(247,307,o),
(244,302,qs),
(233,285,o),
(206,241,o),
(193,220,q),
(192,246,o),
(187,290,o),
(182,298,qs),
(176,308,o),
(164,308,qs),
(156,308,o),
(143,298,o),
(147,290,qs),
(152,279,o),
(156,250,o),
(158,226,qs),
(158,221,o),
(159,205,o),
(160,197,q),
(143,209,o),
(122,233,o),
(114,238,qs),
(110,241,o),
(103,241,qs),
(95,241,o),
(86,230,o),
(93,221,qs),
(100,212,o),
(119,191,o),
(131,180,q),
(115,177,o),
(79,171,o),
(59,169,qs),
(55,169,o),
(49,161,o),
(51,152,o),
(61,144,o),
(72,143,qs),
(79,143,ls),
(93,143,o),
(131,148,o),
(154,154,q),
(152,150,o),
(151,149,qs),
(140,132,o),
(121,94,o),
(113,77,qs),
(110,70,o),
(119,62,o),
(127,62,qs),
(137,62,o),
(141,69,qs),
(143,74,o),
(155,97,o),
(164,114,q),
(165,104,o),
(165,90,o),
(166,76,o),
(173,76,qs),
(178,76,o),
(190,90,o),
(192,107,o),
(193,127,o),
(194,141,q),
(217,132,o),
(272,118,o),
(288,114,qs),
(305,110,o),
(313,126,o),
(298,132,qs),
(281,140,o),
(231,160,o),
(206,171,q),
(208,172,o),
(212,173,o),
(214,174,qs),
(252,191,o),
(316,223,o),
(342,233,qs),
(346,235,o),
(347,243,o),
(343,251,o),
(333,256,o),
(326,254,qs),
(307,248,o)
);
}
);
userData = {
assembly = "PUSHW[ ]	/* 1 value pushed */
0
CALL[ ]	/* CallFunction */
SVTCA[0]	/* SetFreedomAndProjectionVectorToAxis */
PUSHW[ ]	/* 1 value pushed */
76
MDAP[1]	/* MoveDirectAbsPt */
PUSHW[ ]	/* 1 value pushed */
84
MDAP[1]	/* MoveDirectAbsPt */
PUSHW[ ]	/* 1 value pushed */
86
MDAP[1]	/* MoveDirectAbsPt */
PUSHW[ ]	/* 1 value pushed */
20
MDAP[1]	/* MoveDirectAbsPt */
PUSHW[ ]	/* 1 value pushed */
42
MDAP[1]	/* MoveDirectAbsPt */
PUSHW[ ]	/* 1 value pushed */
47
MDAP[1]	/* MoveDirectAbsPt */
PUSHW[ ]	/* 3 values pushed */
62 5 3
CALL[ ]	/* CallFunction */
PUSHW[ ]	/* 3 values pushed */
53 48 3
CALL[ ]	/* CallFunction */
PUSHW[ ]	/* 3 values pushed */
11 20 76
SRP1[ ]	/* SetRefPoint1 */
SRP2[ ]	/* SetRefPoint2 */
IP[ ]	/* InterpolatePts */
PUSHW[ ]	/* 3 values pushed */
44 48 53
SRP1[ ]	/* SetRefPoint1 */
SRP2[ ]	/* SetRefPoint2 */
IP[ ]	/* InterpolatePts */
PUSHW[ ]	/* 3 values pushed */
56 20 76
SRP1[ ]	/* SetRefPoint1 */
SRP2[ ]	/* SetRefPoint2 */
IP[ ]	/* InterpolatePts */
PUSHW[ ]	/* 3 values pushed */
67 20 76
SRP1[ ]	/* SetRefPoint1 */
SRP2[ ]	/* SetRefPoint2 */
IP[ ]	/* InterpolatePts */
PUSHW[ ]	/* 3 values pushed */
81 20 76
SRP1[ ]	/* SetRefPoint1 */
SRP2[ ]	/* SetRefPoint2 */
IP[ ]	/* InterpolatePts */
PUSHW[ ]	/* 3 values pushed */
92 20 76
SRP1[ ]	/* SetRefPoint1 */
SRP2[ ]	/* SetRefPoint2 */
IP[ ]	/* InterpolatePts */
SVTCA[1]	/* SetFreedomAndProjectionVectorToAxis */
PUSHW[ ]	/* 3 values pushed */
23 70 3
CALL[ ]	/* CallFunction */
NPUSHW[ ]	/* 27 values pushed */
6 23 22 23 38 23 54 23 70 23 86 23 102 23 118 23 134 23 150 23 166 23 182 23 198 23 13
DELTAP1[ ]	/* DeltaExceptionP1 */
NPUSHW[ ]	/* 5 values pushed */
213 23 229 23 2
DELTAP1[ ]	/* DeltaExceptionP1 */
PUSHW[ ]	/* 1 value pushed */
23
SRP0[ ]	/* SetRefPoint0 */
PUSHW[ ]	/* 1 value pushed */
20
MDRP[10000]	/* MoveDirectRelPt */
PUSHW[ ]	/* 1 value pushed */
20
MDAP[1]	/* MoveDirectAbsPt */
PUSHW[ ]	/* 1 value pushed */
23
SRP0[ ]	/* SetRefPoint0 */
PUSHW[ ]	/* 1 value pushed */
28
MDRP[11100]	/* MoveDirectRelPt */
PUSHW[ ]	/* 1 value pushed */
70
SRP0[ ]	/* SetRefPoint0 */
PUSHW[ ]	/* 1 value pushed */
31
MDRP[10000]	/* MoveDirectRelPt */
PUSHW[ ]	/* 1 value pushed */
31
MDAP[1]	/* MoveDirectAbsPt */
PUSHW[ ]	/* 1 value pushed */
70
SRP0[ ]	/* SetRefPoint0 */
PUSHW[ ]	/* 1 value pushed */
67
MDRP[10000]	/* MoveDirectRelPt */
PUSHW[ ]	/* 1 value pushed */
67
MDAP[1]	/* MoveDirectAbsPt */
PUSHW[ ]	/* 1 value pushed */
23
SRP0[ ]	/* SetRefPoint0 */
PUSHW[ ]	/* 1 value pushed */
81
MDRP[10000]	/* MoveDirectRelPt */
PUSHW[ ]	/* 1 value pushed */
81
MDAP[1]	/* MoveDirectAbsPt */
IUP[0]	/* InterpolateUntPts */
IUP[1]	/* InterpolateUntPts */";
};
width = 397;
}
);
note = asterisk;
unicode = 42;
},
{
glyphname = plus;
layers = (
{
layerId = m01;
shapes = (
{
closed = 1;
nodes = (
(172,187,o),
(150,185,q),
(153,199,o),
(161,230,o),
(164,239,qs),
(166,244,o),
(155,252,o),
(147,252,qs),
(135,252,o),
(131,241,qs),
(129,236,o),
(120,203,o),
(116,184,q),
(95,186,o),
(69,192,o),
(59,191,qs),
(48,190,o),
(53,166,o),
(61,161,qs),
(75,153,o),
(112,151,q),
(111,132,o),
(115,102,o),
(121,94,qs),
(126,87,o),
(133,87,qs),
(142,87,o),
(145,96,qs),
(148,105,o),
(145,130,o),
(146,151,q),
(147,151,ls),
(181,153,o),
(233,167,o),
(244,175,qs),
(251,180,o),
(246,196,o),
(229,194,qs),
(212,192,o)
);
}
);
userData = {
assembly = "PUSHW[ ]	/* 1 value pushed */
0
CALL[ ]	/* CallFunction */
SVTCA[0]	/* SetFreedomAndProjectionVectorToAxis */
PUSHW[ ]	/* 1 value pushed */
0
MDAP[1]	/* MoveDirectAbsPt */
PUSHW[ ]	/* 1 value pushed */
22
MDAP[1]	/* MoveDirectAbsPt */
PUSHW[ ]	/* 3 values pushed */
36 6 3
CALL[ ]	/* CallFunction */
PUSHW[ ]	/* 1 value pushed */
6
SRP0[ ]	/* SetRefPoint0 */
PUSHW[ ]	/* 1 value pushed */
17
MDRP[10000]	/* MoveDirectRelPt */
PUSHW[ ]	/* 1 value pushed */
36
SRP0[ ]	/* SetRefPoint0 */
PUSHW[ ]	/* 1 value pushed */
25
MDRP[10000]	/* MoveDirectRelPt */
PUSHW[ ]	/* 1 value pushed */
25
MDAP[1]	/* MoveDirectAbsPt */
SVTCA[1]	/* SetFreedomAndProjectionVectorToAxis */
PUSHW[ ]	/* 3 values pushed */
10 17 3
CALL[ ]	/* CallFunction */
NPUSHW[ ]	/* 27 values pushed */
6 10 22 10 38 10 54 10 70 10 86 10 102 10 118 10 134 10 150 10 166 10 182 10 198 10 13
DELTAP1[ ]	/* DeltaExceptionP1 */
NPUSHW[ ]	/* 5 values pushed */
213 10 229 10 2
DELTAP1[ ]	/* DeltaExceptionP1 */
PUSHW[ ]	/* 1 value pushed */
10
SRP0[ ]	/* SetRefPoint0 */
PUSHW[ ]	/* 1 value pushed */
7
MDRP[10000]	/* MoveDirectRelPt */
PUSHW[ ]	/* 1 value pushed */
7
MDAP[1]	/* MoveDirectAbsPt */
PUSHW[ ]	/* 1 value pushed */
17
SRP0[ ]	/* SetRefPoint0 */
PUSHW[ ]	/* 1 value pushed */
25
MDRP[10000]	/* MoveDirectRelPt */
PUSHW[ ]	/* 1 value pushed */
25
MDAP[1]	/* MoveDirectAbsPt */
PUSHW[ ]	/* 1 value pushed */
10
SRP0[ ]	/* SetRefPoint0 */
PUSHW[ ]	/* 1 value pushed */
36
MDRP[10000]	/* MoveDirectRelPt */
PUSHW[ ]	/* 1 value pushed */
36
MDAP[1]	/* MoveDirectAbsPt */
IUP[0]	/* InterpolateUntPts */
IUP[1]	/* InterpolateUntPts */";
};
width = 299;
}
);
note = plus;
unicode = 43;
},
{
glyphname = comma;
layers = (
{
layerId = m01;
shapes = (
{
closed = 1;
nodes = (
(16,-63,o),
(11,-73,qs),
(8,-79,o),
(16,-87,o),
(21,-87,qs),
(29,-87,o),
(31,-82,q),
(36,-76,o),
(52,-47,o),
(60,-30,qs),
(66,-16,o),
(76,29,o),
(73,46,q),
(71,52,o),
(59,60,o),
(52,60,qs),
(46,60,o),
(37,54,o),
(37,46,qs),
(37,31,o),
(34,-9,o),
(31,-18,qs),
(26,-35,o)
);
}
);
userData = {
assembly = "PUSHW[ ]	/* 1 value pushed */
0
CALL[ ]	/* CallFunction */
SVTCA[0]	/* SetFreedomAndProjectionVectorToAxis */
PUSHW[ ]	/* 3 values pushed */
6 17 3
CALL[ ]	/* CallFunction */
IUP[0]	/* InterpolateUntPts */
IUP[1]	/* InterpolateUntPts */";
};
width = 109;
}
);
note = comma;
unicode = 44;
},
{
glyphname = hyphen;
layers = (
{
layerId = m01;
shapes = (
{
closed = 1;
nodes = (
(176,132,o),
(205,134,qs),
(222,135,o),
(216,156,o),
(198,158,qs),
(177,159,o),
(125,151,o),
(107,153,qs),
(93,154,o),
(74,159,o),
(64,159,qs),
(61,159,ls),
(53,158,o),
(49,144,o),
(52,138,qs),
(54,134,o),
(74,122,o),
(103,122,qs),
(130,122,o)
);
}
);
userData = {
assembly = "PUSHW[ ]	/* 1 value pushed */
0
CALL[ ]	/* CallFunction */
SVTCA[0]	/* SetFreedomAndProjectionVectorToAxis */
PUSHW[ ]	/* 3 values pushed */
10 0 3
CALL[ ]	/* CallFunction */
PUSHW[ ]	/* 1 value pushed */
10
SRP0[ ]	/* SetRefPoint0 */
PUSHW[ ]	/* 1 value pushed */
6
MDRP[10000]	/* MoveDirectRelPt */
PUSHW[ ]	/* 1 value pushed */
6
MDAP[1]	/* MoveDirectAbsPt */
PUSHW[ ]	/* 1 value pushed */
10
SRP0[ ]	/* SetRefPoint0 */
PUSHW[ ]	/* 1 value pushed */
13
MDRP[10000]	/* MoveDirectRelPt */
PUSHW[ ]	/* 1 value pushed */
13
MDAP[1]	/* MoveDirectAbsPt */
PUSHW[ ]	/* 1 value pushed */
7
MDRP[10000]	/* MoveDirectRelPt */
PUSHW[ ]	/* 1 value pushed */
7
MDAP[1]	/* MoveDirectAbsPt */
PUSHW[ ]	/* 1 value pushed */
13
SRP0[ ]	/* SetRefPoint0 */
PUSHW[ ]	/* 1 value pushed */
16
MDRP[11100]	/* MoveDirectRelPt */
IUP[0]	/* InterpolateUntPts */
IUP[1]	/* InterpolateUntPts */";
};
width = 270;
}
);
note = hyphen;
unicode = 45;
},
{
glyphname = period;
layers = (
{
layerId = m01;
shapes = (
{
closed = 1;
nodes = (
(63,22,o),
(68,27,qs),
(73,32,o),
(82,46,o),
(79,51,qs),
(77,56,o),
(67,59,o),
(59,59,qs),
(51,59,o),
(33,50,o),
(31,41,qs),
(29,35,o),
(33,21,o),
(40,17,qs),
(49,12,o)
);
}
);
userData = {
assembly = "PUSHW[ ]	/* 1 value pushed */
0
CALL[ ]	/* CallFunction */
SVTCA[0]	/* SetFreedomAndProjectionVectorToAxis */
PUSHW[ ]	/* 1 value pushed */
6
MDAP[1]	/* MoveDirectAbsPt */
IUP[0]	/* InterpolateUntPts */
IUP[1]	/* InterpolateUntPts */";
};
width = 110;
}
);
note = period;
unicode = 46;
},
{
glyphname = slash;
layers = (
{
layerId = m01;
shapes = (
{
closed = 1;
nodes = (
(220,323,o),
(190,281,o),
(153,231,o),
(133,204,qs),
(95,153,o),
(51,86,o),
(50,67,qs),
(49,55,o),
(58,42,o),
(63,42,qs),
(67,42,o),
(71,45,qs),
(76,49,o),
(86,70,o),
(104,105,o),
(135,154,o),
(160,186,qs),
(167,195,o),
(199,241,o),
(237,292,o),
(271,337,o),
(279,346,qs),
(287,354,o),
(275,368,o),
(265,368,qs),
(260,368,o),
(250,363,o),
(246,358,qs),
(242,352,o)
);
}
);
userData = {
assembly = "PUSHW[ ]	/* 1 value pushed */
0
CALL[ ]	/* CallFunction */
SVTCA[0]	/* SetFreedomAndProjectionVectorToAxis */
PUSHW[ ]	/* 1 value pushed */
16
MDAP[1]	/* MoveDirectAbsPt */
PUSHW[ ]	/* 1 value pushed */
18
MDAP[1]	/* MoveDirectAbsPt */
PUSHW[ ]	/* 3 values pushed */
3 0 3
CALL[ ]	/* CallFunction */
IUP[0]	/* InterpolateUntPts */
IUP[1]	/* InterpolateUntPts */";
};
width = 333;
}
);
note = slash;
unicode = 47;
},
{
glyphname = zero;
layers = (
{
layerId = m01;
shapes = (
{
closed = 1;
nodes = (
(213,86,o),
(178,65,o),
(143,51,o),
(128,51,qs),
(124,51,ls),
(108,52,o),
(83,72,o),
(67,100,o),
(59,131,o),
(60,143,qs),
(61,166,o),
(76,212,o),
(100,255,o),
(132,292,o),
(150,305,q),
(157,300,o),
(167,306,qs),
(171,308,o),
(178,314,o),
(183,317,q),
(191,317,o),
(203,312,o),
(208,310,q),
(216,305,o),
(227,313,o),
(223,321,qs),
(220,327,o),
(209,334,q),
(229,346,o),
(277,366,o),
(304,367,qs),
(325,367,o),
(364,341,o),
(366,305,qs),
(367,263,o),
(311,167,o),
(254,118,qs),
(243,109,o)
);
},
{
closed = 1;
nodes = (
(269,398,o),
(206,365,o),
(174,342,q),
(171,342,ls),
(159,343,o),
(127,323,o),
(93,292,o),
(63,253,o),
(54,236,qs),
(41,211,o),
(22,158,o),
(26,124,qs),
(28,108,o),
(44,71,o),
(71,38,o),
(107,17,o),
(129,17,qs),
(148,17,o),
(190,35,o),
(232,63,o),
(274,97,o),
(292,113,qs),
(312,131,o),
(351,173,o),
(381,221,o),
(401,275,o),
(402,303,qs),
(403,322,o),
(389,356,o),
(364,382,o),
(330,398,o),
(311,398,qs),
(308,398,ls)
);
}
);
userData = {
assembly = "PUSHW[ ]	/* 1 value pushed */
0
CALL[ ]	/* CallFunction */
SVTCA[0]	/* SetFreedomAndProjectionVectorToAxis */
PUSHW[ ]	/* 3 values pushed */
33 53 3
CALL[ ]	/* CallFunction */
PUSHW[ ]	/* 3 values pushed */
70 6 3
CALL[ ]	/* CallFunction */
PUSHW[ ]	/* 3 values pushed */
67 17 3
CALL[ ]	/* CallFunction */
PUSHW[ ]	/* 3 values pushed */
9 17 67
SRP1[ ]	/* SetRefPoint1 */
SRP2[ ]	/* SetRefPoint2 */
IP[ ]	/* InterpolatePts */
IUP[0]	/* InterpolateUntPts */
IUP[1]	/* InterpolateUntPts */";
};
width = 427;
}
);
note = zero;
unicode = 48;
},
{
glyphname = one;
layers = (
{
layerId = m01;
shapes = (
{
closed = 1;
nodes = (
(82,265,o),
(69,227,qs),
(63,210,o),
(49,164,o),
(38,118,o),
(30,78,o),
(30,66,qs),
(30,60,o),
(32,37,o),
(39,15,o),
(51,-2,o),
(60,-2,qs),
(64,-2,o),
(70,3,o),
(69,8,qs),
(68,13,o),
(66,34,o),
(64,62,o),
(66,94,o),
(70,109,qs),
(75,130,o),
(90,180,o),
(107,229,o),
(123,272,o),
(128,286,qs),
(139,318,o),
(159,384,o),
(161,404,qs),
(162,409,o),
(148,416,o),
(140,416,qs),
(130,416,o),
(127,408,qs),
(124,395,o),
(117,364,o),
(112,350,qs),
(104,325,o)
);
}
);
userData = {
assembly = "PUSHW[ ]	/* 1 value pushed */
0
CALL[ ]	/* CallFunction */
SVTCA[0]	/* SetFreedomAndProjectionVectorToAxis */
PUSHW[ ]	/* 1 value pushed */
5
MDAP[1]	/* MoveDirectAbsPt */
PUSHW[ ]	/* 1 value pushed */
0
RCVT[ ]	/* ReadCVT */
IF[ ]	/* If */
PUSHW[ ]	/* 1 value pushed */
24
MDAP[1]	/* MoveDirectAbsPt */
ELSE[ ]	/* Else */
PUSHW[ ]	/* 2 values pushed */
24 5
MIAP[0]	/* MoveIndirectAbsPt */
EIF[ ]	/* EndIf */
IUP[0]	/* InterpolateUntPts */
IUP[1]	/* InterpolateUntPts */";
};
width = 176;
}
);
note = one;
unicode = 49;
},
{
glyphname = two;
layers = (
{
layerId = m01;
shapes = (
{
closed = 1;
nodes = (
(86,250,o),
(90,249,q),
(97,249,o),
(100,264,o),
(102,273,qs),
(106,293,o),
(137,329,o),
(179,355,o),
(226,370,o),
(245,370,qs),
(253,370,ls),
(276,368,o),
(290,345,o),
(288,329,qs),
(286,307,o),
(258,254,o),
(215,199,o),
(162,145,o),
(107,98,o),
(56,62,o),
(37,52,qs),
(24,46,o),
(34,32,qs),
(39,26,o),
(50,19,o),
(61,19,qs),
(67,19,o),
(106,22,o),
(152,25,o),
(198,29,o),
(212,29,qs),
(229,29,o),
(258,26,o),
(266,24,qs),
(275,23,o),
(285,32,o),
(270,42,qs),
(250,56,o),
(205,62,o),
(181,62,qs),
(167,62,o),
(141,61,o),
(130,60,qs),
(118,59,o),
(107,58,q),
(133,78,o),
(207,144,o),
(275,222,o),
(323,304,o),
(324,340,qs),
(324,355,o),
(310,379,o),
(287,395,o),
(259,403,o),
(245,403,qs),
(210,403,o),
(146,375,o),
(120,353,qs),
(99,335,o),
(70,292,o),
(70,275,qs),
(70,262,o)
);
}
);
userData = {
assembly = "PUSHW[ ]	/* 1 value pushed */
0
CALL[ ]	/* CallFunction */
SVTCA[0]	/* SetFreedomAndProjectionVectorToAxis */
PUSHW[ ]	/* 3 values pushed */
21 30 3
CALL[ ]	/* CallFunction */
PUSHW[ ]	/* 3 values pushed */
6 51 3
CALL[ ]	/* CallFunction */
PUSHW[ ]	/* 1 value pushed */
21
SRP0[ ]	/* SetRefPoint0 */
PUSHW[ ]	/* 1 value pushed */
16
MDRP[10000]	/* MoveDirectRelPt */
PUSHW[ ]	/* 1 value pushed */
16
MDAP[1]	/* MoveDirectAbsPt */
PUSHW[ ]	/* 1 value pushed */
21
SRP0[ ]	/* SetRefPoint0 */
PUSHW[ ]	/* 1 value pushed */
18
MDRP[10000]	/* MoveDirectRelPt */
PUSHW[ ]	/* 1 value pushed */
18
MDAP[1]	/* MoveDirectAbsPt */
PUSHW[ ]	/* 1 value pushed */
30
SRP0[ ]	/* SetRefPoint0 */
PUSHW[ ]	/* 1 value pushed */
27
MDRP[10000]	/* MoveDirectRelPt */
PUSHW[ ]	/* 1 value pushed */
27
MDAP[1]	/* MoveDirectAbsPt */
IUP[0]	/* InterpolateUntPts */
IUP[1]	/* InterpolateUntPts */";
};
width = 354;
}
);
note = two;
unicode = 50;
},
{
glyphname = three;
layers = (
{
layerId = m01;
shapes = (
{
closed = 1;
nodes = (
(147,355,o),
(154,366,qs),
(162,378,o),
(195,383,o),
(211,383,qs),
(221,383,o),
(245,382,o),
(267,377,o),
(282,368,o),
(282,360,qs),
(282,344,o),
(257,306,o),
(223,272,o),
(185,243,o),
(172,234,qs),
(163,229,o),
(133,213,o),
(127,210,qs),
(120,207,o),
(116,192,o),
(123,186,qs),
(127,182,o),
(159,181,o),
(179,179,qs),
(198,178,o),
(237,172,o),
(268,161,o),
(287,146,o),
(286,134,qs),
(285,109,o),
(249,73,o),
(200,49,o),
(145,38,o),
(124,38,qs),
(95,38,o),
(56,57,o),
(54,62,qs),
(52,67,o),
(59,79,o),
(55,87,qs),
(53,92,o),
(37,93,o),
(32,89,qs),
(27,84,o),
(21,72,o),
(20,64,qs),
(19,55,o),
(46,27,o),
(67,19,qs),
(100,6,o),
(138,6,qs),
(164,6,o),
(228,24,o),
(283,57,o),
(320,105,o),
(320,135,qs),
(320,154,o),
(292,184,o),
(263,192,qs),
(246,197,o),
(198,206,o),
(178,208,q),
(198,220,o),
(243,253,o),
(284,292,o),
(312,338,o),
(313,363,qs),
(313,371,o),
(306,388,o),
(284,403,o),
(246,413,o),
(216,414,qs),
(190,414,o),
(153,404,o),
(143,397,qs),
(135,392,o),
(124,377,o),
(122,368,qs),
(121,361,o),
(134,342,o),
(140,341,qs),
(150,339,o)
);
}
);
userData = {
assembly = "PUSHW[ ]	/* 1 value pushed */
0
CALL[ ]	/* CallFunction */
SVTCA[0]	/* SetFreedomAndProjectionVectorToAxis */
PUSHW[ ]	/* 1 value pushed */
0
MDAP[1]	/* MoveDirectAbsPt */
PUSHW[ ]	/* 3 values pushed */
47 30 3
CALL[ ]	/* CallFunction */
PUSHW[ ]	/* 3 values pushed */
9 76 3
CALL[ ]	/* CallFunction */
SVTCA[1]	/* SetFreedomAndProjectionVectorToAxis */
PUSHW[ ]	/* 3 values pushed */
41 35 3
CALL[ ]	/* CallFunction */
NPUSHW[ ]	/* 27 values pushed */
6 41 22 41 38 41 54 41 70 41 86 41 102 41 118 41 134 41 150 41 166 41 182 41 198 41 13
DELTAP1[ ]	/* DeltaExceptionP1 */
NPUSHW[ ]	/* 5 values pushed */
213 41 229 41 2
DELTAP1[ ]	/* DeltaExceptionP1 */
IUP[0]	/* InterpolateUntPts */
IUP[1]	/* InterpolateUntPts */";
};
width = 355;
}
);
note = three;
unicode = 51;
},
{
glyphname = four;
layers = (
{
layerId = m01;
shapes = (
{
closed = 1;
nodes = (
(324,201,o),
(290,191,o),
(252,177,o),
(236,171,qs),
(226,167,o),
(212,162,q),
(225,197,o),
(247,238,o),
(249,246,qs),
(250,251,o),
(238,259,o),
(231,259,qs),
(223,259,o),
(206,237,o),
(191,209,o),
(180,180,o),
(178,174,qs),
(176,167,o),
(170,153,o),
(167,145,q),
(153,140,o),
(117,130,o),
(101,130,qs),
(89,130,o),
(71,138,o),
(69,148,qs),
(67,156,o),
(80,188,o),
(100,224,o),
(122,259,o),
(128,269,qs),
(141,290,o),
(172,332,o),
(200,369,o),
(225,397,o),
(232,404,qs),
(241,413,o),
(223,426,o),
(212,426,qs),
(203,426,o),
(199,422,qs),
(189,414,o),
(135,338,o),
(97,279,qs),
(69,236,o),
(34,177,o),
(30,153,qs),
(27,132,o),
(64,96,o),
(90,94,qs),
(104,92,o),
(138,98,o),
(155,103,q),
(153,93,o),
(150,75,o),
(150,65,qs),
(149,34,o),
(163,-1,o),
(168,-6,qs),
(171,-10,o),
(178,-10,qs),
(183,-10,o),
(190,-4,o),
(189,1,qs),
(187,11,o),
(186,28,o),
(186,39,qs),
(187,54,o),
(192,86,o),
(197,109,qs),
(199,115,o),
(199,116,q),
(210,120,o),
(227,127,o),
(235,130,qs),
(251,137,o),
(287,152,o),
(321,166,o),
(350,176,o),
(358,178,qs),
(368,181,o),
(372,198,o),
(359,203,qs),
(352,206,o)
);
}
);
userData = {
assembly = "PUSHW[ ]	/* 1 value pushed */
0
CALL[ ]	/* CallFunction */
SVTCA[0]	/* SetFreedomAndProjectionVectorToAxis */
PUSHW[ ]	/* 1 value pushed */
42
MDAP[1]	/* MoveDirectAbsPt */
PUSHW[ ]	/* 1 value pushed */
44
MDAP[1]	/* MoveDirectAbsPt */
PUSHW[ ]	/* 1 value pushed */
71
MDAP[1]	/* MoveDirectAbsPt */
PUSHW[ ]	/* 1 value pushed */
0
RCVT[ ]	/* ReadCVT */
IF[ ]	/* If */
PUSHW[ ]	/* 1 value pushed */
22
MDAP[1]	/* MoveDirectAbsPt */
ELSE[ ]	/* Else */
PUSHW[ ]	/* 2 values pushed */
22 5
MIAP[0]	/* MoveIndirectAbsPt */
EIF[ ]	/* EndIf */
PUSHW[ ]	/* 1 value pushed */
0
RCVT[ ]	/* ReadCVT */
IF[ ]	/* If */
PUSHW[ ]	/* 1 value pushed */
24
MDAP[1]	/* MoveDirectAbsPt */
ELSE[ ]	/* Else */
PUSHW[ ]	/* 2 values pushed */
24 5
MIAP[0]	/* MoveIndirectAbsPt */
EIF[ ]	/* EndIf */
PUSHW[ ]	/* 1 value pushed */
0
RCVT[ ]	/* ReadCVT */
IF[ ]	/* If */
PUSHW[ ]	/* 1 value pushed */
19
MDAP[1]	/* MoveDirectAbsPt */
ELSE[ ]	/* Else */
PUSHW[ ]	/* 2 values pushed */
19 5
MIAP[0]	/* MoveIndirectAbsPt */
EIF[ ]	/* EndIf */
PUSHW[ ]	/* 3 values pushed */
60 33 3
CALL[ ]	/* CallFunction */
PUSHW[ ]	/* 3 values pushed */
30 33 60
SRP1[ ]	/* SetRefPoint1 */
SRP2[ ]	/* SetRefPoint2 */
IP[ ]	/* InterpolatePts */
PUSHW[ ]	/* 3 values pushed */
77 22 44
SRP1[ ]	/* SetRefPoint1 */
SRP2[ ]	/* SetRefPoint2 */
IP[ ]	/* InterpolatePts */
SVTCA[1]	/* SetFreedomAndProjectionVectorToAxis */
PUSHW[ ]	/* 3 values pushed */
16 27 3
CALL[ ]	/* CallFunction */
NPUSHW[ ]	/* 27 values pushed */
6 16 22 16 38 16 54 16 70 16 86 16 102 16 118 16 134 16 150 16 166 16 182 16 198 16 13
DELTAP1[ ]	/* DeltaExceptionP1 */
NPUSHW[ ]	/* 5 values pushed */
213 16 229 16 2
DELTAP1[ ]	/* DeltaExceptionP1 */
PUSHW[ ]	/* 1 value pushed */
16
SRP0[ ]	/* SetRefPoint0 */
PUSHW[ ]	/* 1 value pushed */
19
MDRP[10000]	/* MoveDirectRelPt */
PUSHW[ ]	/* 1 value pushed */
19
MDAP[1]	/* MoveDirectAbsPt */
PUSHW[ ]	/* 1 value pushed */
27
SRP0[ ]	/* SetRefPoint0 */
PUSHW[ ]	/* 1 value pushed */
30
MDRP[10000]	/* MoveDirectRelPt */
PUSHW[ ]	/* 1 value pushed */
30
MDAP[1]	/* MoveDirectAbsPt */
IUP[0]	/* InterpolateUntPts */
IUP[1]	/* InterpolateUntPts */";
};
width = 390;
}
);
note = four;
unicode = 52;
},
{
glyphname = five;
layers = (
{
layerId = m01;
shapes = (
{
closed = 1;
nodes = (
(204,365,o),
(172,365,o),
(149,364,o),
(147,362,qs),
(139,355,o),
(109,315,o),
(79,268,o),
(56,226,o),
(55,215,qs),
(54,203,o),
(80,174,o),
(100,176,qs),
(122,178,o),
(175,194,o),
(190,195,qs),
(206,196,o),
(216,195,o),
(219,192,qs),
(222,190,o),
(210,162,o),
(198,146,qs),
(189,135,o),
(158,103,o),
(120,74,o),
(83,53,o),
(68,53,qs),
(58,53,o),
(45,60,o),
(40,61,qs),
(34,62,o),
(29,54,o),
(31,50,qs),
(36,41,o),
(54,25,o),
(74,25,qs),
(90,25,o),
(125,39,o),
(158,61,o),
(187,88,o),
(199,100,qs),
(210,111,o),
(232,136,o),
(249,163,o),
(260,188,o),
(258,197,qs),
(256,211,o),
(227,227,o),
(205,227,qs),
(193,227,o),
(179,224,qs),
(161,220,o),
(119,207,o),
(105,207,qs),
(97,207,o),
(94,210,qs),
(92,213,o),
(96,228,o),
(105,247,o),
(116,268,o),
(121,276,qs),
(132,292,o),
(155,324,o),
(158,328,qs),
(160,330,o),
(185,330,o),
(199,330,qs),
(228,330,o),
(284,338,o),
(311,347,qs),
(322,350,o),
(353,360,o),
(385,370,o),
(413,378,o),
(422,381,qs),
(437,386,o),
(430,398,o),
(417,397,qs),
(395,396,o),
(351,387,o),
(308,376,o),
(268,368,o),
(250,366,qs),
(237,365,o)
);
}
);
userData = {
assembly = "PUSHW[ ]	/* 1 value pushed */
0
CALL[ ]	/* CallFunction */
SVTCA[0]	/* SetFreedomAndProjectionVectorToAxis */
PUSHW[ ]	/* 1 value pushed */
5
MDAP[1]	/* MoveDirectAbsPt */
PUSHW[ ]	/* 3 values pushed */
56 47 3
CALL[ ]	/* CallFunction */
PUSHW[ ]	/* 3 values pushed */
0 16 3
CALL[ ]	/* CallFunction */
PUSHW[ ]	/* 3 values pushed */
29 70 3
CALL[ ]	/* CallFunction */
PUSHW[ ]	/* 3 values pushed */
34 37 3
CALL[ ]	/* CallFunction */
PUSHW[ ]	/* 1 value pushed */
37
SRP0[ ]	/* SetRefPoint0 */
PUSHW[ ]	/* 1 value pushed */
67
MDRP[10000]	/* MoveDirectRelPt */
PUSHW[ ]	/* 1 value pushed */
67
MDAP[1]	/* MoveDirectAbsPt */
IUP[0]	/* InterpolateUntPts */
IUP[1]	/* InterpolateUntPts */";
};
width = 354;
}
);
note = five;
unicode = 53;
},
{
glyphname = six;
layers = (
{
layerId = m01;
shapes = (
{
closed = 1;
nodes = (
(241,159,o),
(242,147,qs),
(243,134,o),
(220,107,o),
(200,91,qs),
(181,75,o),
(127,43,o),
(104,41,qs),
(85,41,o),
(67,74,o),
(68,99,qs),
(69,126,o),
(87,159,q),
(99,163,o),
(150,183,o),
(179,184,qs),
(208,184,o)
);
},
{
closed = 1;
nodes = (
(229,329,o),
(273,357,q),
(282,364,o),
(301,371,o),
(319,376,o),
(332,381,o),
(335,384,qs),
(339,389,o),
(316,407,o),
(302,407,qs),
(292,407,o),
(256,385,o),
(216,354,o),
(178,319,o),
(164,306,qs),
(146,289,o),
(99,237,o),
(57,178,o),
(28,117,o),
(28,90,qs),
(28,74,o),
(39,43,o),
(59,19,o),
(84,4,o),
(97,4,qs),
(111,4,o),
(143,16,o),
(176,34,o),
(205,54,o),
(216,63,qs),
(227,71,o),
(249,91,o),
(268,114,o),
(280,140,o),
(279,155,qs),
(278,170,o),
(255,193,o),
(224,207,o),
(190,214,o),
(178,214,qs),
(162,214,o),
(128,207,o),
(114,202,q),
(116,206,o),
(122,212,o),
(124,215,qs),
(158,254,o)
);
}
);
userData = {
assembly = "PUSHW[ ]	/* 1 value pushed */
0
CALL[ ]	/* CallFunction */
SVTCA[0]	/* SetFreedomAndProjectionVectorToAxis */
PUSHW[ ]	/* 1 value pushed */
53
MDAP[1]	/* MoveDirectAbsPt */
PUSHW[ ]	/* 3 values pushed */
8 38 3
CALL[ ]	/* CallFunction */
PUSHW[ ]	/* 3 values pushed */
23 0 3
CALL[ ]	/* CallFunction */
PUSHW[ ]	/* 3 values pushed */
20 0 23
SRP1[ ]	/* SetRefPoint1 */
SRP2[ ]	/* SetRefPoint2 */
IP[ ]	/* InterpolatePts */
SVTCA[1]	/* SetFreedomAndProjectionVectorToAxis */
PUSHW[ ]	/* 1 value pushed */
64
MDAP[1]	/* MoveDirectAbsPt */
PUSHW[ ]	/* 1 value pushed */
14
MDAP[1]	/* MoveDirectAbsPt */
PUSHW[ ]	/* 1 value pushed */
64
SRP0[ ]	/* SetRefPoint0 */
PUSHW[ ]	/* 1 value pushed */
43
MDRP[10000]	/* MoveDirectRelPt */
PUSHW[ ]	/* 1 value pushed */
43
MDAP[1]	/* MoveDirectAbsPt */
PUSHW[ ]	/* 1 value pushed */
5
MDRP[11100]	/* MoveDirectRelPt */
NPUSHW[ ]	/* 27 values pushed */
6 5 22 5 38 5 54 5 70 5 86 5 102 5 118 5 134 5 150 5 166 5 182 5 198 5 13
DELTAP1[ ]	/* DeltaExceptionP1 */
NPUSHW[ ]	/* 5 values pushed */
213 5 229 5 2
DELTAP1[ ]	/* DeltaExceptionP1 */
NPUSHW[ ]	/* 5 values pushed */
218 14 234 14 2
DELTAP1[ ]	/* DeltaExceptionP1 */
NPUSHW[ ]	/* 27 values pushed */
9 14 25 14 41 14 57 14 73 14 89 14 105 14 121 14 137 14 153 14 169 14 185 14 201 14 13
DELTAP1[ ]	/* DeltaExceptionP1 */
PUSHW[ ]	/* 1 value pushed */
14
SRP0[ ]	/* SetRefPoint0 */
PUSHW[ ]	/* 1 value pushed */
28
MDRP[11100]	/* MoveDirectRelPt */
PUSHW[ ]	/* 3 values pushed */
20 43 28
SRP1[ ]	/* SetRefPoint1 */
SRP2[ ]	/* SetRefPoint2 */
IP[ ]	/* InterpolatePts */
PUSHW[ ]	/* 1 value pushed */
61
MDRP[10000]	/* MoveDirectRelPt */
PUSHW[ ]	/* 1 value pushed */
61
MDAP[1]	/* MoveDirectAbsPt */
IUP[0]	/* InterpolateUntPts */
IUP[1]	/* InterpolateUntPts */";
};
width = 351;
}
);
note = six;
unicode = 54;
},
{
glyphname = seven;
layers = (
{
layerId = m01;
shapes = (
{
closed = 1;
nodes = (
(231,194,o),
(200,191,q),
(212,205,o),
(231,228,o),
(236,234,qs),
(247,248,o),
(272,280,o),
(296,313,o),
(316,342,o),
(321,351,qs),
(329,365,o),
(337,383,o),
(333,390,qs),
(327,403,o),
(299,401,qs),
(292,401,o),
(262,393,o),
(229,384,o),
(198,375,o),
(190,373,qs),
(173,368,o),
(129,362,o),
(110,362,qs),
(97,362,ls),
(91,362,o),
(84,354,o),
(85,343,o),
(92,334,o),
(99,334,qs),
(110,334,ls),
(131,334,o),
(171,341,o),
(188,344,qs),
(196,346,o),
(237,358,o),
(256,363,qs),
(275,369,o),
(299,376,o),
(300,373,q),
(300,370,o),
(278,339,o),
(268,326,qs),
(264,320,o),
(237,285,o),
(205,244,o),
(175,206,o),
(168,197,qs),
(166,195,o),
(162,190,o),
(159,186,q),
(150,186,l),
(137,184,o),
(106,182,o),
(92,184,qs),
(77,185,o),
(52,195,o),
(41,192,qs),
(31,189,o),
(34,169,o),
(45,161,qs),
(56,153,o),
(100,149,o),
(122,151,qs),
(127,151,o),
(130,152,q),
(116,135,o),
(88,101,o),
(79,90,qs),
(71,80,o),
(53,57,o),
(37,36,o),
(26,20,o),
(25,15,qs),
(24,10,o),
(34,2,o),
(41,2,qs),
(46,2,o),
(49,5,qs),
(54,9,o),
(72,30,o),
(94,58,o),
(117,87,o),
(126,98,qs),
(133,108,o),
(158,139,o),
(172,156,q),
(189,158,o),
(230,164,o),
(273,171,o),
(313,181,o),
(328,187,qs),
(338,191,o),
(336,206,o),
(319,204,qs),
(298,202,o)
);
}
);
userData = {
assembly = "PUSHW[ ]	/* 1 value pushed */
0
CALL[ ]	/* CallFunction */
SVTCA[0]	/* SetFreedomAndProjectionVectorToAxis */
PUSHW[ ]	/* 1 value pushed */
79
MDAP[1]	/* MoveDirectAbsPt */
PUSHW[ ]	/* 1 value pushed */
3
MDAP[1]	/* MoveDirectAbsPt */
PUSHW[ ]	/* 1 value pushed */
37
MDAP[1]	/* MoveDirectAbsPt */
PUSHW[ ]	/* 1 value pushed */
43
MDAP[1]	/* MoveDirectAbsPt */
PUSHW[ ]	/* 1 value pushed */
47
MDAP[1]	/* MoveDirectAbsPt */
PUSHW[ ]	/* 1 value pushed */
92
MDAP[1]	/* MoveDirectAbsPt */
PUSHW[ ]	/* 3 values pushed */
71 64 3
CALL[ ]	/* CallFunction */
PUSHW[ ]	/* 3 values pushed */
40 31 3
CALL[ ]	/* CallFunction */
PUSHW[ ]	/* 1 value pushed */
37
SRP0[ ]	/* SetRefPoint0 */
PUSHW[ ]	/* 1 value pushed */
0
MDRP[11100]	/* MoveDirectRelPt */
PUSHW[ ]	/* 1 value pushed */
31
SRP0[ ]	/* SetRefPoint0 */
PUSHW[ ]	/* 1 value pushed */
8
MDRP[10000]	/* MoveDirectRelPt */
PUSHW[ ]	/* 1 value pushed */
8
MDAP[1]	/* MoveDirectAbsPt */
PUSHW[ ]	/* 1 value pushed */
40
SRP0[ ]	/* SetRefPoint0 */
PUSHW[ ]	/* 1 value pushed */
44
MDRP[10000]	/* MoveDirectRelPt */
PUSHW[ ]	/* 1 value pushed */
44
MDAP[1]	/* MoveDirectAbsPt */
IUP[0]	/* InterpolateUntPts */
IUP[1]	/* InterpolateUntPts */";
};
width = 362;
}
);
note = seven;
unicode = 55;
},
{
glyphname = eight;
layers = (
{
layerId = m01;
shapes = (
{
closed = 1;
nodes = (
(113,53,o),
(101,53,qs),
(94,53,l),
(80,55,o),
(57,81,o),
(58,97,qs),
(59,111,o),
(79,139,o),
(88,146,qs),
(90,148,o),
(103,156,o),
(112,161,q),
(118,146,o),
(133,101,o),
(133,86,qs),
(133,66,o)
);
},
{
closed = 1;
nodes = (
(163,232,o),
(131,213,q),
(125,231,o),
(118,266,o),
(120,282,qs),
(121,297,o),
(141,327,o),
(169,349,o),
(202,363,o),
(217,363,qs),
(238,363,o),
(261,340,o),
(261,326,qs),
(260,308,o),
(253,295,o),
(255,287,qs),
(257,279,o),
(264,277,q),
(229,263,o)
);
},
{
closed = 1;
nodes = (
(385,326,o),
(361,317,o),
(337,307,o),
(327,303,qs),
(319,300,o),
(298,291,o),
(285,286,q),
(298,308,o),
(293,338,qs),
(292,345,o),
(280,365,o),
(259,384,o),
(230,397,o),
(212,397,qs),
(188,396,o),
(142,376,o),
(105,344,o),
(82,302,o),
(81,278,qs),
(80,258,o),
(92,214,o),
(99,195,q),
(94,193,o),
(86,188,o),
(83,186,qs),
(61,172,o),
(25,129,o),
(25,103,qs),
(25,90,o),
(36,62,o),
(56,39,o),
(85,24,o),
(103,24,qs),
(142,25,o),
(168,64,o),
(168,86,qs),
(168,99,o),
(166,119,o),
(160,137,o),
(152,157,o),
(147,169,qs),
(146,171,o),
(144,177,o),
(143,180,q),
(160,191,o),
(196,210,o),
(209,217,qs),
(222,223,o),
(256,239,o),
(291,255,o),
(324,270,o),
(337,276,qs),
(363,288,o),
(413,314,o),
(421,319,qs),
(427,323,o),
(422,339,o),
(412,335,qs),
(406,333,o)
);
}
);
userData = {
assembly = "PUSHW[ ]	/* 1 value pushed */
0
CALL[ ]	/* CallFunction */
SVTCA[0]	/* SetFreedomAndProjectionVectorToAxis */
PUSHW[ ]	/* 3 values pushed */
13 60 3
CALL[ ]	/* CallFunction */
PUSHW[ ]	/* 3 values pushed */
79 24 3
CALL[ ]	/* CallFunction */
SVTCA[1]	/* SetFreedomAndProjectionVectorToAxis */
PUSHW[ ]	/* 3 values pushed */
9 65 3
CALL[ ]	/* CallFunction */
PUSHW[ ]	/* 3 values pushed */
57 0 3
CALL[ ]	/* CallFunction */
PUSHW[ ]	/* 3 values pushed */
84 21 3
CALL[ ]	/* CallFunction */
PUSHW[ ]	/* 3 values pushed */
29 74 3
CALL[ ]	/* CallFunction */
NPUSHW[ ]	/* 27 values pushed */
6 9 22 9 38 9 54 9 70 9 86 9 102 9 118 9 134 9 150 9 166 9 182 9 198 9 13
DELTAP1[ ]	/* DeltaExceptionP1 */
NPUSHW[ ]	/* 5 values pushed */
213 9 229 9 2
DELTAP1[ ]	/* DeltaExceptionP1 */
NPUSHW[ ]	/* 5 values pushed */
218 21 234 21 2
DELTAP1[ ]	/* DeltaExceptionP1 */
NPUSHW[ ]	/* 27 values pushed */
9 21 25 21 41 21 57 21 73 21 89 21 105 21 121 21 137 21 153 21 169 21 185 21 201 21 13
DELTAP1[ ]	/* DeltaExceptionP1 */
PUSHW[ ]	/* 3 values pushed */
16 21 84
SRP1[ ]	/* SetRefPoint1 */
SRP2[ ]	/* SetRefPoint2 */
IP[ ]	/* InterpolatePts */
NPUSHW[ ]	/* 27 values pushed */
6 29 22 29 38 29 54 29 70 29 86 29 102 29 118 29 134 29 150 29 166 29 182 29 198 29 13
DELTAP1[ ]	/* DeltaExceptionP1 */
NPUSHW[ ]	/* 5 values pushed */
213 29 229 29 2
DELTAP1[ ]	/* DeltaExceptionP1 */
NPUSHW[ ]	/* 27 values pushed */
6 57 22 57 38 57 54 57 70 57 86 57 102 57 118 57 134 57 150 57 166 57 182 57 198 57 13
DELTAP1[ ]	/* DeltaExceptionP1 */
NPUSHW[ ]	/* 5 values pushed */
213 57 229 57 2
DELTAP1[ ]	/* DeltaExceptionP1 */
PUSHW[ ]	/* 3 values pushed */
86 21 84
SRP1[ ]	/* SetRefPoint1 */
SRP2[ ]	/* SetRefPoint2 */
IP[ ]	/* InterpolatePts */
IUP[0]	/* InterpolateUntPts */
IUP[1]	/* InterpolateUntPts */";
};
width = 410;
}
);
note = eight;
unicode = 56;
},
{
glyphname = nine;
layers = (
{
layerId = m01;
shapes = (
{
closed = 1;
nodes = (
(200,343,qs),
(206,343,o),
(210,362,o),
(206,370,qs),
(201,380,o),
(169,393,o),
(151,393,qs),
(130,393,o),
(87,374,o),
(51,342,o),
(27,301,o),
(25,280,qs),
(23,254,o),
(53,217,o),
(82,212,q),
(89,212,ls),
(101,212,o),
(124,221,o),
(142,231,o),
(155,240,o),
(156,240,q),
(154,233,o),
(132,188,o),
(122,165,qs),
(113,143,o),
(95,96,o),
(96,76,qs),
(96,59,o),
(118,28,o),
(129,26,qs),
(141,25,o),
(153,38,o),
(146,43,qs),
(126,60,o),
(131,90,qs),
(132,98,o),
(151,147,o),
(176,204,o),
(201,257,o),
(207,267,q),
(222,286,o),
(253,334,o),
(258,344,qs),
(261,349,o),
(268,363,o),
(275,377,o),
(279,388,o),
(279,391,qs),
(278,396,o),
(268,401,o),
(262,401,qs),
(252,401,o),
(246,395,qs),
(239,390,o),
(222,363,o),
(217,354,qs),
(212,347,o),
(206,332,o),
(203,326,qs),
(201,323,o),
(183,306,o),
(160,285,o),
(137,267,o),
(130,262,qs),
(116,252,o),
(96,241,o),
(84,242,qs),
(72,243,o),
(60,267,o),
(62,287,qs),
(63,298,o),
(79,325,o),
(103,349,o),
(134,365,o),
(150,365,qs),
(174,365,o),
(189,351,o),
(195,346,qs),
(198,343,o)
);
}
);
userData = {
assembly = "PUSHW[ ]	/* 1 value pushed */
0
CALL[ ]	/* CallFunction */
SVTCA[0]	/* SetFreedomAndProjectionVectorToAxis */
PUSHW[ ]	/* 1 value pushed */
48
MDAP[1]	/* MoveDirectAbsPt */
PUSHW[ ]	/* 3 values pushed */
71 3 3
CALL[ ]	/* CallFunction */
PUSHW[ ]	/* 3 values pushed */
11 63 3
CALL[ ]	/* CallFunction */
PUSHW[ ]	/* 1 value pushed */
11
SRP0[ ]	/* SetRefPoint0 */
PUSHW[ ]	/* 1 value pushed */
57
MDRP[10000]	/* MoveDirectRelPt */
PUSHW[ ]	/* 1 value pushed */
57
MDAP[1]	/* MoveDirectAbsPt */
SVTCA[1]	/* SetFreedomAndProjectionVectorToAxis */
PUSHW[ ]	/* 3 values pushed */
48 51 3
CALL[ ]	/* CallFunction */
NPUSHW[ ]	/* 27 values pushed */
6 48 22 48 38 48 54 48 70 48 86 48 102 48 118 48 134 48 150 48 166 48 182 48 198 48 13
DELTAP1[ ]	/* DeltaExceptionP1 */
NPUSHW[ ]	/* 5 values pushed */
213 48 229 48 2
DELTAP1[ ]	/* DeltaExceptionP1 */
PUSHW[ ]	/* 1 value pushed */
48
SRP0[ ]	/* SetRefPoint0 */
PUSHW[ ]	/* 1 value pushed */
43
MDRP[10000]	/* MoveDirectRelPt */
PUSHW[ ]	/* 1 value pushed */
43
MDAP[1]	/* MoveDirectAbsPt */
IUP[0]	/* InterpolateUntPts */
IUP[1]	/* InterpolateUntPts */";
};
width = 299;
}
);
note = nine;
unicode = 57;
},
{
glyphname = colon;
layers = (
{
layerId = m01;
shapes = (
{
closed = 1;
nodes = (
(66,63,o),
(74,63,qs),
(75,63,ls),
(83,64,o),
(97,79,o),
(95,87,qs),
(92,103,o),
(73,103,qs),
(63,102,o),
(55,91,o),
(54,84,qs),
(53,77,o)
);
},
{
closed = 1;
nodes = (
(76,155,o),
(86,153,q),
(92,153,o),
(100,171,o),
(99,177,qs),
(98,184,o),
(90,195,o),
(80,195,qs),
(76,195,ls),
(64,193,o),
(58,180,o),
(59,174,qs),
(60,166,o)
);
}
);
userData = {
assembly = "PUSHW[ ]	/* 1 value pushed */
0
CALL[ ]	/* CallFunction */
SVTCA[0]	/* SetFreedomAndProjectionVectorToAxis */
PUSHW[ ]	/* 3 values pushed */
3 9 3
CALL[ ]	/* CallFunction */
PUSHW[ ]	/* 3 values pushed */
16 22 3
CALL[ ]	/* CallFunction */
SVTCA[1]	/* SetFreedomAndProjectionVectorToAxis */
PUSHW[ ]	/* 3 values pushed */
5 0 3
CALL[ ]	/* CallFunction */
NPUSHW[ ]	/* 27 values pushed */
6 5 22 5 38 5 54 5 70 5 86 5 102 5 118 5 134 5 150 5 166 5 182 5 198 5 13
DELTAP1[ ]	/* DeltaExceptionP1 */
NPUSHW[ ]	/* 5 values pushed */
213 5 229 5 2
DELTAP1[ ]	/* DeltaExceptionP1 */
PUSHW[ ]	/* 1 value pushed */
0
SRP0[ ]	/* SetRefPoint0 */
PUSHW[ ]	/* 1 value pushed */
12
MDRP[10000]	/* MoveDirectRelPt */
PUSHW[ ]	/* 1 value pushed */
12
MDAP[1]	/* MoveDirectAbsPt */
PUSHW[ ]	/* 1 value pushed */
5
SRP0[ ]	/* SetRefPoint0 */
PUSHW[ ]	/* 1 value pushed */
19
MDRP[10000]	/* MoveDirectRelPt */
PUSHW[ ]	/* 1 value pushed */
19
MDAP[1]	/* MoveDirectAbsPt */
IUP[0]	/* InterpolateUntPts */
IUP[1]	/* InterpolateUntPts */";
};
width = 145;
}
);
note = colon;
unicode = 58;
},
{
glyphname = semicolon;
layers = (
{
layerId = m01;
shapes = (
{
closed = 1;
nodes = (
(36,-35,o),
(21,-59,o),
(10,-82,o),
(10,-86,qs),
(10,-93,o),
(27,-104,o),
(32,-101,qs),
(33,-100,o),
(49,-75,o),
(68,-44,o),
(85,-16,o),
(87,-12,qs),
(92,-1,o),
(95,22,o),
(89,30,qs),
(86,35,o),
(73,40,o),
(68,40,qs),
(57,40,o),
(56,31,qs),
(54,20,o),
(58,4,o),
(50,-10,q),
(49,-13,o)
);
},
{
closed = 1;
nodes = (
(86,121,o),
(88,114,qs),
(89,109,o),
(94,91,o),
(105,89,qs),
(117,87,o),
(126,104,o),
(125,115,qs),
(124,126,o),
(118,142,o),
(104,142,qs),
(93,142,o)
);
}
);
userData = {
assembly = "PUSHW[ ]	/* 1 value pushed */
0
CALL[ ]	/* CallFunction */
SVTCA[0]	/* SetFreedomAndProjectionVectorToAxis */
PUSHW[ ]	/* 3 values pushed */
24 30 3
CALL[ ]	/* CallFunction */
SVTCA[1]	/* SetFreedomAndProjectionVectorToAxis */
PUSHW[ ]	/* 3 values pushed */
27 8 3
CALL[ ]	/* CallFunction */
NPUSHW[ ]	/* 5 values pushed */
218 8 234 8 2
DELTAP1[ ]	/* DeltaExceptionP1 */
NPUSHW[ ]	/* 27 values pushed */
9 8 25 8 41 8 57 8 73 8 89 8 105 8 121 8 137 8 153 8 169 8 185 8 201 8 13
DELTAP1[ ]	/* DeltaExceptionP1 */
PUSHW[ ]	/* 1 value pushed */
8
SRP0[ ]	/* SetRefPoint0 */
PUSHW[ ]	/* 1 value pushed */
33
MDRP[10000]	/* MoveDirectRelPt */
PUSHW[ ]	/* 1 value pushed */
33
MDAP[1]	/* MoveDirectAbsPt */
IUP[0]	/* InterpolateUntPts */
IUP[1]	/* InterpolateUntPts */";
};
width = 155;
}
);
note = semicolon;
unicode = 59;
},
{
glyphname = less;
layers = (
{
layerId = m01;
shapes = (
{
closed = 1;
nodes = (
(191,260,o),
(166,243,o),
(139,226,o),
(128,220,qs),
(118,214,o),
(92,200,o),
(69,187,o),
(52,173,o),
(50,167,qs),
(48,158,o),
(85,124,o),
(108,108,qs),
(116,102,o),
(144,86,o),
(174,71,o),
(204,60,o),
(214,60,qs),
(225,60,o),
(230,76,o),
(219,81,qs),
(212,84,o),
(178,106,o),
(141,131,o),
(109,155,o),
(104,161,qs),
(102,164,o),
(136,186,o),
(181,214,o),
(227,243,o),
(237,252,qs),
(242,256,o),
(240,267,o),
(232,275,o),
(220,278,o),
(215,275,qs),
(211,273,o)
);
}
);
userData = {
assembly = "PUSHW[ ]	/* 1 value pushed */
0
CALL[ ]	/* CallFunction */
SVTCA[0]	/* SetFreedomAndProjectionVectorToAxis */
PUSHW[ ]	/* 1 value pushed */
18
MDAP[1]	/* MoveDirectAbsPt */
IUP[0]	/* InterpolateUntPts */
IUP[1]	/* InterpolateUntPts */";
};
width = 291;
}
);
note = less;
unicode = 60;
},
{
glyphname = equal;
layers = (
{
layerId = m01;
shapes = (
{
closed = 1;
nodes = (
(47,125,o),
(58,118,qs),
(67,111,o),
(88,106,o),
(99,106,qs),
(108,106,o),
(133,113,o),
(160,120,o),
(185,127,o),
(194,127,qs),
(200,127,o),
(204,135,o),
(201,143,o),
(192,150,o),
(184,150,qs),
(177,150,o),
(154,146,o),
(129,141,o),
(104,138,o),
(95,139,qs),
(86,140,o),
(71,147,o),
(61,145,qs),
(53,144,o)
);
},
{
closed = 1;
nodes = (
(190,197,o),
(210,201,qs),
(218,202,o),
(224,211,o),
(223,222,o),
(215,230,o),
(207,230,qs),
(191,230,o),
(148,216,o),
(134,213,qs),
(112,210,o),
(78,214,o),
(69,212,qs),
(61,210,o),
(61,191,o),
(67,187,qs),
(76,181,o),
(104,178,o),
(119,179,qs),
(137,181,o)
);
}
);
userData = {
assembly = "PUSHW[ ]	/* 1 value pushed */
0
CALL[ ]	/* CallFunction */
SVTCA[0]	/* SetFreedomAndProjectionVectorToAxis */
PUSHW[ ]	/* 1 value pushed */
18
MDAP[1]	/* MoveDirectAbsPt */
PUSHW[ ]	/* 1 value pushed */
0
RCVT[ ]	/* ReadCVT */
IF[ ]	/* If */
PUSHW[ ]	/* 1 value pushed */
24
MDAP[1]	/* MoveDirectAbsPt */
ELSE[ ]	/* Else */
PUSHW[ ]	/* 2 values pushed */
24 9
MIAP[0]	/* MoveIndirectAbsPt */
EIF[ ]	/* EndIf */
PUSHW[ ]	/* 3 values pushed */
8 13 3
CALL[ ]	/* CallFunction */
PUSHW[ ]	/* 3 values pushed */
36 41 3
CALL[ ]	/* CallFunction */
PUSHW[ ]	/* 1 value pushed */
8
SRP0[ ]	/* SetRefPoint0 */
PUSHW[ ]	/* 1 value pushed */
0
MDRP[10000]	/* MoveDirectRelPt */
PUSHW[ ]	/* 1 value pushed */
0
MDAP[1]	/* MoveDirectAbsPt */
IUP[0]	/* InterpolateUntPts */
IUP[1]	/* InterpolateUntPts */";
};
width = 274;
}
);
note = equal;
unicode = 61;
},
{
glyphname = greater;
layers = (
{
layerId = m01;
shapes = (
{
closed = 1;
nodes = (
(142,201,o),
(164,191,o),
(178,183,o),
(176,180,q),
(169,173,o),
(143,149,o),
(109,120,o),
(71,90,o),
(53,76,qs),
(49,73,o),
(50,61,o),
(56,52,o),
(66,47,o),
(71,50,qs),
(85,59,o),
(121,88,o),
(142,106,qs),
(156,118,o),
(189,147,o),
(215,174,o),
(228,196,o),
(223,202,qs),
(219,207,o),
(199,215,o),
(173,224,o),
(144,234,o),
(131,240,qs),
(111,250,o),
(93,262,o),
(79,271,qs),
(74,275,o),
(68,275,qs),
(60,275,o),
(53,261,o),
(59,254,qs),
(69,243,o),
(91,224,o),
(107,216,qs),
(116,212,o)
);
}
);
userData = {
assembly = "PUSHW[ ]	/* 1 value pushed */
0
CALL[ ]	/* CallFunction */
SVTCA[0]	/* SetFreedomAndProjectionVectorToAxis */
PUSHW[ ]	/* 1 value pushed */
6
MDAP[1]	/* MoveDirectAbsPt */
PUSHW[ ]	/* 1 value pushed */
8
MDAP[1]	/* MoveDirectAbsPt */
IUP[0]	/* InterpolateUntPts */
IUP[1]	/* InterpolateUntPts */";
};
width = 276;
}
);
note = greater;
unicode = 62;
},
{
glyphname = question;
layers = (
{
layerId = m01;
shapes = (
{
closed = 1;
nodes = (
(224,44,o),
(214,46,qs),
(205,47,o),
(189,50,o),
(182,50,qs),
(172,50,o),
(167,46,qs),
(159,41,o),
(161,26,o),
(166,21,qs),
(169,18,o),
(181,15,o),
(187,15,qs),
(195,15,o),
(199,16,qs),
(214,21,o)
);
},
{
closed = 1;
nodes = (
(53,277,qs),
(63,277,o),
(63,288,qs),
(62,306,o),
(86,348,o),
(107,371,qs),
(116,382,o),
(147,400,o),
(181,413,o),
(216,421,o),
(230,421,qs),
(243,421,o),
(270,415,o),
(294,403,o),
(311,385,o),
(313,372,qs),
(315,358,o),
(302,321,o),
(279,283,o),
(252,249,o),
(240,237,qs),
(225,223,o),
(188,189,o),
(169,175,qs),
(149,161,o),
(123,148,o),
(114,141,qs),
(106,135,o),
(102,121,o),
(111,116,q),
(126,105,o),
(157,105,qs),
(171,105,o),
(205,109,o),
(241,116,o),
(275,125,o),
(288,129,qs),
(301,134,o),
(295,150,o),
(277,150,qs),
(267,150,o),
(235,146,o),
(202,141,o),
(176,137,o),
(172,137,qs),
(171,137,ls),
(168,138,o),
(189,155,o),
(223,185,o),
(264,223,o),
(282,245,qs),
(291,256,o),
(315,285,o),
(336,319,o),
(347,360,o),
(342,382,qs),
(338,401,o),
(314,428,o),
(281,444,o),
(245,452,o),
(228,452,qs),
(191,452,o),
(120,417,o),
(92,394,qs),
(64,371,o),
(36,311,o),
(41,289,qs),
(44,277,o)
);
}
);
userData = {
assembly = "PUSHW[ ]	/* 1 value pushed */
0
CALL[ ]	/* CallFunction */
SVTCA[0]	/* SetFreedomAndProjectionVectorToAxis */
PUSHW[ ]	/* 1 value pushed */
43
MDAP[1]	/* MoveDirectAbsPt */
PUSHW[ ]	/* 3 values pushed */
10 2 3
CALL[ ]	/* CallFunction */
PUSHW[ ]	/* 3 values pushed */
22 72 3
CALL[ ]	/* CallFunction */
PUSHW[ ]	/* 3 values pushed */
37 51 3
CALL[ ]	/* CallFunction */
PUSHW[ ]	/* 1 value pushed */
10
SRP0[ ]	/* SetRefPoint0 */
PUSHW[ ]	/* 1 value pushed */
13
MDRP[10000]	/* MoveDirectRelPt */
PUSHW[ ]	/* 1 value pushed */
13
MDAP[1]	/* MoveDirectAbsPt */
IUP[0]	/* InterpolateUntPts */
IUP[1]	/* InterpolateUntPts */";
};
width = 384;
}
);
note = question;
unicode = 63;
},
{
glyphname = at;
layers = (
{
layerId = m01;
shapes = (
{
closed = 1;
nodes = (
(265,65,o),
(263,61,qs),
(262,57,o),
(245,44,o),
(223,31,o),
(198,22,o),
(188,22,qs),
(177,23,o),
(163,43,o),
(165,60,qs),
(167,75,o),
(185,103,o),
(213,126,o),
(245,139,o),
(260,139,qs),
(271,139,o),
(283,132,o),
(291,126,qs),
(293,124,o),
(295,124,q),
(283,109,o),
(278,101,qs),
(271,88,o)
);
},
{
closed = 1;
nodes = (
(361,134,qs),
(362,142,o),
(350,154,o),
(340,154,qs),
(331,154,o),
(315,144,o),
(309,138,q),
(301,148,o),
(270,166,o),
(252,166,qs),
(231,166,o),
(192,150,o),
(159,122,o),
(135,85,o),
(131,65,qs),
(125,37,o),
(163,-4,o),
(194,-4,qs),
(207,-4,o),
(232,6,o),
(243,12,qs),
(256,18,o),
(267,27,q),
(272,12,o),
(309,-3,o),
(323,-3,qs),
(342,-3,o),
(381,14,o),
(417,37,o),
(446,60,o),
(453,67,qs),
(480,92,o),
(503,154,o),
(500,182,qs),
(498,206,o),
(467,247,o),
(450,260,qs),
(431,274,o),
(386,290,o),
(346,290,qs),
(285,290,o),
(175,238,o),
(130,198,qs),
(115,185,o),
(80,146,o),
(50,101,o),
(30,50,o),
(30,23,qs),
(30,-9,o),
(61,-59,o),
(112,-93,o),
(178,-111,o),
(211,-111,qs),
(228,-111,o),
(272,-106,o),
(318,-97,o),
(361,-85,o),
(376,-77,qs),
(386,-72,o),
(380,-61,o),
(362,-64,qs),
(355,-65,o),
(328,-72,o),
(295,-80,o),
(258,-86,o),
(240,-87,qs),
(212,-88,o),
(158,-80,o),
(113,-62,o),
(80,-34,o),
(73,-15,qs),
(64,9,o),
(69,59,o),
(89,106,o),
(121,150,o),
(140,168,qs),
(160,187,o),
(205,222,o),
(255,249,o),
(309,266,o),
(337,266,qs),
(395,266,o),
(432,241,qs),
(473,214,o),
(472,173,qs),
(471,154,o),
(450,105,o),
(423,82,qs),
(391,56,o),
(344,24,o),
(325,24,qs),
(309,25,o),
(293,41,o),
(295,46,qs),
(296,51,o),
(326,79,o),
(337,91,qs),
(358,118,o)
);
}
);
userData = {
assembly = "PUSHW[ ]	/* 1 value pushed */
0
CALL[ ]	/* CallFunction */
SVTCA[0]	/* SetFreedomAndProjectionVectorToAxis */
PUSHW[ ]	/* 1 value pushed */
67
MDAP[1]	/* MoveDirectAbsPt */
PUSHW[ ]	/* 1 value pushed */
116
MDAP[1]	/* MoveDirectAbsPt */
PUSHW[ ]	/* 1 value pushed */
0
RCVT[ ]	/* ReadCVT */
IF[ ]	/* If */
PUSHW[ ]	/* 1 value pushed */
94
MDAP[1]	/* MoveDirectAbsPt */
ELSE[ ]	/* Else */
PUSHW[ ]	/* 2 values pushed */
94 5
MIAP[0]	/* MoveIndirectAbsPt */
EIF[ ]	/* EndIf */
PUSHW[ ]	/* 1 value pushed */
0
RCVT[ ]	/* ReadCVT */
IF[ ]	/* If */
PUSHW[ ]	/* 1 value pushed */
102
MDAP[1]	/* MoveDirectAbsPt */
ELSE[ ]	/* Else */
PUSHW[ ]	/* 2 values pushed */
102 5
MIAP[0]	/* MoveIndirectAbsPt */
EIF[ ]	/* EndIf */
PUSHW[ ]	/* 3 values pushed */
80 39 3
CALL[ ]	/* CallFunction */
PUSHW[ ]	/* 3 values pushed */
110 7 3
CALL[ ]	/* CallFunction */
PUSHW[ ]	/* 1 value pushed */
102
SRP0[ ]	/* SetRefPoint0 */
PUSHW[ ]	/* 1 value pushed */
15
MDRP[11100]	/* MoveDirectRelPt */
NPUSHW[ ]	/* 27 values pushed */
7 15 23 15 39 15 55 15 71 15 87 15 103 15 119 15 135 15 151 15 167 15 183 15 199 15 13
DELTAP1[ ]	/* DeltaExceptionP1 */
NPUSHW[ ]	/* 5 values pushed */
214 15 230 15 2
DELTAP1[ ]	/* DeltaExceptionP1 */
PUSHW[ ]	/* 1 value pushed */
29
MDRP[10000]	/* MoveDirectRelPt */
PUSHW[ ]	/* 1 value pushed */
29
MDAP[1]	/* MoveDirectAbsPt */
PUSHW[ ]	/* 3 values pushed */
97 67 116
SRP1[ ]	/* SetRefPoint1 */
SRP2[ ]	/* SetRefPoint2 */
IP[ ]	/* InterpolatePts */
IUP[0]	/* InterpolateUntPts */
IUP[1]	/* InterpolateUntPts */";
};
width = 526;
}
);
note = at;
unicode = 64;
},
{
glyphname = A;
lastChange = "2025-12-25 15:08:58 +0000";
layers = (
{
layerId = m01;
shapes = (
{
closed = 1;
nodes = (
(62,-10,qs),
(65,-2,o),
(63,18,o),
(66,42,qs),
(68,58,o),
(81,102,o),
(98,149,o),
(118,194,o),
(127,211,qs),
(149,250,o),
(202,319,o),
(258,370,o),
(316,399,o),
(343,399,qs),
(346,399,ls),
(366,399,o),
(407,378,o),
(440,342,o),
(460,291,o),
(459,258,qs),
(458,231,o),
(454,188,o),
(446,150,o),
(433,112,o),
(424,88,qs),
(418,74,o),
(407,47,o),
(396,35,qs),
(389,27,o),
(399,14,o),
(407,14,qs),
(415,14,o),
(430,32,o),
(444,57,o),
(454,81,o),
(456,87,qs),
(465,111,o),
(490,192,o),
(492,248,qs),
(494,278,o),
(479,340,o),
(462,365,qs),
(455,376,o),
(430,399,o),
(398,419,o),
(363,431,o),
(345,431,qs),
(308,431,o),
(242,396,o),
(184,344,o),
(135,281,o),
(117,253,qs),
(98,222,o),
(67,156,o),
(45,94,o),
(33,44,o),
(31,29,qs),
(29,12,o),
(31,-22,o),
(47,-24,qs),
(57,-24,o)
);
},
{
closed = 1;
nodes = (
(404,163,o),
(401,168,o),
(388,169,o),
(380,168,qs),
(369,167,o),
(341,166,o),
(325,166,qs),
(296,166,o),
(239,171,o),
(210,175,qs),
(201,177,o),
(194,167,o),
(193,159,qs),
(193,154,o),
(201,144,o),
(217,141,qs),
(240,136,o),
(272,136,qs),
(298,136,o),
(354,143,o),
(378,151,qs),
(394,156,o)
);
}
);
userData = {
assembly = "PUSHW[ ]	/* 1 value pushed */
0
CALL[ ]	/* CallFunction */
SVTCA[0]	/* SetFreedomAndProjectionVectorToAxis */
PUSHW[ ]	/* 1 value pushed */
13
MDAP[1]	/* MoveDirectAbsPt */
PUSHW[ ]	/* 1 value pushed */
29
MDAP[1]	/* MoveDirectAbsPt */
PUSHW[ ]	/* 3 values pushed */
75 64 3
CALL[ ]	/* CallFunction */
PUSHW[ ]	/* 1 value pushed */
13
SRP0[ ]	/* SetRefPoint0 */
PUSHW[ ]	/* 1 value pushed */
45
MDRP[11100]	/* MoveDirectRelPt */
PUSHW[ ]	/* 1 value pushed */
75
SRP0[ ]	/* SetRefPoint0 */
PUSHW[ ]	/* 1 value pushed */
78
MDRP[10000]	/* MoveDirectRelPt */
PUSHW[ ]	/* 1 value pushed */
78
MDAP[1]	/* MoveDirectAbsPt */
IUP[0]	/* InterpolateUntPts */
IUP[1]	/* InterpolateUntPts */";
};
width = 533;
}
);
note = A;
unicode = (65,192,193,194,195,197);
},
{
glyphname = B;
layers = (
{
layerId = m01;
shapes = (
{
closed = 1;
nodes = (
(237,396,o),
(188,369,o),
(160,340,o),
(158,331,qs),
(155,314,o),
(168,314,qs),
(175,314,o),
(180,322,qs),
(184,328,o),
(205,347,o),
(233,366,o),
(268,382,o),
(287,386,qs),
(300,389,o),
(339,393,o),
(359,393,qs),
(375,393,o),
(405,390,o),
(429,381,o),
(443,367,o),
(443,356,qs),
(443,340,o),
(415,305,o),
(375,274,o),
(333,249,o),
(319,243,qs),
(296,233,o),
(255,223,o),
(233,225,q),
(248,251,o),
(276,300,o),
(279,307,qs),
(284,316,o),
(274,331,o),
(266,331,qs),
(259,331,o),
(253,322,qs),
(248,314,o),
(235,286,o),
(225,269,qs),
(217,256,o),
(199,225,o),
(190,209,qs),
(184,198,o),
(170,168,o),
(158,137,o),
(150,110,o),
(150,102,qs),
(150,94,o),
(155,89,qs),
(158,86,o),
(172,87,o),
(174,94,qs),
(182,118,o),
(196,151,o),
(202,165,qs),
(205,173,o),
(218,198,q),
(241,197,o),
(305,185,o),
(333,164,qs),
(353,149,o),
(363,120,o),
(356,95,o),
(335,74,o),
(323,67,qs),
(285,46,o),
(204,21,o),
(160,21,qs),
(138,21,o),
(98,30,o),
(66,43,o),
(45,57,o),
(41,63,qs),
(34,74,o),
(35,93,o),
(25,96,qs),
(17,98,o),
(10,85,o),
(10,77,qs),
(10,68,o),
(28,39,o),
(43,28,qs),
(60,16,o),
(116,-7,o),
(175,-7,qs),
(207,-7,o),
(284,14,o),
(352,50,o),
(397,97,o),
(396,123,qs),
(395,142,o),
(371,172,o),
(339,194,o),
(309,208,o),
(303,209,q),
(322,216,o),
(380,247,o),
(435,287,o),
(474,334,o),
(474,356,qs),
(473,384,o),
(413,421,o),
(349,419,qs),
(306,418,o)
);
}
);
userData = {
assembly = "PUSHW[ ]	/* 1 value pushed */
0
CALL[ ]	/* CallFunction */
SVTCA[0]	/* SetFreedomAndProjectionVectorToAxis */
PUSHW[ ]	/* 1 value pushed */
69
MDAP[1]	/* MoveDirectAbsPt */
PUSHW[ ]	/* 1 value pushed */
100
MDAP[1]	/* MoveDirectAbsPt */
PUSHW[ ]	/* 1 value pushed */
0
RCVT[ ]	/* ReadCVT */
IF[ ]	/* If */
PUSHW[ ]	/* 1 value pushed */
18
MDAP[1]	/* MoveDirectAbsPt */
ELSE[ ]	/* Else */
PUSHW[ ]	/* 2 values pushed */
18 5
MIAP[0]	/* MoveIndirectAbsPt */
EIF[ ]	/* EndIf */
PUSHW[ ]	/* 3 values pushed */
0 88 3
CALL[ ]	/* CallFunction */
PUSHW[ ]	/* 3 values pushed */
96 98 3
CALL[ ]	/* CallFunction */
PUSHW[ ]	/* 3 values pushed */
75 46 3
CALL[ ]	/* CallFunction */
PUSHW[ ]	/* 3 values pushed */
8 46 75
SRP1[ ]	/* SetRefPoint1 */
SRP2[ ]	/* SetRefPoint2 */
IP[ ]	/* InterpolatePts */
PUSHW[ ]	/* 1 value pushed */
18
SRP0[ ]	/* SetRefPoint0 */
PUSHW[ ]	/* 1 value pushed */
35
MDRP[11100]	/* MoveDirectRelPt */
NPUSHW[ ]	/* 27 values pushed */
7 35 23 35 39 35 55 35 71 35 87 35 103 35 119 35 135 35 151 35 167 35 183 35 199 35 13
DELTAP1[ ]	/* DeltaExceptionP1 */
NPUSHW[ ]	/* 5 values pushed */
214 35 230 35 2
DELTAP1[ ]	/* DeltaExceptionP1 */
SVTCA[1]	/* SetFreedomAndProjectionVectorToAxis */
PUSHW[ ]	/* 3 values pushed */
51 56 3
CALL[ ]	/* CallFunction */
PUSHW[ ]	/* 3 values pushed */
3 83 3
CALL[ ]	/* CallFunction */
PUSHW[ ]	/* 3 values pushed */
8 56 3
SRP1[ ]	/* SetRefPoint1 */
SRP2[ ]	/* SetRefPoint2 */
IP[ ]	/* InterpolatePts */
NPUSHW[ ]	/* 27 values pushed */
6 51 22 51 38 51 54 51 70 51 86 51 102 51 118 51 134 51 150 51 166 51 182 51 198 51 13
DELTAP1[ ]	/* DeltaExceptionP1 */
NPUSHW[ ]	/* 5 values pushed */
213 51 229 51 2
DELTAP1[ ]	/* DeltaExceptionP1 */
PUSHW[ ]	/* 3 values pushed */
75 56 3
SRP1[ ]	/* SetRefPoint1 */
SRP2[ ]	/* SetRefPoint2 */
IP[ ]	/* InterpolatePts */
NPUSHW[ ]	/* 5 values pushed */
218 83 234 83 2
DELTAP1[ ]	/* DeltaExceptionP1 */
NPUSHW[ ]	/* 27 values pushed */
9 83 25 83 41 83 57 83 73 83 89 83 105 83 121 83 137 83 153 83 169 83 185 83 201 83 13
DELTAP1[ ]	/* DeltaExceptionP1 */
IUP[0]	/* InterpolateUntPts */
IUP[1]	/* InterpolateUntPts */";
};
width = 494;
}
);
note = B;
unicode = 66;
},
{
glyphname = C;
layers = (
{
layerId = m01;
shapes = (
{
closed = 1;
nodes = (
(376,49,o),
(351,43,qs),
(347,42,o),
(316,34,o),
(273,26,o),
(223,19,o),
(200,19,qs),
(191,19,o),
(165,21,o),
(138,24,o),
(114,31,o),
(107,35,qs),
(93,43,o),
(69,69,o),
(60,106,o),
(72,155,o),
(94,185,qs),
(137,245,o),
(264,348,o),
(342,378,qs),
(379,392,o),
(429,404,o),
(446,404,qs),
(464,404,o),
(499,391,o),
(510,377,qs),
(515,371,o),
(524,382,o),
(522,390,qs),
(518,401,o),
(499,415,o),
(476,423,o),
(451,427,o),
(441,427,qs),
(420,427,o),
(361,414,o),
(296,388,o),
(230,353,o),
(201,330,qs),
(176,311,o),
(116,260,o),
(63,200,o),
(27,132,o),
(25,97,qs),
(24,64,o),
(58,23,o),
(109,-1,o),
(170,-9,o),
(195,-9,qs),
(222,-9,o),
(285,2,o),
(349,18,o),
(411,38,o),
(437,48,qs),
(453,54,o),
(457,64,o),
(446,64,qs),
(439,64,o),
(425,61,qs),
(415,59,o)
);
}
);
userData = {
assembly = "PUSHW[ ]	/* 1 value pushed */
0
CALL[ ]	/* CallFunction */
SVTCA[0]	/* SetFreedomAndProjectionVectorToAxis */
PUSHW[ ]	/* 1 value pushed */
0
MDAP[1]	/* MoveDirectAbsPt */
PUSHW[ ]	/* 1 value pushed */
2
MDAP[1]	/* MoveDirectAbsPt */
PUSHW[ ]	/* 1 value pushed */
0
RCVT[ ]	/* ReadCVT */
IF[ ]	/* If */
PUSHW[ ]	/* 1 value pushed */
10
MDAP[1]	/* MoveDirectAbsPt */
ELSE[ ]	/* Else */
PUSHW[ ]	/* 2 values pushed */
10 5
MIAP[0]	/* MoveIndirectAbsPt */
EIF[ ]	/* EndIf */
PUSHW[ ]	/* 3 values pushed */
25 36 3
CALL[ ]	/* CallFunction */
PUSHW[ ]	/* 1 value pushed */
10
SRP0[ ]	/* SetRefPoint0 */
PUSHW[ ]	/* 1 value pushed */
52
MDRP[11100]	/* MoveDirectRelPt */
NPUSHW[ ]	/* 27 values pushed */
7 52 23 52 39 52 55 52 71 52 87 52 103 52 119 52 135 52 151 52 167 52 183 52 199 52 13
DELTAP1[ ]	/* DeltaExceptionP1 */
NPUSHW[ ]	/* 5 values pushed */
214 52 230 52 2
DELTAP1[ ]	/* DeltaExceptionP1 */
IUP[0]	/* InterpolateUntPts */
IUP[1]	/* InterpolateUntPts */";
};
width = 538;
}
);
note = C;
unicode = 67;
},
{
glyphname = D;
layers = (
{
layerId = m01;
shapes = (
{
closed = 1;
nodes = (
(223,288,o),
(214,252,o),
(206,220,o),
(205,217,qs),
(202,204,o),
(194,169,o),
(190,134,o),
(190,104,o),
(195,96,qs),
(201,86,o),
(207,86,qs),
(215,86,o),
(219,99,qs),
(220,104,o),
(222,145,o),
(225,168,qs),
(227,186,o),
(234,216,o),
(236,224,qs),
(242,253,o),
(261,298,o),
(263,309,qs),
(264,316,o),
(251,323,o),
(243,323,qs),
(234,323,o),
(231,318,q),
(231,317,o)
);
},
{
closed = 1;
nodes = (
(99,273,qs),
(106,273,o),
(115,287,qs),
(123,299,o),
(144,339,o),
(169,356,qs),
(192,373,o),
(244,399,o),
(287,399,qs),
(322,399,o),
(372,377,o),
(407,346,o),
(429,313,o),
(434,304,qs),
(443,286,o),
(459,218,o),
(446,174,qs),
(434,134,o),
(383,74,o),
(315,36,o),
(236,17,o),
(197,17,qs),
(179,17,o),
(133,23,o),
(85,33,o),
(41,47,o),
(26,55,qs),
(20,58,o),
(16,58,qs),
(9,58,o),
(11,45,o),
(21,38,qs),
(30,33,o),
(71,17,o),
(125,1,o),
(186,-11,o),
(213,-11,qs),
(313,-11,o),
(385,43,qs),
(440,84,o),
(482,168,o),
(483,223,qs),
(483,245,o),
(471,290,o),
(450,332,o),
(423,367,o),
(408,380,qs),
(377,406,o),
(310,426,o),
(284,426,qs),
(262,426,o),
(213,412,o),
(167,388,o),
(127,356,o),
(114,338,qs),
(110,332,o),
(101,316,o),
(95,298,o),
(92,283,o),
(93,279,qs),
(95,273,o)
);
}
);
userData = {
assembly = "PUSHW[ ]	/* 1 value pushed */
0
CALL[ ]	/* CallFunction */
SVTCA[0]	/* SetFreedomAndProjectionVectorToAxis */
PUSHW[ ]	/* 1 value pushed */
59
MDAP[1]	/* MoveDirectAbsPt */
PUSHW[ ]	/* 1 value pushed */
61
MDAP[1]	/* MoveDirectAbsPt */
PUSHW[ ]	/* 1 value pushed */
0
RCVT[ ]	/* ReadCVT */
IF[ ]	/* If */
PUSHW[ ]	/* 1 value pushed */
51
MDAP[1]	/* MoveDirectAbsPt */
ELSE[ ]	/* Else */
PUSHW[ ]	/* 2 values pushed */
51 5
MIAP[0]	/* MoveIndirectAbsPt */
EIF[ ]	/* EndIf */
PUSHW[ ]	/* 3 values pushed */
38 79 3
CALL[ ]	/* CallFunction */
PUSHW[ ]	/* 1 value pushed */
51
SRP0[ ]	/* SetRefPoint0 */
PUSHW[ ]	/* 1 value pushed */
66
MDRP[11100]	/* MoveDirectRelPt */
NPUSHW[ ]	/* 27 values pushed */
7 66 23 66 39 66 55 66 71 66 87 66 103 66 119 66 135 66 151 66 167 66 183 66 199 66 13
DELTAP1[ ]	/* DeltaExceptionP1 */
NPUSHW[ ]	/* 5 values pushed */
214 66 230 66 2
DELTAP1[ ]	/* DeltaExceptionP1 */
IUP[0]	/* InterpolateUntPts */
IUP[1]	/* InterpolateUntPts */";
};
width = 513;
}
);
note = D;
unicode = 68;
},
{
glyphname = E;
layers = (
{
layerId = m01;
shapes = (
{
closed = 1;
nodes = (
(450,399,o),
(409,393,o),
(365,388,o),
(346,386,qs),
(327,385,o),
(283,382,o),
(242,377,o),
(211,372,o),
(205,367,qs),
(193,359,o),
(193,345,o),
(200,340,q),
(198,338,o),
(192,332,o),
(190,329,qs),
(184,322,o),
(157,288,o),
(125,247,o),
(94,206,o),
(85,191,qs),
(76,177,o),
(51,143,o),
(30,106,o),
(18,67,o),
(21,47,qs),
(28,11,o),
(79,-25,o),
(115,-23,qs),
(141,-22,o),
(211,-8,o),
(284,11,o),
(352,35,o),
(376,45,qs),
(393,51,o),
(388,68,o),
(369,66,qs),
(360,65,o),
(331,57,o),
(299,47,o),
(267,36,o),
(253,33,qs),
(239,29,o),
(202,21,o),
(164,14,o),
(132,10,o),
(123,10,qs),
(104,11,o),
(71,19,o),
(60,36,qs),
(52,49,o),
(57,86,o),
(65,107,qs),
(67,114,o),
(90,151,o),
(107,175,q),
(115,168,o),
(135,171,qs),
(197,180,o),
(311,212,o),
(370,233,qs),
(386,239,o),
(379,258,o),
(371,258,qs),
(366,258,o),
(357,254,o),
(347,251,qs),
(328,245,o),
(282,232,o),
(234,222,o),
(187,213,o),
(168,210,qs),
(160,209,o),
(139,209,o),
(130,207,q),
(132,210,o),
(135,215,o),
(137,218,qs),
(152,238,o),
(182,276,o),
(208,306,o),
(225,327,o),
(228,330,qs),
(232,334,o),
(233,336,q),
(239,338,o),
(253,343,o),
(264,345,qs),
(281,348,o),
(304,351,o),
(319,353,qs),
(327,355,o),
(361,361,o),
(372,363,qs),
(423,372,o),
(491,381,o),
(505,387,qs),
(519,393,o),
(506,408,o),
(492,405,qs),
(484,404,o)
);
}
);
userData = {
assembly = "PUSHW[ ]	/* 1 value pushed */
0
CALL[ ]	/* CallFunction */
SVTCA[0]	/* SetFreedomAndProjectionVectorToAxis */
PUSHW[ ]	/* 1 value pushed */
63
MDAP[1]	/* MoveDirectAbsPt */
PUSHW[ ]	/* 1 value pushed */
33
MDAP[1]	/* MoveDirectAbsPt */
PUSHW[ ]	/* 1 value pushed */
36
MDAP[1]	/* MoveDirectAbsPt */
PUSHW[ ]	/* 3 values pushed */
53 71 3
CALL[ ]	/* CallFunction */
PUSHW[ ]	/* 3 values pushed */
28 42 3
CALL[ ]	/* CallFunction */
PUSHW[ ]	/* 1 value pushed */
28
SRP0[ ]	/* SetRefPoint0 */
PUSHW[ ]	/* 1 value pushed */
25
MDRP[10000]	/* MoveDirectRelPt */
PUSHW[ ]	/* 1 value pushed */
25
MDAP[1]	/* MoveDirectAbsPt */
IUP[0]	/* InterpolateUntPts */
IUP[1]	/* InterpolateUntPts */";
};
width = 529;
}
);
note = E;
unicode = (69,200,201,202,203);
},
{
glyphname = F;
layers = (
{
layerId = m01;
shapes = (
{
closed = 1;
nodes = (
(373,426,o),
(341,412,qs),
(337,410,o),
(315,399,o),
(288,385,o),
(259,369,o),
(246,362,qs),
(236,356,o),
(215,345,o),
(204,339,q),
(202,345,o),
(190,353,o),
(185,353,qs),
(174,353,o),
(174,342,qs),
(174,322,l),
(162,316,o),
(118,289,o),
(73,259,o),
(36,232,o),
(30,224,qs),
(22,214,o),
(34,200,o),
(42,200,qs),
(48,200,o),
(52,204,qs),
(57,209,o),
(87,234,o),
(106,246,qs),
(123,258,o),
(161,280,o),
(172,287,q),
(173,287,o),
(174,288,o),
(175,288,q),
(175,274,o),
(173,244,o),
(170,227,qs),
(168,216,o),
(163,189,o),
(160,172,q),
(156,169,o),
(152,168,q),
(126,154,o),
(83,128,o),
(76,114,qs),
(71,106,o),
(80,93,o),
(88,93,qs),
(94,93,o),
(98,97,qs),
(106,104,o),
(134,120,o),
(151,129,q),
(150,123,o),
(148,111,o),
(146,105,qs),
(144,95,o),
(137,61,o),
(130,26,o),
(125,-3,o),
(125,-6,qs),
(127,-18,o),
(140,-18,qs),
(147,-18,o),
(158,-8,o),
(159,1,qs),
(160,14,o),
(167,50,o),
(175,86,o),
(184,119,o),
(186,128,qs),
(188,133,o),
(189,143,o),
(191,148,q),
(218,161,o),
(265,181,o),
(274,186,qs),
(292,194,o),
(326,206,o),
(336,211,qs),
(341,214,o),
(353,221,o),
(358,223,qs),
(369,228,o),
(365,246,o),
(347,240,qs),
(339,238,o),
(296,226,o),
(270,218,qs),
(260,215,o),
(220,199,o),
(198,189,q),
(200,203,o),
(204,231,o),
(206,244,qs),
(207,254,o),
(209,291,o),
(208,308,q),
(219,315,o),
(240,327,o),
(250,333,qs),
(261,339,o),
(280,348,o),
(291,354,qs),
(320,371,o),
(362,393,o),
(392,408,o),
(413,416,o),
(420,419,qs),
(427,422,o),
(440,431,o),
(445,440,o),
(441,447,o),
(432,446,qs),
(412,445,o)
);
}
);
userData = {
assembly = "PUSHW[ ]	/* 1 value pushed */
0
CALL[ ]	/* CallFunction */
SVTCA[0]	/* SetFreedomAndProjectionVectorToAxis */
PUSHW[ ]	/* 1 value pushed */
0
RCVT[ ]	/* ReadCVT */
IF[ ]	/* If */
PUSHW[ ]	/* 1 value pushed */
0
MDAP[1]	/* MoveDirectAbsPt */
ELSE[ ]	/* Else */
PUSHW[ ]	/* 2 values pushed */
0 11
MIAP[0]	/* MoveIndirectAbsPt */
EIF[ ]	/* EndIf */
PUSHW[ ]	/* 3 values pushed */
58 66 3
CALL[ ]	/* CallFunction */
PUSHW[ ]	/* 3 values pushed */
34 91 3
CALL[ ]	/* CallFunction */
SVTCA[1]	/* SetFreedomAndProjectionVectorToAxis */
PUSHW[ ]	/* 3 values pushed */
16 80 3
CALL[ ]	/* CallFunction */
PUSHW[ ]	/* 3 values pushed */
48 53 3
CALL[ ]	/* CallFunction */
NPUSHW[ ]	/* 27 values pushed */
6 16 22 16 38 16 54 16 70 16 86 16 102 16 118 16 134 16 150 16 166 16 182 16 198 16 13
DELTAP1[ ]	/* DeltaExceptionP1 */
NPUSHW[ ]	/* 5 values pushed */
213 16 229 16 2
DELTAP1[ ]	/* DeltaExceptionP1 */
PUSHW[ ]	/* 1 value pushed */
16
SRP0[ ]	/* SetRefPoint0 */
PUSHW[ ]	/* 1 value pushed */
19
MDRP[10000]	/* MoveDirectRelPt */
PUSHW[ ]	/* 1 value pushed */
19
MDAP[1]	/* MoveDirectAbsPt */
PUSHW[ ]	/* 3 values pushed */
22 80 16
SRP1[ ]	/* SetRefPoint1 */
SRP2[ ]	/* SetRefPoint2 */
IP[ ]	/* InterpolatePts */
NPUSHW[ ]	/* 27 values pushed */
6 48 22 48 38 48 54 48 70 48 86 48 102 48 118 48 134 48 150 48 166 48 182 48 198 48 13
DELTAP1[ ]	/* DeltaExceptionP1 */
NPUSHW[ ]	/* 5 values pushed */
213 48 229 48 2
DELTAP1[ ]	/* DeltaExceptionP1 */
PUSHW[ ]	/* 3 values pushed */
61 53 48
SRP1[ ]	/* SetRefPoint1 */
SRP2[ ]	/* SetRefPoint2 */
IP[ ]	/* InterpolatePts */
PUSHW[ ]	/* 1 value pushed */
48
SRP0[ ]	/* SetRefPoint0 */
PUSHW[ ]	/* 1 value pushed */
74
MDRP[10000]	/* MoveDirectRelPt */
PUSHW[ ]	/* 1 value pushed */
74
MDAP[1]	/* MoveDirectAbsPt */
PUSHW[ ]	/* 3 values pushed */
83 53 16
SRP1[ ]	/* SetRefPoint1 */
SRP2[ ]	/* SetRefPoint2 */
IP[ ]	/* InterpolatePts */
PUSHW[ ]	/* 1 value pushed */
80
SRP0[ ]	/* SetRefPoint0 */
PUSHW[ ]	/* 1 value pushed */
99
MDRP[10000]	/* MoveDirectRelPt */
PUSHW[ ]	/* 1 value pushed */
99
MDAP[1]	/* MoveDirectAbsPt */
IUP[0]	/* InterpolateUntPts */
IUP[1]	/* InterpolateUntPts */";
};
width = 399;
}
);
note = F;
unicode = 70;
},
{
glyphname = G;
layers = (
{
layerId = m01;
shapes = (
{
closed = 1;
nodes = (
(378,429,qs),
(361,429,o),
(325,424,o),
(307,419,qs),
(273,409,o),
(191,366,o),
(114,310,o),
(51,245,o),
(36,213,qs),
(27,194,o),
(19,157,o),
(21,128,qs),
(23,103,o),
(50,54,o),
(93,15,o),
(148,-10,o),
(179,-10,qs),
(197,-10,o),
(245,0,o),
(290,20,o),
(326,48,o),
(333,67,q),
(339,68,o),
(346,70,qs),
(353,72,o),
(371,74,o),
(382,75,qs),
(404,77,o),
(410,69,qs),
(413,66,o),
(411,54,o),
(405,40,o),
(399,27,o),
(397,23,qs),
(392,9,o),
(407,-9,o),
(416,-9,qs),
(426,-9,o),
(430,3,qs),
(435,17,o),
(438,35,qs),
(443,54,o),
(446,86,o),
(431,96,qs),
(421,103,o),
(396,108,o),
(382,108,qs),
(365,108,o),
(333,104,o),
(319,102,qs),
(307,100,o),
(289,109,o),
(273,110,qs),
(260,110,o),
(251,94,o),
(256,85,qs),
(261,77,o),
(287,69,o),
(291,66,qs),
(294,64,o),
(280,52,o),
(253,37,o),
(216,24,o),
(196,22,qs),
(167,19,o),
(97,48,o),
(75,82,qs),
(65,98,o),
(56,138,o),
(60,179,o),
(75,219,o),
(88,234,qs),
(112,262,o),
(181,321,o),
(260,370,o),
(344,402,o),
(382,402,qs),
(412,402,o),
(465,389,o),
(482,363,qs),
(490,350,o),
(499,352,qs),
(504,353,o),
(507,361,o),
(507,365,qs),
(506,376,o),
(476,410,o),
(448,418,qs),
(413,429,o)
);
}
);
userData = {
assembly = "PUSHW[ ]	/* 1 value pushed */
0
CALL[ ]	/* CallFunction */
SVTCA[0]	/* SetFreedomAndProjectionVectorToAxis */
PUSHW[ ]	/* 1 value pushed */
11
MDAP[1]	/* MoveDirectAbsPt */
PUSHW[ ]	/* 1 value pushed */
35
MDAP[1]	/* MoveDirectAbsPt */
PUSHW[ ]	/* 1 value pushed */
41
MDAP[1]	/* MoveDirectAbsPt */
PUSHW[ ]	/* 1 value pushed */
0
RCVT[ ]	/* ReadCVT */
IF[ ]	/* If */
PUSHW[ ]	/* 1 value pushed */
51
MDAP[1]	/* MoveDirectAbsPt */
ELSE[ ]	/* Else */
PUSHW[ ]	/* 2 values pushed */
51 5
MIAP[0]	/* MoveIndirectAbsPt */
EIF[ ]	/* EndIf */
PUSHW[ ]	/* 1 value pushed */
0
RCVT[ ]	/* ReadCVT */
IF[ ]	/* If */
PUSHW[ ]	/* 1 value pushed */
71
MDAP[1]	/* MoveDirectAbsPt */
ELSE[ ]	/* Else */
PUSHW[ ]	/* 2 values pushed */
71 5
MIAP[0]	/* MoveIndirectAbsPt */
EIF[ ]	/* EndIf */
PUSHW[ ]	/* 1 value pushed */
41
SRP0[ ]	/* SetRefPoint0 */
PUSHW[ ]	/* 1 value pushed */
38
MDRP[10000]	/* MoveDirectRelPt */
PUSHW[ ]	/* 1 value pushed */
38
MDAP[1]	/* MoveDirectAbsPt */
PUSHW[ ]	/* 1 value pushed */
41
SRP0[ ]	/* SetRefPoint0 */
PUSHW[ ]	/* 1 value pushed */
61
MDRP[11100]	/* MoveDirectRelPt */
PUSHW[ ]	/* 1 value pushed */
11
SRP0[ ]	/* SetRefPoint0 */
PUSHW[ ]	/* 1 value pushed */
87
MDRP[11100]	/* MoveDirectRelPt */
IUP[0]	/* InterpolateUntPts */
IUP[1]	/* InterpolateUntPts */";
};
width = 532;
}
);
note = G;
unicode = 71;
},
{
glyphname = H;
layers = (
{
layerId = m01;
shapes = (
{
closed = 1;
nodes = (
(411,358,o),
(398,335,qs),
(392,324,o),
(365,270,o),
(348,237,qs),
(343,227,o),
(335,209,o),
(330,200,q),
(312,201,o),
(257,198,o),
(223,198,qs),
(208,198,o),
(176,198,o),
(145,197,o),
(117,195,o),
(108,194,q),
(116,213,o),
(131,244,o),
(136,255,qs),
(148,282,o),
(168,319,o),
(184,344,o),
(194,358,o),
(194,363,qs),
(195,369,o),
(172,380,o),
(165,376,qs),
(162,374,o),
(145,346,o),
(124,305,o),
(103,259,o),
(94,239,qs),
(77,197,o),
(38,106,o),
(30,53,qs),
(28,42,o),
(39,20,o),
(50,15,qs),
(68,6,o),
(71,18,qs),
(72,25,o),
(65,37,o),
(63,42,qs),
(61,49,o),
(67,87,o),
(76,114,qs),
(80,125,o),
(87,146,o),
(92,157,q),
(100,156,o),
(131,158,o),
(168,161,o),
(206,164,o),
(219,164,qs),
(245,166,o),
(303,172,o),
(318,176,q),
(298,136,o),
(286,109,qs),
(272,72,o),
(260,26,o),
(262,14,qs),
(264,0,o),
(276,0,qs),
(282,0,o),
(285,6,qs),
(291,16,o),
(302,66,o),
(315,95,qs),
(320,107,o),
(336,142,o),
(352,176,o),
(368,207,o),
(372,215,qs),
(376,223,o),
(391,253,o),
(409,288,o),
(428,323,o),
(436,336,qs),
(451,361,o),
(472,394,o),
(474,399,qs),
(476,404,o),
(463,417,o),
(456,417,qs),
(450,417,o),
(447,413,qs),
(437,402,o)
);
}
);
userData = {
assembly = "PUSHW[ ]	/* 1 value pushed */
0
CALL[ ]	/* CallFunction */
SVTCA[0]	/* SetFreedomAndProjectionVectorToAxis */
PUSHW[ ]	/* 1 value pushed */
0
MDAP[1]	/* MoveDirectAbsPt */
PUSHW[ ]	/* 1 value pushed */
2
MDAP[1]	/* MoveDirectAbsPt */
PUSHW[ ]	/* 1 value pushed */
0
RCVT[ ]	/* ReadCVT */
IF[ ]	/* If */
PUSHW[ ]	/* 1 value pushed */
21
MDAP[1]	/* MoveDirectAbsPt */
ELSE[ ]	/* Else */
PUSHW[ ]	/* 2 values pushed */
21 5
MIAP[0]	/* MoveIndirectAbsPt */
EIF[ ]	/* EndIf */
PUSHW[ ]	/* 1 value pushed */
0
RCVT[ ]	/* ReadCVT */
IF[ ]	/* If */
PUSHW[ ]	/* 1 value pushed */
23
MDAP[1]	/* MoveDirectAbsPt */
ELSE[ ]	/* Else */
PUSHW[ ]	/* 2 values pushed */
23 5
MIAP[0]	/* MoveIndirectAbsPt */
EIF[ ]	/* EndIf */
PUSHW[ ]	/* 3 values pushed */
76 33 3
CALL[ ]	/* CallFunction */
PUSHW[ ]	/* 3 values pushed */
30 33 76
SRP1[ ]	/* SetRefPoint1 */
SRP2[ ]	/* SetRefPoint2 */
IP[ ]	/* InterpolatePts */
PUSHW[ ]	/* 1 value pushed */
33
SRP0[ ]	/* SetRefPoint0 */
PUSHW[ ]	/* 1 value pushed */
38
MDRP[10000]	/* MoveDirectRelPt */
PUSHW[ ]	/* 1 value pushed */
38
MDAP[1]	/* MoveDirectAbsPt */
PUSHW[ ]	/* 1 value pushed */
76
SRP0[ ]	/* SetRefPoint0 */
PUSHW[ ]	/* 1 value pushed */
71
MDRP[10000]	/* MoveDirectRelPt */
PUSHW[ ]	/* 1 value pushed */
71
MDAP[1]	/* MoveDirectAbsPt */
PUSHW[ ]	/* 1 value pushed */
76
SRP0[ ]	/* SetRefPoint0 */
PUSHW[ ]	/* 1 value pushed */
79
MDRP[10000]	/* MoveDirectRelPt */
PUSHW[ ]	/* 1 value pushed */
79
MDAP[1]	/* MoveDirectAbsPt */
SVTCA[1]	/* SetFreedomAndProjectionVectorToAxis */
PUSHW[ ]	/* 3 values pushed */
44 52 3
CALL[ ]	/* CallFunction */
NPUSHW[ ]	/* 27 values pushed */
6 44 22 44 38 44 54 44 70 44 86 44 102 44 118 44 134 44 150 44 166 44 182 44 198 44 13
DELTAP1[ ]	/* DeltaExceptionP1 */
NPUSHW[ ]	/* 5 values pushed */
213 44 229 44 2
DELTAP1[ ]	/* DeltaExceptionP1 */
IUP[0]	/* InterpolateUntPts */
IUP[1]	/* InterpolateUntPts */";
};
width = 489;
}
);
note = H;
unicode = 72;
},
{
glyphname = I;
layers = (
{
layerId = m01;
shapes = (
{
closed = 1;
nodes = (
(75,236,o),
(61,194,qs),
(55,176,o),
(42,128,o),
(31,79,o),
(25,36,o),
(25,24,qs),
(25,16,o),
(28,0,o),
(32,-3,qs),
(37,-8,o),
(51,-8,o),
(52,-3,qs),
(54,2,o),
(53,11,o),
(54,18,qs),
(62,79,o),
(97,199,o),
(117,257,qs),
(125,279,o),
(140,329,o),
(152,375,o),
(159,412,o),
(157,422,qs),
(156,427,o),
(147,430,o),
(141,430,qs),
(134,430,o),
(122,425,o),
(123,419,qs),
(125,409,o),
(121,375,o),
(114,352,qs),
(103,316,o)
);
}
);
userData = {
assembly = "PUSHW[ ]	/* 1 value pushed */
0
CALL[ ]	/* CallFunction */
SVTCA[0]	/* SetFreedomAndProjectionVectorToAxis */
PUSHW[ ]	/* 1 value pushed */
6
MDAP[1]	/* MoveDirectAbsPt */
IUP[0]	/* InterpolateUntPts */
IUP[1]	/* InterpolateUntPts */";
};
width = 157;
}
);
note = I;
unicode = (73,204,205,206,207);
},
{
glyphname = J;
layers = (
{
layerId = m01;
shapes = (
{
closed = 1;
nodes = (
(112,-183,o),
(99,-191,qs),
(95,-193,o),
(81,-188,o),
(67,-174,o),
(56,-154,o),
(56,-141,qs),
(56,-124,o),
(73,-99,o),
(90,-87,qs),
(106,-76,o),
(145,-50,o),
(177,-36,qs),
(187,-32,o),
(191,-30,q),
(165,-92,o),
(147,-127,qs),
(137,-144,o)
);
},
{
closed = 1;
nodes = (
(437,417,o),
(413,406,qs),
(392,397,o),
(343,378,o),
(325,370,qs),
(292,356,o),
(207,328,o),
(165,329,qs),
(153,329,o),
(139,334,o),
(130,340,o),
(124,344,o),
(120,344,qs),
(116,344,o),
(111,341,qs),
(104,337,o),
(109,317,o),
(118,310,qs),
(132,299,o),
(162,293,o),
(185,295,qs),
(212,297,o),
(281,318,o),
(312,329,qs),
(349,343,o),
(386,360,q),
(341,294,o),
(259,158,o),
(233,82,qs),
(227,64,o),
(215,30,o),
(209,15,q),
(198,10,o),
(180,4,o),
(173,0,qs),
(154,-9,o),
(101,-35,o),
(53,-69,o),
(20,-111,o),
(20,-135,qs),
(20,-149,o),
(34,-179,o),
(57,-204,o),
(85,-221,o),
(99,-221,qs),
(118,-221,o),
(160,-171,o),
(197,-102,o),
(228,-33,o),
(235,-13,q),
(246,-8,o),
(267,-1,o),
(279,4,qs),
(308,14,o),
(388,42,o),
(420,49,qs),
(441,54,o),
(435,68,o),
(413,65,qs),
(328,54,o),
(251,28,q),
(256,43,o),
(267,73,o),
(272,87,qs),
(284,122,o),
(320,198,o),
(363,272,o),
(413,340,o),
(438,367,qs),
(460,390,o),
(499,416,o),
(500,419,qs),
(503,426,o),
(481,437,o),
(473,437,q),
(466,435,o)
);
}
);
userData = {
assembly = "PUSHW[ ]	/* 1 value pushed */
0
CALL[ ]	/* CallFunction */
SVTCA[0]	/* SetFreedomAndProjectionVectorToAxis */
PUSHW[ ]	/* 1 value pushed */
48
MDAP[1]	/* MoveDirectAbsPt */
PUSHW[ ]	/* 1 value pushed */
18
MDAP[1]	/* MoveDirectAbsPt */
PUSHW[ ]	/* 1 value pushed */
78
MDAP[1]	/* MoveDirectAbsPt */
PUSHW[ ]	/* 1 value pushed */
80
MDAP[1]	/* MoveDirectAbsPt */
PUSHW[ ]	/* 1 value pushed */
69
MDAP[1]	/* MoveDirectAbsPt */
PUSHW[ ]	/* 1 value pushed */
85
MDAP[1]	/* MoveDirectAbsPt */
PUSHW[ ]	/* 3 values pushed */
32 48 18
SRP1[ ]	/* SetRefPoint1 */
SRP2[ ]	/* SetRefPoint2 */
IP[ ]	/* InterpolatePts */
PUSHW[ ]	/* 3 values pushed */
67 48 18
SRP1[ ]	/* SetRefPoint1 */
SRP2[ ]	/* SetRefPoint2 */
IP[ ]	/* InterpolatePts */
SVTCA[1]	/* SetFreedomAndProjectionVectorToAxis */
PUSHW[ ]	/* 3 values pushed */
10 53 3
CALL[ ]	/* CallFunction */
NPUSHW[ ]	/* 27 values pushed */
6 10 22 10 38 10 54 10 70 10 86 10 102 10 118 10 134 10 150 10 166 10 182 10 198 10 13
DELTAP1[ ]	/* DeltaExceptionP1 */
NPUSHW[ ]	/* 5 values pushed */
213 10 229 10 2
DELTAP1[ ]	/* DeltaExceptionP1 */
IUP[0]	/* InterpolateUntPts */
IUP[1]	/* InterpolateUntPts */";
};
width = 530;
}
);
note = J;
unicode = 74;
},
{
glyphname = K;
layers = (
{
layerId = m01;
shapes = (
{
closed = 1;
nodes = (
(507,378,o),
(475,355,qs),
(442,331,o),
(372,280,o),
(336,251,qs),
(318,236,o),
(256,180,o),
(226,151,qs),
(190,118,o),
(151,81,qs),
(136,66,o),
(123,55,qs),
(112,46,o),
(90,33,o),
(85,36,qs),
(80,39,o),
(76,60,o),
(76,92,o),
(81,132,o),
(84,153,qs),
(87,174,o),
(97,223,o),
(107,271,o),
(116,311,o),
(118,323,qs),
(123,347,o),
(128,389,o),
(126,403,qs),
(125,411,o),
(116,418,o),
(110,418,qs),
(102,418,o),
(88,404,o),
(88,390,qs),
(88,378,o),
(86,346,o),
(81,313,o),
(76,281,o),
(73,268,qs),
(70,253,o),
(60,202,o),
(51,148,o),
(43,102,o),
(42,94,qs),
(38,59,o),
(44,19,o),
(59,1,o),
(77,-3,o),
(85,-2,qs),
(98,-1,o),
(130,19,o),
(163,48,o),
(193,77,o),
(203,87,qs),
(210,93,o),
(229,110,o),
(240,120,q),
(244,108,o),
(249,98,qs),
(255,85,o),
(268,63,o),
(274,52,qs),
(287,33,o),
(314,5,o),
(326,-2,qs),
(336,-7,o),
(344,-5,o),
(345,3,o),
(340,14,o),
(337,17,qs),
(329,25,o),
(313,53,o),
(305,67,qs),
(294,87,o),
(281,122,o),
(264,135,q),
(262,136,o),
(260,138,q),
(284,161,o),
(335,207,o),
(353,222,qs),
(363,231,o),
(400,261,o),
(446,297,o),
(496,334,o),
(540,367,o),
(575,392,o),
(583,396,qs),
(586,398,o),
(591,407,o),
(589,414,o),
(578,415,o),
(565,409,qs),
(556,404,o)
);
}
);
userData = {
assembly = "PUSHW[ ]	/* 1 value pushed */
0
CALL[ ]	/* CallFunction */
SVTCA[0]	/* SetFreedomAndProjectionVectorToAxis */
PUSHW[ ]	/* 1 value pushed */
62
MDAP[1]	/* MoveDirectAbsPt */
PUSHW[ ]	/* 1 value pushed */
0
RCVT[ ]	/* ReadCVT */
IF[ ]	/* If */
PUSHW[ ]	/* 1 value pushed */
28
MDAP[1]	/* MoveDirectAbsPt */
ELSE[ ]	/* Else */
PUSHW[ ]	/* 2 values pushed */
28 5
MIAP[0]	/* MoveIndirectAbsPt */
EIF[ ]	/* EndIf */
PUSHW[ ]	/* 1 value pushed */
0
RCVT[ ]	/* ReadCVT */
IF[ ]	/* If */
PUSHW[ ]	/* 1 value pushed */
44
MDAP[1]	/* MoveDirectAbsPt */
ELSE[ ]	/* Else */
PUSHW[ ]	/* 2 values pushed */
44 5
MIAP[0]	/* MoveIndirectAbsPt */
EIF[ ]	/* EndIf */
PUSHW[ ]	/* 3 values pushed */
36 28 62
SRP1[ ]	/* SetRefPoint1 */
SRP2[ ]	/* SetRefPoint2 */
IP[ ]	/* InterpolatePts */
SVTCA[1]	/* SetFreedomAndProjectionVectorToAxis */
PUSHW[ ]	/* 3 values pushed */
65 59 3
CALL[ ]	/* CallFunction */
NPUSHW[ ]	/* 27 values pushed */
6 65 22 65 38 65 54 65 70 65 86 65 102 65 118 65 134 65 150 65 166 65 182 65 198 65 13
DELTAP1[ ]	/* DeltaExceptionP1 */
NPUSHW[ ]	/* 5 values pushed */
213 65 229 65 2
DELTAP1[ ]	/* DeltaExceptionP1 */
PUSHW[ ]	/* 1 value pushed */
59
SRP0[ ]	/* SetRefPoint0 */
PUSHW[ ]	/* 1 value pushed */
73
MDRP[10000]	/* MoveDirectRelPt */
PUSHW[ ]	/* 1 value pushed */
73
MDAP[1]	/* MoveDirectAbsPt */
IUP[0]	/* InterpolateUntPts */
IUP[1]	/* InterpolateUntPts */";
};
width = 521;
}
);
note = K;
unicode = 75;
},
{
glyphname = L;
layers = (
{
layerId = m01;
shapes = (
{
closed = 1;
nodes = (
(136,278,o),
(114,243,o),
(93,209,o),
(85,197,qs),
(79,187,o),
(59,153,o),
(41,115,o),
(29,78,o),
(30,64,qs),
(32,26,o),
(79,-8,o),
(112,-8,qs),
(145,-8,o),
(190,7,o),
(214,15,qs),
(227,20,o),
(266,35,o),
(308,50,o),
(347,64,o),
(359,68,qs),
(374,73,o),
(370,85,o),
(351,83,qs),
(340,82,o),
(309,74,o),
(275,65,o),
(241,55,o),
(228,51,qs),
(203,43,o),
(147,30,o),
(121,30,qs),
(98,30,o),
(71,41,o),
(69,67,qs),
(68,87,o),
(88,133,o),
(105,163,qs),
(116,182,o),
(151,245,o),
(191,310,o),
(234,366,o),
(252,378,qs),
(263,386,o),
(273,390,o),
(275,397,qs),
(277,405,o),
(267,417,o),
(258,417,qs),
(248,417,o),
(219,392,o),
(191,359,o),
(168,327,o),
(163,319,qs),
(156,309,o)
);
}
);
userData = {
assembly = "PUSHW[ ]	/* 1 value pushed */
0
CALL[ ]	/* CallFunction */
SVTCA[0]	/* SetFreedomAndProjectionVectorToAxis */
PUSHW[ ]	/* 1 value pushed */
5
MDAP[1]	/* MoveDirectAbsPt */
PUSHW[ ]	/* 1 value pushed */
30
MDAP[1]	/* MoveDirectAbsPt */
PUSHW[ ]	/* 1 value pushed */
0
RCVT[ ]	/* ReadCVT */
IF[ ]	/* If */
PUSHW[ ]	/* 1 value pushed */
41
MDAP[1]	/* MoveDirectAbsPt */
ELSE[ ]	/* Else */
PUSHW[ ]	/* 2 values pushed */
41 5
MIAP[0]	/* MoveIndirectAbsPt */
EIF[ ]	/* EndIf */
PUSHW[ ]	/* 1 value pushed */
22
MDRP[11100]	/* MoveDirectRelPt */
NPUSHW[ ]	/* 27 values pushed */
7 22 23 22 39 22 55 22 71 22 87 22 103 22 119 22 135 22 151 22 167 22 183 22 199 22 13
DELTAP1[ ]	/* DeltaExceptionP1 */
NPUSHW[ ]	/* 5 values pushed */
214 22 230 22 2
DELTAP1[ ]	/* DeltaExceptionP1 */
SVTCA[1]	/* SetFreedomAndProjectionVectorToAxis */
PUSHW[ ]	/* 3 values pushed */
19 44 3
CALL[ ]	/* CallFunction */
NPUSHW[ ]	/* 27 values pushed */
6 19 22 19 38 19 54 19 70 19 86 19 102 19 118 19 134 19 150 19 166 19 182 19 198 19 13
DELTAP1[ ]	/* DeltaExceptionP1 */
NPUSHW[ ]	/* 5 values pushed */
213 19 229 19 2
DELTAP1[ ]	/* DeltaExceptionP1 */
IUP[0]	/* InterpolateUntPts */
IUP[1]	/* InterpolateUntPts */";
};
width = 402;
}
);
note = L;
unicode = 76;
},
{
glyphname = M;
layers = (
{
layerId = m01;
shapes = (
{
closed = 1;
nodes = (
(83,-1,o),
(120,28,o),
(159,61,o),
(175,74,qs),
(191,86,o),
(246,135,o),
(304,187,o),
(357,236,o),
(370,248,q),
(362,237,o),
(331,192,o),
(301,143,o),
(277,98,o),
(276,86,qs),
(274,63,o),
(296,35,o),
(322,34,qs),
(337,33,o),
(390,65,o),
(446,105,o),
(493,144,o),
(501,150,q),
(498,144,o),
(486,122,o),
(475,95,o),
(466,67,o),
(466,56,qs),
(466,34,o),
(502,0,o),
(526,0,qs),
(543,0,o),
(573,12,o),
(584,26,qs),
(587,31,o),
(587,42,o),
(576,41,qs),
(565,40,o),
(548,31,o),
(534,31,qs),
(524,30,o),
(508,42,o),
(506,62,qs),
(505,71,o),
(514,98,o),
(529,130,o),
(548,163,o),
(557,178,qs),
(566,192,o),
(585,218,o),
(590,225,qs),
(597,233,o),
(628,265,o),
(644,285,qs),
(652,294,o),
(673,317,o),
(694,343,o),
(712,368,o),
(716,378,qs),
(720,386,o),
(709,395,o),
(701,395,qs),
(689,395,o),
(646,354,o),
(601,301,o),
(563,249,o),
(556,238,qs),
(548,228,o),
(512,194,o),
(465,156,o),
(414,116,o),
(367,84,o),
(332,64,o),
(324,64,qs),
(319,64,o),
(318,66,q),
(313,72,o),
(314,90,o),
(321,112,o),
(332,133,o),
(337,142,qs),
(342,150,o),
(365,186,o),
(394,230,o),
(424,274,o),
(436,289,qs),
(451,309,o),
(485,346,o),
(514,376,o),
(535,397,o),
(536,402,qs),
(538,408,o),
(527,419,o),
(519,419,qs),
(514,419,o),
(509,416,qs),
(505,414,o),
(488,399,o),
(467,379,o),
(443,355,o),
(431,343,qs),
(414,326,o),
(351,266,o),
(274,195,o),
(190,121,o),
(114,60,o),
(54,18,o),
(38,14,qs),
(30,12,o),
(17,21,o),
(11,19,qs),
(3,17,o),
(-2,2,o),
(5,-5,qs),
(13,-12,o),
(27,-21,o),
(42,-21,qs),
(51,-21,o)
);
}
);
userData = {
assembly = "PUSHW[ ]	/* 1 value pushed */
0
CALL[ ]	/* CallFunction */
SVTCA[0]	/* SetFreedomAndProjectionVectorToAxis */
PUSHW[ ]	/* 1 value pushed */
21
MDAP[1]	/* MoveDirectAbsPt */
PUSHW[ ]	/* 1 value pushed */
23
MDAP[1]	/* MoveDirectAbsPt */
PUSHW[ ]	/* 1 value pushed */
0
RCVT[ ]	/* ReadCVT */
IF[ ]	/* If */
PUSHW[ ]	/* 1 value pushed */
3
MDAP[1]	/* MoveDirectAbsPt */
ELSE[ ]	/* Else */
PUSHW[ ]	/* 2 values pushed */
3 5
MIAP[0]	/* MoveIndirectAbsPt */
EIF[ ]	/* EndIf */
PUSHW[ ]	/* 1 value pushed */
0
RCVT[ ]	/* ReadCVT */
IF[ ]	/* If */
PUSHW[ ]	/* 1 value pushed */
86
MDAP[1]	/* MoveDirectAbsPt */
ELSE[ ]	/* Else */
PUSHW[ ]	/* 2 values pushed */
86 5
MIAP[0]	/* MoveIndirectAbsPt */
EIF[ ]	/* EndIf */
PUSHW[ ]	/* 3 values pushed */
9 0 3
CALL[ ]	/* CallFunction */
PUSHW[ ]	/* 1 value pushed */
86
SRP0[ ]	/* SetRefPoint0 */
PUSHW[ ]	/* 1 value pushed */
77
MDRP[11100]	/* MoveDirectRelPt */
NPUSHW[ ]	/* 27 values pushed */
7 77 23 77 39 77 55 77 71 77 87 77 103 77 119 77 135 77 151 77 167 77 183 77 199 77 13
DELTAP1[ ]	/* DeltaExceptionP1 */
NPUSHW[ ]	/* 5 values pushed */
214 77 230 77 2
DELTAP1[ ]	/* DeltaExceptionP1 */
PUSHW[ ]	/* 1 value pushed */
99
MDRP[10000]	/* MoveDirectRelPt */
PUSHW[ ]	/* 1 value pushed */
99
MDAP[1]	/* MoveDirectAbsPt */
PUSHW[ ]	/* 1 value pushed */
43
MDRP[11100]	/* MoveDirectRelPt */
PUSHW[ ]	/* 1 value pushed */
99
SRP0[ ]	/* SetRefPoint0 */
PUSHW[ ]	/* 1 value pushed */
80
MDRP[10000]	/* MoveDirectRelPt */
PUSHW[ ]	/* 1 value pushed */
80
MDAP[1]	/* MoveDirectAbsPt */
PUSHW[ ]	/* 3 values pushed */
94 3 23
SRP1[ ]	/* SetRefPoint1 */
SRP2[ ]	/* SetRefPoint2 */
IP[ ]	/* InterpolatePts */
PUSHW[ ]	/* 3 values pushed */
107 3 23
SRP1[ ]	/* SetRefPoint1 */
SRP2[ ]	/* SetRefPoint2 */
IP[ ]	/* InterpolatePts */
SVTCA[1]	/* SetFreedomAndProjectionVectorToAxis */
PUSHW[ ]	/* 3 values pushed */
74 89 3
CALL[ ]	/* CallFunction */
NPUSHW[ ]	/* 5 values pushed */
218 89 234 89 2
DELTAP1[ ]	/* DeltaExceptionP1 */
NPUSHW[ ]	/* 27 values pushed */
9 89 25 89 41 89 57 89 73 89 89 89 105 89 121 89 137 89 153 89 169 89 185 89 201 89 13
DELTAP1[ ]	/* DeltaExceptionP1 */
PUSHW[ ]	/* 3 values pushed */
94 89 74
SRP1[ ]	/* SetRefPoint1 */
SRP2[ ]	/* SetRefPoint2 */
IP[ ]	/* InterpolatePts */
IUP[0]	/* InterpolateUntPts */
IUP[1]	/* InterpolateUntPts */";
};
width = 742;
}
);
note = M;
unicode = 77;
},
{
glyphname = N;
layers = (
{
layerId = m01;
shapes = (
{
closed = 1;
nodes = (
(69,46,o),
(80,77,qs),
(90,104,o),
(119,169,o),
(150,230,o),
(177,280,o),
(184,292,qs),
(191,302,o),
(210,334,o),
(230,363,o),
(247,384,o),
(251,384,q),
(253,382,o),
(249,357,o),
(242,323,o),
(234,284,o),
(231,268,qs),
(228,256,o),
(220,213,o),
(213,160,o),
(208,105,o),
(209,81,qs),
(212,18,o),
(232,7,qs),
(238,4,o),
(244,4,qs),
(266,4,o),
(275,33,qs),
(295,90,o),
(370,202,o),
(465,303,o),
(571,387,o),
(622,417,qs),
(658,437,o),
(653,447,qs),
(652,449,o),
(647,449,qs),
(642,449,o),
(624,443,o),
(616,440,qs),
(567,421,o),
(463,347,o),
(368,256,o),
(290,155,o),
(268,110,qs),
(259,91,o),
(248,65,o),
(244,65,q),
(244,65,o),
(243,66,qs),
(240,71,o),
(240,104,o),
(243,149,o),
(249,199,o),
(252,221,qs),
(255,240,o),
(264,288,o),
(273,333,o),
(280,367,o),
(281,371,qs),
(284,385,o),
(287,418,o),
(280,423,qs),
(275,427,o),
(263,427,qs),
(255,427,o),
(237,421,o),
(232,415,qs),
(227,410,o),
(207,380,o),
(184,344,o),
(161,306,o),
(153,293,qs),
(138,268,o),
(104,208,o),
(72,145,o),
(45,82,o),
(37,53,qs),
(32,36,o),
(28,6,o),
(33,-1,qs),
(38,-6,o),
(44,-6,qs),
(57,-6,o),
(62,4,qs),
(66,11,o)
);
}
);
userData = {
assembly = "PUSHW[ ]	/* 1 value pushed */
0
CALL[ ]	/* CallFunction */
SVTCA[0]	/* SetFreedomAndProjectionVectorToAxis */
PUSHW[ ]	/* 1 value pushed */
17
MDAP[1]	/* MoveDirectAbsPt */
PUSHW[ ]	/* 1 value pushed */
22
MDAP[1]	/* MoveDirectAbsPt */
PUSHW[ ]	/* 1 value pushed */
52
MDAP[1]	/* MoveDirectAbsPt */
PUSHW[ ]	/* 1 value pushed */
0
RCVT[ ]	/* ReadCVT */
IF[ ]	/* If */
PUSHW[ ]	/* 1 value pushed */
2
MDAP[1]	/* MoveDirectAbsPt */
ELSE[ ]	/* Else */
PUSHW[ ]	/* 2 values pushed */
2 5
MIAP[0]	/* MoveIndirectAbsPt */
EIF[ ]	/* EndIf */
PUSHW[ ]	/* 1 value pushed */
0
RCVT[ ]	/* ReadCVT */
IF[ ]	/* If */
PUSHW[ ]	/* 1 value pushed */
4
MDAP[1]	/* MoveDirectAbsPt */
ELSE[ ]	/* Else */
PUSHW[ ]	/* 2 values pushed */
4 5
MIAP[0]	/* MoveIndirectAbsPt */
EIF[ ]	/* EndIf */
PUSHW[ ]	/* 3 values pushed */
48 45 3
CALL[ ]	/* CallFunction */
PUSHW[ ]	/* 1 value pushed */
52
SRP0[ ]	/* SetRefPoint0 */
PUSHW[ ]	/* 1 value pushed */
20
MDRP[11100]	/* MoveDirectRelPt */
PUSHW[ ]	/* 1 value pushed */
2
SRP0[ ]	/* SetRefPoint0 */
PUSHW[ ]	/* 1 value pushed */
59
MDRP[11100]	/* MoveDirectRelPt */
NPUSHW[ ]	/* 27 values pushed */
7 59 23 59 39 59 55 59 71 59 87 59 103 59 119 59 135 59 151 59 167 59 183 59 199 59 13
DELTAP1[ ]	/* DeltaExceptionP1 */
NPUSHW[ ]	/* 5 values pushed */
214 59 230 59 2
DELTAP1[ ]	/* DeltaExceptionP1 */
PUSHW[ ]	/* 1 value pushed */
37
MDRP[11100]	/* MoveDirectRelPt */
PUSHW[ ]	/* 1 value pushed */
20
SRP0[ ]	/* SetRefPoint0 */
PUSHW[ ]	/* 1 value pushed */
73
MDRP[11100]	/* MoveDirectRelPt */
IUP[0]	/* InterpolateUntPts */
IUP[1]	/* InterpolateUntPts */";
};
width = 564;
}
);
note = N;
unicode = (78,209);
},
{
glyphname = O;
layers = (
{
layerId = m01;
shapes = (
{
closed = 1;
nodes = (
(527,362,o),
(474,396,o),
(412,414,o),
(383,414,qs),
(375,414,o),
(362,413,o),
(355,412,q),
(353,417,o),
(336,420,o),
(331,420,qs),
(302,420,o),
(211,389,o),
(163,351,qs),
(143,335,o),
(101,296,o),
(66,248,o),
(41,193,o),
(36,160,qs),
(29,102,o),
(67,53,qs),
(78,38,o),
(109,18,o),
(145,6,o),
(182,0,o),
(200,0,qs),
(251,0,o),
(350,51,o),
(413,90,qs),
(448,112,o),
(505,161,o),
(545,212,o),
(566,260,o),
(565,281,qs),
(563,313,o)
);
},
{
closed = 1;
nodes = (
(222,358,o),
(258,372,q),
(253,367,o),
(248,358,o),
(250,353,qs),
(252,350,o),
(257,350,qs),
(261,350,o),
(273,352,o),
(281,356,qs),
(313,370,o),
(372,384,o),
(407,384,qs),
(428,384,o),
(472,367,o),
(508,337,o),
(531,298,o),
(532,277,qs),
(533,251,o),
(498,200,o),
(449,155,o),
(396,118,o),
(378,106,qs),
(366,98,o),
(323,73,o),
(272,50,o),
(216,34,o),
(191,34,qs),
(187,34,ls),
(127,36,o),
(71,104,o),
(72,151,qs),
(73,178,o),
(102,251,o),
(137,286,qs),
(164,312,o)
);
}
);
userData = {
assembly = "PUSHW[ ]	/* 1 value pushed */
0
CALL[ ]	/* CallFunction */
SVTCA[0]	/* SetFreedomAndProjectionVectorToAxis */
PUSHW[ ]	/* 1 value pushed */
0
RCVT[ ]	/* ReadCVT */
IF[ ]	/* If */
PUSHW[ ]	/* 1 value pushed */
8
MDAP[1]	/* MoveDirectAbsPt */
ELSE[ ]	/* Else */
PUSHW[ ]	/* 2 values pushed */
8 5
MIAP[0]	/* MoveIndirectAbsPt */
EIF[ ]	/* EndIf */
PUSHW[ ]	/* 3 values pushed */
23 56 3
CALL[ ]	/* CallFunction */
PUSHW[ ]	/* 1 value pushed */
23
SRP0[ ]	/* SetRefPoint0 */
PUSHW[ ]	/* 1 value pushed */
29
MDRP[10000]	/* MoveDirectRelPt */
PUSHW[ ]	/* 1 value pushed */
29
MDAP[1]	/* MoveDirectAbsPt */
PUSHW[ ]	/* 1 value pushed */
26
MDRP[10000]	/* MoveDirectRelPt */
PUSHW[ ]	/* 1 value pushed */
26
MDAP[1]	/* MoveDirectAbsPt */
PUSHW[ ]	/* 1 value pushed */
8
SRP0[ ]	/* SetRefPoint0 */
PUSHW[ ]	/* 1 value pushed */
40
MDRP[11100]	/* MoveDirectRelPt */
NPUSHW[ ]	/* 27 values pushed */
7 40 23 40 39 40 55 40 71 40 87 40 103 40 119 40 135 40 151 40 167 40 183 40 199 40 13
DELTAP1[ ]	/* DeltaExceptionP1 */
NPUSHW[ ]	/* 5 values pushed */
214 40 230 40 2
DELTAP1[ ]	/* DeltaExceptionP1 */
SVTCA[1]	/* SetFreedomAndProjectionVectorToAxis */
PUSHW[ ]	/* 3 values pushed */
0 51 3
CALL[ ]	/* CallFunction */
NPUSHW[ ]	/* 5 values pushed */
218 51 234 51 2
DELTAP1[ ]	/* DeltaExceptionP1 */
NPUSHW[ ]	/* 27 values pushed */
9 51 25 51 41 51 57 51 73 51 89 51 105 51 121 51 137 51 153 51 169 51 185 51 201 51 13
DELTAP1[ ]	/* DeltaExceptionP1 */
IUP[0]	/* InterpolateUntPts */
IUP[1]	/* InterpolateUntPts */";
};
width = 600;
}
);
note = O;
unicode = (79,210,211,212,213);
},
{
glyphname = P;
layers = (
{
layerId = m01;
shapes = (
{
closed = 1;
nodes = (
(494,410,o),
(460,440,o),
(413,458,o),
(383,458,qs),
(319,458,o),
(211,396,o),
(166,353,qs),
(152,340,o),
(115,297,o),
(81,249,o),
(56,201,o),
(53,181,qs),
(52,176,o),
(63,170,o),
(68,170,qs),
(73,170,o),
(74,174,qs),
(78,189,o),
(97,229,o),
(127,274,o),
(167,321,o),
(191,342,qs),
(205,354,o),
(243,385,o),
(292,412,o),
(352,430,o),
(388,430,qs),
(422,429,o),
(479,387,o),
(490,349,qs),
(509,271,o),
(427,200,qs),
(392,170,o),
(311,130,o),
(263,130,qs),
(252,130,o),
(236,135,o),
(228,138,q),
(233,153,o),
(242,184,o),
(250,211,o),
(254,230,o),
(254,233,q),
(253,236,o),
(240,244,o),
(235,244,qs),
(232,244,o),
(230,241,q),
(228,233,o),
(211,181,o),
(202,150,q),
(200,151,o),
(199,151,o),
(197,152,qs),
(183,156,o),
(183,148,q),
(182,144,o),
(185,134,o),
(189,131,qs),
(190,130,o),
(193,129,o),
(195,127,q),
(188,104,o),
(177,62,o),
(175,50,qs),
(170,18,o),
(161,-30,o),
(163,-48,qs),
(165,-61,o),
(174,-61,qs),
(181,-61,o),
(182,-52,qs),
(184,-43,o),
(191,-6,o),
(200,35,o),
(209,73,o),
(212,84,qs),
(214,89,o),
(218,104,o),
(221,114,q),
(232,110,o),
(260,105,o),
(277,105,qs),
(303,105,o),
(362,125,o),
(418,158,o),
(467,198,o),
(483,218,qs),
(512,253,o),
(526,327,o),
(521,350,qs),
(517,371,o)
);
}
);
userData = {
assembly = "PUSHW[ ]	/* 1 value pushed */
0
CALL[ ]	/* CallFunction */
SVTCA[0]	/* SetFreedomAndProjectionVectorToAxis */
PUSHW[ ]	/* 3 values pushed */
87 64 3
CALL[ ]	/* CallFunction */
PUSHW[ ]	/* 3 values pushed */
56 8 3
CALL[ ]	/* CallFunction */
PUSHW[ ]	/* 1 value pushed */
8
SRP0[ ]	/* SetRefPoint0 */
PUSHW[ ]	/* 1 value pushed */
37
MDRP[11100]	/* MoveDirectRelPt */
SVTCA[1]	/* SetFreedomAndProjectionVectorToAxis */
PUSHW[ ]	/* 3 values pushed */
35 23 3
CALL[ ]	/* CallFunction */
PUSHW[ ]	/* 3 values pushed */
48 53 3
CALL[ ]	/* CallFunction */
NPUSHW[ ]	/* 27 values pushed */
6 35 22 35 38 35 54 35 70 35 86 35 102 35 118 35 134 35 150 35 166 35 182 35 198 35 13
DELTAP1[ ]	/* DeltaExceptionP1 */
NPUSHW[ ]	/* 5 values pushed */
213 35 229 35 2
DELTAP1[ ]	/* DeltaExceptionP1 */
PUSHW[ ]	/* 1 value pushed */
35
SRP0[ ]	/* SetRefPoint0 */
PUSHW[ ]	/* 1 value pushed */
19
MDRP[10000]	/* MoveDirectRelPt */
PUSHW[ ]	/* 1 value pushed */
19
MDAP[1]	/* MoveDirectAbsPt */
NPUSHW[ ]	/* 27 values pushed */
6 48 22 48 38 48 54 48 70 48 86 48 102 48 118 48 134 48 150 48 166 48 182 48 198 48 13
DELTAP1[ ]	/* DeltaExceptionP1 */
NPUSHW[ ]	/* 5 values pushed */
213 48 229 48 2
DELTAP1[ ]	/* DeltaExceptionP1 */
IUP[0]	/* InterpolateUntPts */
IUP[1]	/* InterpolateUntPts */";
};
width = 551;
}
);
note = P;
unicode = 80;
},
{
glyphname = Q;
layers = (
{
layerId = m01;
shapes = (
{
closed = 1;
nodes = (
(323,140,o),
(321,153,qs),
(319,161,o),
(307,171,o),
(300,171,qs),
(288,171,o),
(285,159,qs),
(284,152,o),
(297,102,o),
(305,79,q),
(272,59,o),
(202,30,o),
(163,30,qs),
(145,30,o),
(115,38,o),
(104,47,qs),
(87,63,o),
(66,109,o),
(68,141,qs),
(70,186,o),
(119,274,o),
(194,345,o),
(285,391,o),
(328,392,q),
(318,382,o),
(304,364,o),
(301,360,qs),
(296,354,o),
(300,346,o),
(306,346,qs),
(314,346,o),
(321,353,qs),
(329,360,o),
(358,379,o),
(372,383,q),
(380,379,o),
(395,370,o),
(401,366,qs),
(407,362,o),
(412,371,o),
(412,378,q),
(431,372,o),
(445,352,qs),
(458,334,o),
(468,291,o),
(467,267,qs),
(466,239,o),
(441,190,o),
(402,148,o),
(356,112,o),
(335,97,q),
(330,111,o)
);
},
{
closed = 1;
nodes = (
(492,329,o),
(478,358,o),
(461,381,o),
(452,387,qs),
(435,399,o),
(391,417,o),
(373,417,qs),
(369,417,o),
(364,416,o),
(361,415,q),
(342,421,o),
(316,421,qs),
(290,421,o),
(211,391,o),
(176,366,qs),
(159,353,o),
(121,315,o),
(87,272,o),
(59,226,o),
(51,205,qs),
(43,184,o),
(34,142,o),
(36,115,qs),
(41,58,o),
(114,-2,o),
(169,-2,qs),
(201,-2,o),
(282,31,o),
(319,51,q),
(322,46,o),
(340,25,o),
(360,3,o),
(381,-13,o),
(387,-13,qs),
(394,-13,o),
(402,1,o),
(397,4,qs),
(381,13,o),
(354,50,o),
(346,67,q),
(375,85,o),
(431,129,o),
(474,183,o),
(501,246,o),
(501,283,qs),
(501,298,o)
);
}
);
userData = {
assembly = "PUSHW[ ]	/* 1 value pushed */
0
CALL[ ]	/* CallFunction */
SVTCA[0]	/* SetFreedomAndProjectionVectorToAxis */
PUSHW[ ]	/* 1 value pushed */
85
MDAP[1]	/* MoveDirectAbsPt */
PUSHW[ ]	/* 1 value pushed */
87
MDAP[1]	/* MoveDirectAbsPt */
PUSHW[ ]	/* 1 value pushed */
90
MDAP[1]	/* MoveDirectAbsPt */
PUSHW[ ]	/* 1 value pushed */
0
RCVT[ ]	/* ReadCVT */
IF[ ]	/* If */
PUSHW[ ]	/* 1 value pushed */
63
MDAP[1]	/* MoveDirectAbsPt */
ELSE[ ]	/* Else */
PUSHW[ ]	/* 2 values pushed */
63 5
MIAP[0]	/* MoveIndirectAbsPt */
EIF[ ]	/* EndIf */
PUSHW[ ]	/* 1 value pushed */
0
RCVT[ ]	/* ReadCVT */
IF[ ]	/* If */
PUSHW[ ]	/* 1 value pushed */
60
MDAP[1]	/* MoveDirectAbsPt */
ELSE[ ]	/* Else */
PUSHW[ ]	/* 2 values pushed */
60 5
MIAP[0]	/* MoveIndirectAbsPt */
EIF[ ]	/* EndIf */
PUSHW[ ]	/* 1 value pushed */
0
RCVT[ ]	/* ReadCVT */
IF[ ]	/* If */
PUSHW[ ]	/* 1 value pushed */
71
MDAP[1]	/* MoveDirectAbsPt */
ELSE[ ]	/* Else */
PUSHW[ ]	/* 2 values pushed */
71 5
MIAP[0]	/* MoveIndirectAbsPt */
EIF[ ]	/* EndIf */
PUSHW[ ]	/* 3 values pushed */
0 63 85
SRP1[ ]	/* SetRefPoint1 */
SRP2[ ]	/* SetRefPoint2 */
IP[ ]	/* InterpolatePts */
PUSHW[ ]	/* 3 values pushed */
10 63 85
SRP1[ ]	/* SetRefPoint1 */
SRP2[ ]	/* SetRefPoint2 */
IP[ ]	/* InterpolatePts */
PUSHW[ ]	/* 3 values pushed */
27 63 85
SRP1[ ]	/* SetRefPoint1 */
SRP2[ ]	/* SetRefPoint2 */
IP[ ]	/* InterpolatePts */
PUSHW[ ]	/* 1 value pushed */
38
MDRP[11100]	/* MoveDirectRelPt */
NPUSHW[ ]	/* 27 values pushed */
7 38 23 38 39 38 55 38 71 38 87 38 103 38 119 38 135 38 151 38 167 38 183 38 199 38 13
DELTAP1[ ]	/* DeltaExceptionP1 */
NPUSHW[ ]	/* 5 values pushed */
214 38 230 38 2
DELTAP1[ ]	/* DeltaExceptionP1 */
SVTCA[1]	/* SetFreedomAndProjectionVectorToAxis */
PUSHW[ ]	/* 3 values pushed */
49 44 3
CALL[ ]	/* CallFunction */
PUSHW[ ]	/* 3 values pushed */
52 5 3
CALL[ ]	/* CallFunction */
NPUSHW[ ]	/* 5 values pushed */
218 44 234 44 2
DELTAP1[ ]	/* DeltaExceptionP1 */
NPUSHW[ ]	/* 27 values pushed */
9 44 25 44 41 44 57 44 73 44 89 44 105 44 121 44 137 44 153 44 169 44 185 44 201 44 13
DELTAP1[ ]	/* DeltaExceptionP1 */
PUSHW[ ]	/* 3 values pushed */
0 44 52
SRP1[ ]	/* SetRefPoint1 */
SRP2[ ]	/* SetRefPoint2 */
IP[ ]	/* InterpolatePts */
NPUSHW[ ]	/* 5 values pushed */
218 5 234 5 2
DELTAP1[ ]	/* DeltaExceptionP1 */
NPUSHW[ ]	/* 27 values pushed */
9 5 25 5 41 5 57 5 73 5 89 5 105 5 121 5 137 5 153 5 169 5 185 5 201 5 13
DELTAP1[ ]	/* DeltaExceptionP1 */
PUSHW[ ]	/* 3 values pushed */
10 44 52
SRP1[ ]	/* SetRefPoint1 */
SRP2[ ]	/* SetRefPoint2 */
IP[ ]	/* InterpolatePts */
PUSHW[ ]	/* 3 values pushed */
27 44 52
SRP1[ ]	/* SetRefPoint1 */
SRP2[ ]	/* SetRefPoint2 */
IP[ ]	/* InterpolatePts */
IUP[0]	/* InterpolateUntPts */
IUP[1]	/* InterpolateUntPts */";
};
width = 536;
}
);
note = Q;
unicode = 81;
},
{
glyphname = R;
layers = (
{
layerId = m01;
shapes = (
{
closed = 1;
nodes = (
(449,344,o),
(425,377,o),
(397,402,o),
(384,410,qs),
(357,426,o),
(307,440,o),
(275,440,qs),
(233,440,o),
(154,403,o),
(91,343,o),
(48,266,o),
(42,226,qs),
(40,209,o),
(40,180,o),
(44,172,qs),
(47,165,o),
(56,165,qs),
(66,165,o),
(65,173,qs),
(65,187,o),
(66,219,o),
(71,236,qs),
(82,272,o),
(122,335,o),
(176,383,o),
(244,411,o),
(283,411,qs),
(325,411,o),
(389,373,o),
(409,349,qs),
(439,313,o),
(436,260,qs),
(435,234,o),
(408,189,o),
(366,155,o),
(314,136,o),
(290,136,qs),
(266,136,o),
(232,149,o),
(220,152,q),
(226,173,o),
(237,216,o),
(240,230,qs),
(245,253,o),
(252,295,o),
(250,302,qs),
(248,309,o),
(236,309,qs),
(226,309,o),
(223,302,qs),
(219,292,o),
(218,256,o),
(211,226,qs),
(208,212,o),
(198,175,o),
(188,135,o),
(178,97,o),
(176,83,qs),
(170,48,o),
(169,13,o),
(168,-5,qs),
(168,-10,o),
(177,-16,o),
(182,-16,qs),
(192,-16,o),
(193,-6,qs),
(194,0,o),
(197,26,o),
(200,57,o),
(205,89,o),
(207,101,qs),
(208,104,o),
(210,114,q),
(222,104,o),
(250,74,o),
(260,65,qs),
(268,58,o),
(294,38,o),
(322,18,o),
(346,3,o),
(352,1,qs),
(358,-1,o),
(368,1,o),
(375,7,o),
(377,14,o),
(373,16,q),
(359,26,o),
(323,50,o),
(308,63,qs),
(297,73,o),
(279,91,o),
(271,99,qs),
(263,109,o),
(256,117,q),
(261,116,o),
(266,116,qs),
(271,116,o),
(283,115,o),
(291,115,qs),
(311,115,o),
(352,125,o),
(391,143,o),
(424,169,o),
(436,185,qs),
(453,207,o),
(469,250,o),
(467,283,qs),
(466,305,o)
);
}
);
userData = {
assembly = "PUSHW[ ]	/* 1 value pushed */
0
CALL[ ]	/* CallFunction */
SVTCA[0]	/* SetFreedomAndProjectionVectorToAxis */
PUSHW[ ]	/* 1 value pushed */
0
RCVT[ ]	/* ReadCVT */
IF[ ]	/* If */
PUSHW[ ]	/* 1 value pushed */
43
MDAP[1]	/* MoveDirectAbsPt */
ELSE[ ]	/* Else */
PUSHW[ ]	/* 2 values pushed */
43 5
MIAP[0]	/* MoveIndirectAbsPt */
EIF[ ]	/* EndIf */
PUSHW[ ]	/* 1 value pushed */
0
RCVT[ ]	/* ReadCVT */
IF[ ]	/* If */
PUSHW[ ]	/* 1 value pushed */
26
MDAP[1]	/* MoveDirectAbsPt */
ELSE[ ]	/* Else */
PUSHW[ ]	/* 2 values pushed */
26 5
MIAP[0]	/* MoveIndirectAbsPt */
EIF[ ]	/* EndIf */
PUSHW[ ]	/* 1 value pushed */
0
RCVT[ ]	/* ReadCVT */
IF[ ]	/* If */
PUSHW[ ]	/* 1 value pushed */
41
MDAP[1]	/* MoveDirectAbsPt */
ELSE[ ]	/* Else */
PUSHW[ ]	/* 2 values pushed */
41 5
MIAP[0]	/* MoveIndirectAbsPt */
EIF[ ]	/* EndIf */
PUSHW[ ]	/* 1 value pushed */
0
RCVT[ ]	/* ReadCVT */
IF[ ]	/* If */
PUSHW[ ]	/* 1 value pushed */
46
MDAP[1]	/* MoveDirectAbsPt */
ELSE[ ]	/* Else */
PUSHW[ ]	/* 2 values pushed */
46 5
MIAP[0]	/* MoveIndirectAbsPt */
EIF[ ]	/* EndIf */
PUSHW[ ]	/* 3 values pushed */
100 80 3
CALL[ ]	/* CallFunction */
PUSHW[ ]	/* 3 values pushed */
70 8 3
CALL[ ]	/* CallFunction */
PUSHW[ ]	/* 1 value pushed */
8
SRP0[ ]	/* SetRefPoint0 */
PUSHW[ ]	/* 1 value pushed */
11
MDRP[10000]	/* MoveDirectRelPt */
PUSHW[ ]	/* 1 value pushed */
11
MDAP[1]	/* MoveDirectAbsPt */
PUSHW[ ]	/* 1 value pushed */
8
SRP0[ ]	/* SetRefPoint0 */
PUSHW[ ]	/* 1 value pushed */
13
MDRP[10000]	/* MoveDirectRelPt */
PUSHW[ ]	/* 1 value pushed */
13
MDAP[1]	/* MoveDirectAbsPt */
SVTCA[1]	/* SetFreedomAndProjectionVectorToAxis */
PUSHW[ ]	/* 3 values pushed */
41 46 3
CALL[ ]	/* CallFunction */
PUSHW[ ]	/* 3 values pushed */
0 75 3
CALL[ ]	/* CallFunction */
PUSHW[ ]	/* 3 values pushed */
61 67 3
CALL[ ]	/* CallFunction */
PUSHW[ ]	/* 3 values pushed */
13 46 0
SRP1[ ]	/* SetRefPoint1 */
SRP2[ ]	/* SetRefPoint2 */
IP[ ]	/* InterpolatePts */
PUSHW[ ]	/* 3 values pushed */
34 46 0
SRP1[ ]	/* SetRefPoint1 */
SRP2[ ]	/* SetRefPoint2 */
IP[ ]	/* InterpolatePts */
NPUSHW[ ]	/* 27 values pushed */
6 41 22 41 38 41 54 41 70 41 86 41 102 41 118 41 134 41 150 41 166 41 182 41 198 41 13
DELTAP1[ ]	/* DeltaExceptionP1 */
NPUSHW[ ]	/* 5 values pushed */
213 41 229 41 2
DELTAP1[ ]	/* DeltaExceptionP1 */
NPUSHW[ ]	/* 27 values pushed */
6 61 22 61 38 61 54 61 70 61 86 61 102 61 118 61 134 61 150 61 166 61 182 61 198 61 13
DELTAP1[ ]	/* DeltaExceptionP1 */
NPUSHW[ ]	/* 5 values pushed */
213 61 229 61 2
DELTAP1[ ]	/* DeltaExceptionP1 */
NPUSHW[ ]	/* 5 values pushed */
218 75 234 75 2
DELTAP1[ ]	/* DeltaExceptionP1 */
NPUSHW[ ]	/* 27 values pushed */
9 75 25 75 41 75 57 75 73 75 89 75 105 75 121 75 137 75 153 75 169 75 185 75 201 75 13
DELTAP1[ ]	/* DeltaExceptionP1 */
IUP[0]	/* InterpolateUntPts */
IUP[1]	/* InterpolateUntPts */";
};
width = 497;
}
);
note = R;
unicode = 82;
},
{
glyphname = S;
layers = (
{
layerId = m01;
shapes = (
{
closed = 1;
nodes = (
(323,392,o),
(351,392,qs),
(362,392,o),
(368,383,o),
(376,380,qs),
(381,378,o),
(391,383,o),
(393,385,q),
(396,392,o),
(388,417,o),
(365,421,qs),
(353,423,o),
(319,419,o),
(280,408,o),
(242,391,o),
(225,380,qs),
(208,370,o),
(169,340,o),
(136,306,o),
(115,270,o),
(116,253,qs),
(117,232,o),
(136,199,o),
(164,176,o),
(196,161,o),
(211,157,qs),
(227,153,o),
(263,142,o),
(295,128,o),
(315,113,o),
(315,104,qs),
(315,98,o),
(301,82,o),
(278,66,o),
(250,52,o),
(235,48,qs),
(209,40,o),
(169,32,o),
(140,32,qs),
(116,32,o),
(78,40,o),
(55,49,qs),
(41,54,o),
(39,38,o),
(50,29,qs),
(59,22,o),
(101,-2,o),
(148,-2,qs),
(169,-2,o),
(238,13,o),
(304,42,o),
(351,83,o),
(350,110,qs),
(350,131,o),
(303,161,o),
(252,176,qs),
(226,184,o),
(189,198,o),
(164,215,o),
(152,238,o),
(151,254,qs),
(150,268,o),
(169,298,o),
(197,326,o),
(231,351,o),
(246,359,qs),
(270,373,o)
);
}
);
userData = {
assembly = "PUSHW[ ]	/* 1 value pushed */
0
CALL[ ]	/* CallFunction */
SVTCA[0]	/* SetFreedomAndProjectionVectorToAxis */
PUSHW[ ]	/* 1 value pushed */
58
MDAP[1]	/* MoveDirectAbsPt */
PUSHW[ ]	/* 1 value pushed */
64
MDAP[1]	/* MoveDirectAbsPt */
PUSHW[ ]	/* 1 value pushed */
0
RCVT[ ]	/* ReadCVT */
IF[ ]	/* If */
PUSHW[ ]	/* 1 value pushed */
18
MDAP[1]	/* MoveDirectAbsPt */
ELSE[ ]	/* Else */
PUSHW[ ]	/* 2 values pushed */
18 5
MIAP[0]	/* MoveIndirectAbsPt */
EIF[ ]	/* EndIf */
PUSHW[ ]	/* 1 value pushed */
27
MDRP[11100]	/* MoveDirectRelPt */
NPUSHW[ ]	/* 27 values pushed */
7 27 23 27 39 27 55 27 71 27 87 27 103 27 119 27 135 27 151 27 167 27 183 27 199 27 13
DELTAP1[ ]	/* DeltaExceptionP1 */
NPUSHW[ ]	/* 5 values pushed */
214 27 230 27 2
DELTAP1[ ]	/* DeltaExceptionP1 */
PUSHW[ ]	/* 1 value pushed */
64
SRP0[ ]	/* SetRefPoint0 */
PUSHW[ ]	/* 1 value pushed */
55
MDRP[11100]	/* MoveDirectRelPt */
SVTCA[1]	/* SetFreedomAndProjectionVectorToAxis */
PUSHW[ ]	/* 1 value pushed */
67
MDAP[1]	/* MoveDirectAbsPt */
PUSHW[ ]	/* 1 value pushed */
35
MDAP[1]	/* MoveDirectAbsPt */
PUSHW[ ]	/* 1 value pushed */
67
SRP0[ ]	/* SetRefPoint0 */
PUSHW[ ]	/* 1 value pushed */
45
MDRP[10000]	/* MoveDirectRelPt */
PUSHW[ ]	/* 1 value pushed */
45
MDAP[1]	/* MoveDirectAbsPt */
PUSHW[ ]	/* 1 value pushed */
5
MDRP[11100]	/* MoveDirectRelPt */
NPUSHW[ ]	/* 27 values pushed */
6 5 22 5 38 5 54 5 70 5 86 5 102 5 118 5 134 5 150 5 166 5 182 5 198 5 13
DELTAP1[ ]	/* DeltaExceptionP1 */
NPUSHW[ ]	/* 5 values pushed */
213 5 229 5 2
DELTAP1[ ]	/* DeltaExceptionP1 */
NPUSHW[ ]	/* 5 values pushed */
218 35 234 35 2
DELTAP1[ ]	/* DeltaExceptionP1 */
NPUSHW[ ]	/* 27 values pushed */
9 35 25 35 41 35 57 35 73 35 89 35 105 35 121 35 137 35 153 35 169 35 185 35 201 35 13
DELTAP1[ ]	/* DeltaExceptionP1 */
PUSHW[ ]	/* 1 value pushed */
35
SRP0[ ]	/* SetRefPoint0 */
PUSHW[ ]	/* 1 value pushed */
13
MDRP[11100]	/* MoveDirectRelPt */
PUSHW[ ]	/* 1 value pushed */
5
SRP0[ ]	/* SetRefPoint0 */
PUSHW[ ]	/* 1 value pushed */
18
MDRP[10000]	/* MoveDirectRelPt */
PUSHW[ ]	/* 1 value pushed */
18
MDAP[1]	/* MoveDirectAbsPt */
PUSHW[ ]	/* 1 value pushed */
13
SRP0[ ]	/* SetRefPoint0 */
PUSHW[ ]	/* 1 value pushed */
64
MDRP[10000]	/* MoveDirectRelPt */
PUSHW[ ]	/* 1 value pushed */
64
MDAP[1]	/* MoveDirectAbsPt */
IUP[0]	/* InterpolateUntPts */
IUP[1]	/* InterpolateUntPts */";
};
width = 415;
}
);
note = S;
unicode = 83;
},
{
glyphname = T;
layers = (
{
layerId = m01;
shapes = (
{
closed = 1;
nodes = (
(346,358,o),
(264,318,q),
(261,322,o),
(250,329,o),
(245,329,qs),
(238,329,o),
(237,322,qs),
(237,320,o),
(236,311,o),
(235,305,q),
(216,295,o),
(184,279,o),
(174,273,qs),
(149,259,o),
(90,228,o),
(71,212,qs),
(60,201,o),
(45,188,o),
(40,177,qs),
(38,171,o),
(56,150,o),
(62,150,q),
(70,152,o),
(74,166,o),
(81,174,qs),
(94,188,o),
(132,215,o),
(173,239,o),
(215,260,o),
(232,268,q),
(230,242,o),
(225,183,o),
(220,157,qs),
(218,145,o),
(215,94,o),
(213,40,o),
(213,-2,o),
(214,-4,qs),
(217,-8,o),
(228,-8,qs),
(233,-8,o),
(240,-6,o),
(240,-3,qs),
(240,2,o),
(241,30,o),
(241,63,o),
(242,96,o),
(243,107,qs),
(244,122,o),
(250,162,o),
(256,205,o),
(261,247,o),
(262,264,qs),
(263,269,o),
(263,278,o),
(264,283,q),
(278,290,o),
(301,301,o),
(309,306,qs),
(334,320,o),
(396,348,o),
(433,363,qs),
(449,369,o),
(495,388,o),
(539,406,o),
(575,420,o),
(582,423,qs),
(588,425,o),
(606,431,o),
(624,438,o),
(639,446,o),
(641,450,qs),
(644,457,o),
(630,457,qs),
(617,457,o),
(602,451,qs),
(515,423,o)
);
}
);
userData = {
assembly = "PUSHW[ ]	/* 1 value pushed */
0
CALL[ ]	/* CallFunction */
SVTCA[0]	/* SetFreedomAndProjectionVectorToAxis */
PUSHW[ ]	/* 1 value pushed */
0
RCVT[ ]	/* ReadCVT */
IF[ ]	/* If */
PUSHW[ ]	/* 1 value pushed */
33
MDAP[1]	/* MoveDirectAbsPt */
ELSE[ ]	/* Else */
PUSHW[ ]	/* 2 values pushed */
33 5
MIAP[0]	/* MoveIndirectAbsPt */
EIF[ ]	/* EndIf */
PUSHW[ ]	/* 1 value pushed */
0
RCVT[ ]	/* ReadCVT */
IF[ ]	/* If */
PUSHW[ ]	/* 1 value pushed */
36
MDAP[1]	/* MoveDirectAbsPt */
ELSE[ ]	/* Else */
PUSHW[ ]	/* 2 values pushed */
36 5
MIAP[0]	/* MoveIndirectAbsPt */
EIF[ ]	/* EndIf */
PUSHW[ ]	/* 1 value pushed */
0
RCVT[ ]	/* ReadCVT */
IF[ ]	/* If */
PUSHW[ ]	/* 1 value pushed */
38
MDAP[1]	/* MoveDirectAbsPt */
ELSE[ ]	/* Else */
PUSHW[ ]	/* 2 values pushed */
38 5
MIAP[0]	/* MoveIndirectAbsPt */
EIF[ ]	/* EndIf */
SVTCA[1]	/* SetFreedomAndProjectionVectorToAxis */
PUSHW[ ]	/* 3 values pushed */
33 38 3
CALL[ ]	/* CallFunction */
NPUSHW[ ]	/* 27 values pushed */
6 33 22 33 38 33 54 33 70 33 86 33 102 33 118 33 134 33 150 33 166 33 182 33 198 33 13
DELTAP1[ ]	/* DeltaExceptionP1 */
NPUSHW[ ]	/* 5 values pushed */
213 33 229 33 2
DELTAP1[ ]	/* DeltaExceptionP1 */
PUSHW[ ]	/* 1 value pushed */
33
SRP0[ ]	/* SetRefPoint0 */
PUSHW[ ]	/* 1 value pushed */
28
MDRP[10000]	/* MoveDirectRelPt */
PUSHW[ ]	/* 1 value pushed */
28
MDAP[1]	/* MoveDirectAbsPt */
PUSHW[ ]	/* 3 values pushed */
46 38 33
SRP1[ ]	/* SetRefPoint1 */
SRP2[ ]	/* SetRefPoint2 */
IP[ ]	/* InterpolatePts */
PUSHW[ ]	/* 1 value pushed */
33
SRP0[ ]	/* SetRefPoint0 */
PUSHW[ ]	/* 1 value pushed */
69
MDRP[10000]	/* MoveDirectRelPt */
PUSHW[ ]	/* 1 value pushed */
69
MDAP[1]	/* MoveDirectAbsPt */
IUP[0]	/* InterpolateUntPts */
IUP[1]	/* InterpolateUntPts */";
};
width = 562;
}
);
note = T;
unicode = 84;
},
{
glyphname = U;
layers = (
{
layerId = m01;
shapes = (
{
closed = 1;
nodes = (
(187,404,o),
(181,409,qs),
(176,414,o),
(164,421,o),
(154,419,q),
(147,419,o),
(128,400,o),
(108,373,o),
(90,344,o),
(84,333,qs),
(68,305,o),
(42,215,o),
(40,169,qs),
(39,141,o),
(54,87,o),
(73,62,qs),
(95,36,o),
(159,0,o),
(194,0,qs),
(229,0,o),
(314,38,o),
(400,100,o),
(481,180,o),
(543,263,o),
(581,343,o),
(581,375,qs),
(581,389,o),
(568,407,o),
(561,409,qs),
(554,411,o),
(541,406,o),
(546,399,qs),
(549,393,o),
(554,377,o),
(553,366,qs),
(552,350,o),
(532,310,o),
(506,271,o),
(479,235,o),
(470,224,qs),
(451,200,o),
(384,134,o),
(306,74,o),
(225,33,o),
(193,33,qs),
(161,33,o),
(104,74,o),
(88,101,qs),
(72,130,o),
(72,206,o),
(79,240,qs),
(86,278,o),
(123,351,o),
(140,371,qs),
(147,380,o),
(159,393,o),
(163,394,qs),
(167,396,o),
(171,393,o),
(176,393,qs),
(181,393,o)
);
}
);
userData = {
assembly = "PUSHW[ ]	/* 1 value pushed */
0
CALL[ ]	/* CallFunction */
SVTCA[0]	/* SetFreedomAndProjectionVectorToAxis */
PUSHW[ ]	/* 1 value pushed */
55
MDAP[1]	/* MoveDirectAbsPt */
PUSHW[ ]	/* 1 value pushed */
0
RCVT[ ]	/* ReadCVT */
IF[ ]	/* If */
PUSHW[ ]	/* 1 value pushed */
41
MDAP[1]	/* MoveDirectAbsPt */
ELSE[ ]	/* Else */
PUSHW[ ]	/* 2 values pushed */
41 5
MIAP[0]	/* MoveIndirectAbsPt */
EIF[ ]	/* EndIf */
PUSHW[ ]	/* 1 value pushed */
55
SRP0[ ]	/* SetRefPoint0 */
PUSHW[ ]	/* 1 value pushed */
0
MDRP[11100]	/* MoveDirectRelPt */
PUSHW[ ]	/* 1 value pushed */
41
SRP0[ ]	/* SetRefPoint0 */
PUSHW[ ]	/* 1 value pushed */
15
MDRP[11100]	/* MoveDirectRelPt */
NPUSHW[ ]	/* 27 values pushed */
7 15 23 15 39 15 55 15 71 15 87 15 103 15 119 15 135 15 151 15 167 15 183 15 199 15 13
DELTAP1[ ]	/* DeltaExceptionP1 */
NPUSHW[ ]	/* 5 values pushed */
214 15 230 15 2
DELTAP1[ ]	/* DeltaExceptionP1 */
IUP[0]	/* InterpolateUntPts */
IUP[1]	/* InterpolateUntPts */";
};
width = 611;
}
);
note = U;
unicode = (85,217,218,219);
},
{
glyphname = V;
layers = (
{
layerId = m01;
shapes = (
{
closed = 1;
nodes = (
(97,13,o),
(117,-11,qs),
(122,-16,o),
(131,-16,qs),
(144,-16,o),
(145,-9,q),
(153,11,o),
(198,74,o),
(252,139,o),
(305,198,o),
(320,214,qs),
(328,222,o),
(358,253,o),
(398,290,o),
(443,331,o),
(465,349,qs),
(489,370,o),
(536,405,o),
(573,432,o),
(599,448,o),
(603,449,q),
(612,454,o),
(607,466,o),
(596,466,qs),
(583,466,o),
(538,442,o),
(490,409,o),
(447,377,o),
(436,368,qs),
(427,361,o),
(385,323,o),
(333,274,o),
(279,219,o),
(257,195,qs),
(242,179,o),
(195,124,o),
(175,98,qs),
(155,72,o),
(131,39,o),
(128,39,qs),
(126,39,o),
(116,64,o),
(105,103,o),
(94,150,o),
(91,172,qs),
(88,191,o),
(83,239,o),
(79,283,o),
(74,317,o),
(71,321,qs),
(69,324,o),
(59,328,o),
(53,328,qs),
(48,328,o),
(38,323,o),
(40,316,qs),
(42,309,o),
(46,271,o),
(51,223,o),
(59,171,o),
(63,150,qs),
(73,101,o)
);
}
);
userData = {
assembly = "PUSHW[ ]	/* 1 value pushed */
0
CALL[ ]	/* CallFunction */
SVTCA[0]	/* SetFreedomAndProjectionVectorToAxis */
PUSHW[ ]	/* 1 value pushed */
37
MDAP[1]	/* MoveDirectAbsPt */
PUSHW[ ]	/* 1 value pushed */
0
RCVT[ ]	/* ReadCVT */
IF[ ]	/* If */
PUSHW[ ]	/* 1 value pushed */
55
MDAP[1]	/* MoveDirectAbsPt */
ELSE[ ]	/* Else */
PUSHW[ ]	/* 2 values pushed */
55 5
MIAP[0]	/* MoveIndirectAbsPt */
EIF[ ]	/* EndIf */
PUSHW[ ]	/* 1 value pushed */
0
RCVT[ ]	/* ReadCVT */
IF[ ]	/* If */
PUSHW[ ]	/* 1 value pushed */
57
MDAP[1]	/* MoveDirectAbsPt */
ELSE[ ]	/* Else */
PUSHW[ ]	/* 2 values pushed */
57 5
MIAP[0]	/* MoveIndirectAbsPt */
EIF[ ]	/* EndIf */
PUSHW[ ]	/* 1 value pushed */
0
RCVT[ ]	/* ReadCVT */
IF[ ]	/* If */
PUSHW[ ]	/* 1 value pushed */
59
MDAP[1]	/* MoveDirectAbsPt */
ELSE[ ]	/* Else */
PUSHW[ ]	/* 2 values pushed */
59 5
MIAP[0]	/* MoveIndirectAbsPt */
EIF[ ]	/* EndIf */
PUSHW[ ]	/* 1 value pushed */
57
SRP0[ ]	/* SetRefPoint0 */
PUSHW[ ]	/* 1 value pushed */
21
MDRP[11100]	/* MoveDirectRelPt */
NPUSHW[ ]	/* 27 values pushed */
7 21 23 21 39 21 55 21 71 21 87 21 103 21 119 21 135 21 151 21 167 21 183 21 199 21 13
DELTAP1[ ]	/* DeltaExceptionP1 */
NPUSHW[ ]	/* 5 values pushed */
214 21 230 21 2
DELTAP1[ ]	/* DeltaExceptionP1 */
IUP[0]	/* InterpolateUntPts */
IUP[1]	/* InterpolateUntPts */";
};
width = 470;
}
);
note = V;
unicode = 86;
},
{
glyphname = W;
layers = (
{
layerId = m01;
shapes = (
{
closed = 1;
nodes = (
(341,369,o),
(345,369,qs),
(351,370,o),
(353,382,o),
(351,387,qs),
(348,394,o),
(332,406,o),
(320,406,qs),
(309,406,o),
(277,390,o),
(244,369,o),
(214,347,o),
(206,341,qs),
(179,320,o),
(121,266,o),
(72,205,o),
(40,137,o),
(40,101,qs),
(40,83,o),
(54,52,o),
(78,28,o),
(110,14,o),
(128,14,qs),
(142,14,o),
(178,22,o),
(217,33,o),
(253,46,o),
(266,51,qs),
(290,60,o),
(331,73,o),
(348,69,qs),
(359,67,o),
(373,38,o),
(379,30,qs),
(382,26,o),
(389,12,o),
(403,-2,o),
(424,-12,o),
(441,-12,qs),
(458,-12,o),
(495,4,o),
(536,29,o),
(580,62,o),
(602,80,qs),
(615,90,o),
(649,120,o),
(685,156,o),
(720,197,o),
(735,218,qs),
(757,250,o),
(779,312,o),
(774,341,qs),
(769,370,o),
(742,402,o),
(711,418,o),
(683,421,o),
(676,421,qs),
(651,421,o),
(626,407,qs),
(618,402,o),
(618,391,o),
(625,388,qs),
(629,386,o),
(645,390,o),
(650,391,qs),
(655,392,o),
(668,394,o),
(676,394,qs),
(687,394,o),
(712,387,o),
(723,378,qs),
(734,369,o),
(743,334,o),
(738,291,o),
(718,243,o),
(700,222,qs),
(688,209,o),
(658,175,o),
(623,141,o),
(587,108,o),
(569,96,qs),
(559,89,o),
(527,65,o),
(491,42,o),
(457,25,o),
(443,25,qs),
(428,25,o),
(410,48,o),
(392,76,o),
(368,101,o),
(348,103,qs),
(333,105,o),
(277,89,o),
(216,68,o),
(159,50,o),
(142,50,qs),
(134,50,o),
(111,54,o),
(91,64,o),
(76,84,o),
(76,100,qs),
(75,135,o),
(102,196,o),
(140,246,o),
(181,284,o),
(195,297,qs),
(204,306,o),
(237,333,o),
(274,359,o),
(310,378,o),
(322,378,qs),
(330,377,o)
);
}
);
userData = {
assembly = "PUSHW[ ]	/* 1 value pushed */
0
CALL[ ]	/* CallFunction */
SVTCA[0]	/* SetFreedomAndProjectionVectorToAxis */
PUSHW[ ]	/* 1 value pushed */
10
MDAP[1]	/* MoveDirectAbsPt */
PUSHW[ ]	/* 1 value pushed */
20
MDAP[1]	/* MoveDirectAbsPt */
PUSHW[ ]	/* 1 value pushed */
30
MDAP[1]	/* MoveDirectAbsPt */
PUSHW[ ]	/* 1 value pushed */
93
MDAP[1]	/* MoveDirectAbsPt */
PUSHW[ ]	/* 1 value pushed */
0
RCVT[ ]	/* ReadCVT */
IF[ ]	/* If */
PUSHW[ ]	/* 1 value pushed */
72
MDAP[1]	/* MoveDirectAbsPt */
ELSE[ ]	/* Else */
PUSHW[ ]	/* 2 values pushed */
72 5
MIAP[0]	/* MoveIndirectAbsPt */
EIF[ ]	/* EndIf */
PUSHW[ ]	/* 3 values pushed */
15 88 3
CALL[ ]	/* CallFunction */
PUSHW[ ]	/* 3 values pushed */
54 43 3
CALL[ ]	/* CallFunction */
PUSHW[ ]	/* 3 values pushed */
103 0 3
CALL[ ]	/* CallFunction */
PUSHW[ ]	/* 1 value pushed */
72
SRP0[ ]	/* SetRefPoint0 */
PUSHW[ ]	/* 1 value pushed */
25
MDRP[11100]	/* MoveDirectRelPt */
NPUSHW[ ]	/* 27 values pushed */
7 25 23 25 39 25 55 25 71 25 87 25 103 25 119 25 135 25 151 25 167 25 183 25 199 25 13
DELTAP1[ ]	/* DeltaExceptionP1 */
NPUSHW[ ]	/* 5 values pushed */
214 25 230 25 2
DELTAP1[ ]	/* DeltaExceptionP1 */
PUSHW[ ]	/* 1 value pushed */
43
SRP0[ ]	/* SetRefPoint0 */
PUSHW[ ]	/* 1 value pushed */
46
MDRP[10000]	/* MoveDirectRelPt */
PUSHW[ ]	/* 1 value pushed */
46
MDAP[1]	/* MoveDirectAbsPt */
SVTCA[1]	/* SetFreedomAndProjectionVectorToAxis */
PUSHW[ ]	/* 3 values pushed */
10 93 3
CALL[ ]	/* CallFunction */
NPUSHW[ ]	/* 27 values pushed */
6 10 22 10 38 10 54 10 70 10 86 10 102 10 118 10 134 10 150 10 166 10 182 10 198 10 13
DELTAP1[ ]	/* DeltaExceptionP1 */
NPUSHW[ ]	/* 5 values pushed */
213 10 229 10 2
DELTAP1[ ]	/* DeltaExceptionP1 */
IUP[0]	/* InterpolateUntPts */
IUP[1]	/* InterpolateUntPts */";
};
width = 816;
}
);
note = W;
unicode = 87;
},
{
glyphname = X;
layers = (
{
layerId = m01;
shapes = (
{
closed = 1;
nodes = (
(619,411,o),
(583,396,o),
(551,381,o),
(543,377,qs),
(452,329,o),
(287,221,o),
(205,161,q),
(194,181,o),
(179,216,o),
(174,228,qs),
(163,254,o),
(154,298,o),
(149,309,qs),
(147,314,o),
(141,314,qs),
(136,314,o),
(125,307,o),
(124,300,qs),
(124,294,o),
(127,273,o),
(133,249,o),
(141,223,o),
(145,213,qs),
(150,200,o),
(169,161,o),
(179,142,q),
(173,137,o),
(163,130,o),
(160,127,qs),
(149,118,o),
(108,89,o),
(68,56,o),
(35,25,o),
(31,14,qs),
(28,4,o),
(39,-9,o),
(46,-9,qs),
(50,-9,o),
(53,-5,qs),
(61,6,o),
(96,39,o),
(139,73,o),
(181,104,o),
(195,114,q),
(197,111,o),
(200,105,o),
(202,103,qs),
(208,95,o),
(238,58,o),
(274,20,o),
(309,-9,o),
(319,-9,qs),
(327,-9,o),
(333,1,o),
(330,7,qs),
(324,17,o),
(287,46,o),
(264,74,qs),
(252,88,o),
(235,111,o),
(221,133,q),
(257,159,o),
(331,211,o),
(351,225,qs),
(425,279,o),
(582,369,o),
(664,410,qs),
(671,414,o),
(669,422,o),
(661,422,qs),
(652,422,o)
);
}
);
userData = {
assembly = "PUSHW[ ]	/* 1 value pushed */
0
CALL[ ]	/* CallFunction */
SVTCA[0]	/* SetFreedomAndProjectionVectorToAxis */
PUSHW[ ]	/* 1 value pushed */
0
MDAP[1]	/* MoveDirectAbsPt */
PUSHW[ ]	/* 1 value pushed */
0
RCVT[ ]	/* ReadCVT */
IF[ ]	/* If */
PUSHW[ ]	/* 1 value pushed */
18
MDAP[1]	/* MoveDirectAbsPt */
ELSE[ ]	/* Else */
PUSHW[ ]	/* 2 values pushed */
18 5
MIAP[0]	/* MoveIndirectAbsPt */
EIF[ ]	/* EndIf */
PUSHW[ ]	/* 1 value pushed */
0
RCVT[ ]	/* ReadCVT */
IF[ ]	/* If */
PUSHW[ ]	/* 1 value pushed */
31
MDAP[1]	/* MoveDirectAbsPt */
ELSE[ ]	/* Else */
PUSHW[ ]	/* 2 values pushed */
31 5
MIAP[0]	/* MoveIndirectAbsPt */
EIF[ ]	/* EndIf */
PUSHW[ ]	/* 1 value pushed */
0
RCVT[ ]	/* ReadCVT */
IF[ ]	/* If */
PUSHW[ ]	/* 1 value pushed */
33
MDAP[1]	/* MoveDirectAbsPt */
ELSE[ ]	/* Else */
PUSHW[ ]	/* 2 values pushed */
33 5
MIAP[0]	/* MoveIndirectAbsPt */
EIF[ ]	/* EndIf */
IUP[0]	/* InterpolateUntPts */
IUP[1]	/* InterpolateUntPts */";
};
width = 570;
}
);
note = X;
unicode = 88;
},
{
glyphname = Y;
layers = (
{
layerId = m01;
shapes = (
{
closed = 1;
nodes = (
(622,401,o),
(593,384,o),
(560,364,o),
(545,354,qs),
(528,342,o),
(475,308,o),
(417,272,o),
(360,237,o),
(338,225,qs),
(319,214,o),
(271,191,o),
(220,173,o),
(172,162,o),
(154,162,qs),
(112,163,o),
(74,209,o),
(76,246,qs),
(76,258,o),
(82,285,o),
(90,310,o),
(99,331,o),
(102,335,qs),
(107,341,o),
(113,345,o),
(113,350,qs),
(112,355,o),
(97,363,o),
(90,363,qs),
(83,363,o),
(80,358,qs),
(77,352,o),
(65,327,o),
(52,295,o),
(41,262,o),
(40,249,qs),
(38,223,o),
(51,176,o),
(71,157,qs),
(87,143,o),
(127,127,o),
(158,128,q),
(158,122,o),
(157,89,o),
(156,50,o),
(156,15,o),
(158,9,qs),
(162,0,o),
(172,0,qs),
(184,0,o),
(185,13,qs),
(185,19,o),
(190,45,o),
(196,79,o),
(200,116,o),
(200,133,q),
(224,138,o),
(285,161,o),
(350,193,o),
(414,229,o),
(442,247,qs),
(472,267,o),
(541,313,o),
(602,354,o),
(647,384,o),
(653,388,qs),
(663,394,o),
(676,397,o),
(676,402,qs),
(675,407,o),
(657,416,o),
(649,414,qs),
(645,413,o)
);
}
);
userData = {
assembly = "PUSHW[ ]	/* 1 value pushed */
0
CALL[ ]	/* CallFunction */
SVTCA[0]	/* SetFreedomAndProjectionVectorToAxis */
PUSHW[ ]	/* 1 value pushed */
41
MDAP[1]	/* MoveDirectAbsPt */
PUSHW[ ]	/* 1 value pushed */
43
MDAP[1]	/* MoveDirectAbsPt */
PUSHW[ ]	/* 1 value pushed */
0
RCVT[ ]	/* ReadCVT */
IF[ ]	/* If */
PUSHW[ ]	/* 1 value pushed */
23
MDAP[1]	/* MoveDirectAbsPt */
ELSE[ ]	/* Else */
PUSHW[ ]	/* 2 values pushed */
23 5
MIAP[0]	/* MoveIndirectAbsPt */
EIF[ ]	/* EndIf */
PUSHW[ ]	/* 3 values pushed */
57 30 3
CALL[ ]	/* CallFunction */
PUSHW[ ]	/* 1 value pushed */
30
SRP0[ ]	/* SetRefPoint0 */
PUSHW[ ]	/* 1 value pushed */
16
MDRP[10000]	/* MoveDirectRelPt */
PUSHW[ ]	/* 1 value pushed */
16
MDAP[1]	/* MoveDirectAbsPt */
SVTCA[1]	/* SetFreedomAndProjectionVectorToAxis */
PUSHW[ ]	/* 3 values pushed */
54 36 3
CALL[ ]	/* CallFunction */
PUSHW[ ]	/* 3 values pushed */
16 30 3
CALL[ ]	/* CallFunction */
NPUSHW[ ]	/* 27 values pushed */
6 16 22 16 38 16 54 16 70 16 86 16 102 16 118 16 134 16 150 16 166 16 182 16 198 16 13
DELTAP1[ ]	/* DeltaExceptionP1 */
NPUSHW[ ]	/* 5 values pushed */
213 16 229 16 2
DELTAP1[ ]	/* DeltaExceptionP1 */
NPUSHW[ ]	/* 27 values pushed */
6 54 22 54 38 54 54 54 70 54 86 54 102 54 118 54 134 54 150 54 166 54 182 54 198 54 13
DELTAP1[ ]	/* DeltaExceptionP1 */
NPUSHW[ ]	/* 5 values pushed */
213 54 229 54 2
DELTAP1[ ]	/* DeltaExceptionP1 */
PUSHW[ ]	/* 1 value pushed */
54
SRP0[ ]	/* SetRefPoint0 */
PUSHW[ ]	/* 1 value pushed */
46
MDRP[11100]	/* MoveDirectRelPt */
IUP[0]	/* InterpolateUntPts */
IUP[1]	/* InterpolateUntPts */";
};
width = 606;
}
);
note = Y;
unicode = (89,221);
},
{
glyphname = Z;
layers = (
{
layerId = m01;
shapes = (
{
closed = 1;
nodes = (
(440,400,o),
(413,408,o),
(380,411,o),
(363,411,qs),
(309,411,o),
(198,393,o),
(147,376,qs),
(128,370,o),
(90,357,o),
(61,344,o),
(42,331,o),
(40,325,qs),
(39,320,o),
(46,310,o),
(57,303,o),
(68,298,o),
(71,298,qs),
(76,298,o),
(79,302,o),
(81,308,o),
(83,314,o),
(87,317,qs),
(110,332,o),
(179,355,o),
(257,371,o),
(333,380,o),
(361,380,qs),
(382,380,o),
(415,375,o),
(422,370,qs),
(428,365,o),
(410,338,o),
(378,305,o),
(338,272,o),
(323,260,qs),
(307,247,o),
(245,201,o),
(213,177,q),
(193,179,o),
(159,188,o),
(149,191,qs),
(140,194,o),
(131,181,o),
(137,174,qs),
(141,169,o),
(160,155,o),
(177,150,q),
(160,138,o),
(132,117,o),
(123,109,qs),
(91,84,o),
(63,60,o),
(64,43,qs),
(66,22,o),
(111,0,o),
(141,0,qs),
(156,0,o),
(193,6,o),
(229,14,o),
(261,23,o),
(271,27,qs),
(281,31,o),
(313,43,o),
(346,57,o),
(375,71,o),
(381,76,qs),
(389,83,o),
(378,97,o),
(367,92,qs),
(360,90,o),
(330,79,o),
(293,66,o),
(251,52,o),
(231,46,qs),
(199,38,o),
(143,33,o),
(134,33,qs),
(124,33,o),
(103,40,o),
(105,48,qs),
(106,53,o),
(126,72,o),
(155,96,o),
(190,123,o),
(206,135,qs),
(209,138,o),
(217,144,q),
(224,144,ls),
(243,144,o),
(290,152,o),
(332,163,o),
(365,173,o),
(371,175,q),
(374,177,o),
(377,183,o),
(375,188,o),
(366,191,o),
(358,189,qs),
(344,186,o),
(288,179,o),
(262,177,q),
(290,197,o),
(344,236,o),
(360,249,qs),
(371,258,o),
(405,288,o),
(437,323,o),
(460,358,o),
(459,372,qs),
(458,385,o)
);
}
);
userData = {
assembly = "PUSHW[ ]	/* 1 value pushed */
0
CALL[ ]	/* CallFunction */
SVTCA[0]	/* SetFreedomAndProjectionVectorToAxis */
PUSHW[ ]	/* 1 value pushed */
92
MDAP[1]	/* MoveDirectAbsPt */
PUSHW[ ]	/* 1 value pushed */
0
RCVT[ ]	/* ReadCVT */
IF[ ]	/* If */
PUSHW[ ]	/* 1 value pushed */
8
MDAP[1]	/* MoveDirectAbsPt */
ELSE[ ]	/* Else */
PUSHW[ ]	/* 2 values pushed */
8 9
MIAP[0]	/* MoveIndirectAbsPt */
EIF[ ]	/* EndIf */
PUSHW[ ]	/* 1 value pushed */
0
RCVT[ ]	/* ReadCVT */
IF[ ]	/* If */
PUSHW[ ]	/* 1 value pushed */
16
MDAP[1]	/* MoveDirectAbsPt */
ELSE[ ]	/* Else */
PUSHW[ ]	/* 2 values pushed */
16 9
MIAP[0]	/* MoveIndirectAbsPt */
EIF[ ]	/* EndIf */
PUSHW[ ]	/* 1 value pushed */
0
RCVT[ ]	/* ReadCVT */
IF[ ]	/* If */
PUSHW[ ]	/* 1 value pushed */
65
MDAP[1]	/* MoveDirectAbsPt */
ELSE[ ]	/* Else */
PUSHW[ ]	/* 2 values pushed */
65 9
MIAP[0]	/* MoveIndirectAbsPt */
EIF[ ]	/* EndIf */
PUSHW[ ]	/* 1 value pushed */
0
RCVT[ ]	/* ReadCVT */
IF[ ]	/* If */
PUSHW[ ]	/* 1 value pushed */
71
MDAP[1]	/* MoveDirectAbsPt */
ELSE[ ]	/* Else */
PUSHW[ ]	/* 2 values pushed */
71 9
MIAP[0]	/* MoveIndirectAbsPt */
EIF[ ]	/* EndIf */
PUSHW[ ]	/* 1 value pushed */
0
RCVT[ ]	/* ReadCVT */
IF[ ]	/* If */
PUSHW[ ]	/* 1 value pushed */
53
MDAP[1]	/* MoveDirectAbsPt */
ELSE[ ]	/* Else */
PUSHW[ ]	/* 2 values pushed */
53 5
MIAP[0]	/* MoveIndirectAbsPt */
EIF[ ]	/* EndIf */
PUSHW[ ]	/* 3 values pushed */
105 82 3
CALL[ ]	/* CallFunction */
PUSHW[ ]	/* 1 value pushed */
71
SRP0[ ]	/* SetRefPoint0 */
PUSHW[ ]	/* 1 value pushed */
21
MDRP[11100]	/* MoveDirectRelPt */
PUSHW[ ]	/* 1 value pushed */
53
SRP0[ ]	/* SetRefPoint0 */
PUSHW[ ]	/* 1 value pushed */
32
MDRP[11100]	/* MoveDirectRelPt */
NPUSHW[ ]	/* 27 values pushed */
7 32 23 32 39 32 55 32 71 32 87 32 103 32 119 32 135 32 151 32 167 32 183 32 199 32 13
DELTAP1[ ]	/* DeltaExceptionP1 */
NPUSHW[ ]	/* 5 values pushed */
214 32 230 32 2
DELTAP1[ ]	/* DeltaExceptionP1 */
PUSHW[ ]	/* 3 values pushed */
62 71 21
SRP1[ ]	/* SetRefPoint1 */
SRP2[ ]	/* SetRefPoint2 */
IP[ ]	/* InterpolatePts */
SVTCA[1]	/* SetFreedomAndProjectionVectorToAxis */
PUSHW[ ]	/* 3 values pushed */
29 56 3
CALL[ ]	/* CallFunction */
NPUSHW[ ]	/* 27 values pushed */
6 29 22 29 38 29 54 29 70 29 86 29 102 29 118 29 134 29 150 29 166 29 182 29 198 29 13
DELTAP1[ ]	/* DeltaExceptionP1 */
NPUSHW[ ]	/* 5 values pushed */
213 29 229 29 2
DELTAP1[ ]	/* DeltaExceptionP1 */
IUP[0]	/* InterpolateUntPts */
IUP[1]	/* InterpolateUntPts */";
};
width = 489;
}
);
note = Z;
unicode = 90;
},
{
glyphname = bracketleft;
layers = (
{
layerId = m01;
shapes = (
{
closed = 1;
nodes = (
(305,374,o),
(312,385,o),
(310,398,o),
(300,409,o),
(290,409,qs),
(265,408,o),
(205,406,o),
(152,401,o),
(114,392,o),
(110,383,qs),
(107,376,o),
(112,365,o),
(121,352,o),
(128,335,o),
(126,322,qs),
(122,293,o),
(94,216,o),
(64,140,o),
(40,76,o),
(40,60,qs),
(40,35,o),
(83,-10,o),
(121,-10,qs),
(141,-10,o),
(169,-2,o),
(193,9,o),
(213,22,o),
(223,28,qs),
(231,33,o),
(229,47,o),
(217,44,qs),
(199,39,o),
(154,25,o),
(129,25,qs),
(123,25,ls),
(101,27,o),
(73,51,o),
(77,76,qs),
(80,96,o),
(101,154,o),
(127,220,o),
(152,285,o),
(159,310,qs),
(163,326,o),
(163,346,o),
(160,358,o),
(159,365,o),
(162,366,qs),
(168,369,o),
(205,373,o),
(247,375,o),
(288,375,o),
(298,374,qs),
(299,374,ls)
);
}
);
userData = {
assembly = "PUSHW[ ]	/* 1 value pushed */
0
CALL[ ]	/* CallFunction */
SVTCA[0]	/* SetFreedomAndProjectionVectorToAxis */
PUSHW[ ]	/* 1 value pushed */
0
MDAP[1]	/* MoveDirectAbsPt */
PUSHW[ ]	/* 1 value pushed */
0
RCVT[ ]	/* ReadCVT */
IF[ ]	/* If */
PUSHW[ ]	/* 1 value pushed */
30
MDAP[1]	/* MoveDirectAbsPt */
ELSE[ ]	/* Else */
PUSHW[ ]	/* 2 values pushed */
30 5
MIAP[0]	/* MoveIndirectAbsPt */
EIF[ ]	/* EndIf */
PUSHW[ ]	/* 1 value pushed */
18
MDRP[11100]	/* MoveDirectRelPt */
IUP[0]	/* InterpolateUntPts */
IUP[1]	/* InterpolateUntPts */";
};
width = 326;
}
);
note = bracketleft;
unicode = 91;
},
{
glyphname = backslash;
layers = (
{
layerId = m01;
shapes = (
{
closed = 1;
nodes = (
(185,139,o),
(217,92,o),
(241,56,o),
(247,46,qs),
(251,38,o),
(259,38,qs),
(265,38,o),
(274,48,o),
(272,56,qs),
(270,66,o),
(252,99,o),
(228,137,o),
(204,174,o),
(195,187,qs),
(177,214,o),
(141,272,o),
(110,323,o),
(88,362,o),
(83,371,qs),
(79,380,o),
(69,380,qs),
(60,380,o),
(47,367,o),
(51,358,qs),
(56,349,o),
(74,315,o),
(97,276,o),
(121,236,o),
(130,222,qs),
(149,194,o)
);
}
);
userData = {
assembly = "PUSHW[ ]	/* 1 value pushed */
0
CALL[ ]	/* CallFunction */
SVTCA[0]	/* SetFreedomAndProjectionVectorToAxis */
PUSHW[ ]	/* 3 values pushed */
8 10 3
CALL[ ]	/* CallFunction */
IUP[0]	/* InterpolateUntPts */
IUP[1]	/* InterpolateUntPts */";
};
width = 323;
}
);
note = backslash;
unicode = 92;
},
{
glyphname = bracketright;
layers = (
{
layerId = m01;
shapes = (
{
closed = 1;
nodes = (
(108,357,o),
(137,357,qs),
(160,357,o),
(200,363,o),
(208,363,qs),
(214,363,o),
(212,360,qs),
(211,359,o),
(200,344,o),
(188,315,o),
(178,271,o),
(178,240,qs),
(178,212,o),
(189,145,o),
(200,85,o),
(207,40,o),
(204,34,qs),
(201,29,o),
(190,29,qs),
(173,29,o),
(118,43,o),
(99,44,qs),
(87,44,o),
(66,42,o),
(51,36,o),
(46,28,o),
(51,22,qs),
(56,16,o),
(91,11,o),
(110,7,qs),
(135,2,o),
(176,-8,o),
(190,-9,qs),
(215,-10,o),
(241,8,o),
(243,25,qs),
(245,39,o),
(237,86,o),
(226,140,o),
(216,196,o),
(215,220,qs),
(213,257,o),
(221,301,o),
(234,331,o),
(250,352,o),
(256,365,qs),
(261,375,o),
(263,394,o),
(259,400,qs),
(255,406,o),
(243,406,qs),
(231,406,o),
(208,400,qs),
(175,391,o),
(141,391,qs),
(93,391,o),
(64,409,qs),
(50,419,o),
(35,419,qs),
(21,419,o),
(10,403,o),
(24,390,qs),
(47,370,o)
);
}
);
userData = {
assembly = "PUSHW[ ]	/* 1 value pushed */
0
CALL[ ]	/* CallFunction */
SVTCA[0]	/* SetFreedomAndProjectionVectorToAxis */
PUSHW[ ]	/* 1 value pushed */
40
MDAP[1]	/* MoveDirectAbsPt */
PUSHW[ ]	/* 1 value pushed */
0
RCVT[ ]	/* ReadCVT */
IF[ ]	/* If */
PUSHW[ ]	/* 1 value pushed */
29
MDAP[1]	/* MoveDirectAbsPt */
ELSE[ ]	/* Else */
PUSHW[ ]	/* 2 values pushed */
29 5
MIAP[0]	/* MoveIndirectAbsPt */
EIF[ ]	/* EndIf */
PUSHW[ ]	/* 3 values pushed */
3 11 3
CALL[ ]	/* CallFunction */
PUSHW[ ]	/* 1 value pushed */
11
SRP0[ ]	/* SetRefPoint0 */
PUSHW[ ]	/* 1 value pushed */
7
MDRP[11100]	/* MoveDirectRelPt */
PUSHW[ ]	/* 1 value pushed */
29
SRP0[ ]	/* SetRefPoint0 */
PUSHW[ ]	/* 1 value pushed */
43
MDRP[11100]	/* MoveDirectRelPt */
NPUSHW[ ]	/* 27 values pushed */
7 43 23 43 39 43 55 43 71 43 87 43 103 43 119 43 135 43 151 43 167 43 183 43 199 43 13
DELTAP1[ ]	/* DeltaExceptionP1 */
NPUSHW[ ]	/* 5 values pushed */
214 43 230 43 2
DELTAP1[ ]	/* DeltaExceptionP1 */
PUSHW[ ]	/* 1 value pushed */
7
SRP0[ ]	/* SetRefPoint0 */
PUSHW[ ]	/* 1 value pushed */
60
MDRP[11100]	/* MoveDirectRelPt */
PUSHW[ ]	/* 1 value pushed */
57
MDRP[10000]	/* MoveDirectRelPt */
PUSHW[ ]	/* 1 value pushed */
57
MDAP[1]	/* MoveDirectAbsPt */
SVTCA[1]	/* SetFreedomAndProjectionVectorToAxis */
PUSHW[ ]	/* 3 values pushed */
55 50 3
CALL[ ]	/* CallFunction */
PUSHW[ ]	/* 1 value pushed */
55
SRP0[ ]	/* SetRefPoint0 */
PUSHW[ ]	/* 1 value pushed */
21
MDRP[10000]	/* MoveDirectRelPt */
PUSHW[ ]	/* 1 value pushed */
21
MDAP[1]	/* MoveDirectAbsPt */
NPUSHW[ ]	/* 5 values pushed */
218 50 234 50 2
DELTAP1[ ]	/* DeltaExceptionP1 */
NPUSHW[ ]	/* 27 values pushed */
9 50 25 50 41 50 57 50 73 50 89 50 105 50 121 50 137 50 153 50 169 50 185 50 201 50 13
DELTAP1[ ]	/* DeltaExceptionP1 */
PUSHW[ ]	/* 3 values pushed */
57 50 55
SRP1[ ]	/* SetRefPoint1 */
SRP2[ ]	/* SetRefPoint2 */
IP[ ]	/* InterpolatePts */
IUP[0]	/* InterpolateUntPts */
IUP[1]	/* InterpolateUntPts */";
};
width = 302;
}
);
note = bracketright;
unicode = 93;
},
{
glyphname = asciicircum;
layers = (
{
layerId = m01;
shapes = (
{
closed = 1;
nodes = (
(62,260,o),
(69,260,qs),
(75,260,o),
(79,264,qs),
(90,274,o),
(119,306,o),
(146,337,o),
(168,359,o),
(172,359,q),
(178,348,o),
(194,319,o),
(215,294,o),
(239,276,o),
(253,276,qs),
(255,276,o),
(259,277,o),
(261,277,qs),
(272,279,o),
(268,295,o),
(258,300,qs),
(248,305,o),
(230,326,o),
(215,351,o),
(201,378,o),
(194,388,qs),
(187,398,o),
(174,398,qs),
(164,398,o),
(155,389,qs),
(129,361,o),
(89,314,o),
(62,291,qs),
(57,286,o),
(48,279,o),
(50,274,qs),
(52,269,o)
);
}
);
userData = {
assembly = "PUSHW[ ]	/* 1 value pushed */
0
CALL[ ]	/* CallFunction */
SVTCA[0]	/* SetFreedomAndProjectionVectorToAxis */
PUSHW[ ]	/* 3 values pushed */
8 26 3
CALL[ ]	/* CallFunction */
IUP[0]	/* InterpolateUntPts */
IUP[1]	/* InterpolateUntPts */";
};
width = 320;
}
);
note = asciicircum;
unicode = 94;
},
{
glyphname = underscore;
layers = (
{
layerId = m01;
shapes = (
{
closed = 1;
nodes = (
(274,35,o),
(254,34,qs),
(242,34,o),
(207,31,o),
(171,29,o),
(140,28,o),
(131,29,qs),
(112,31,o),
(80,38,o),
(65,40,q),
(53,40,o),
(48,20,o),
(59,12,qs),
(70,4,o),
(117,-3,o),
(137,-4,qs),
(145,-4,o),
(174,-2,o),
(208,1,o),
(241,5,o),
(254,8,qs),
(277,13,o)
);
}
);
userData = {
assembly = "PUSHW[ ]	/* 1 value pushed */
0
CALL[ ]	/* CallFunction */
SVTCA[0]	/* SetFreedomAndProjectionVectorToAxis */
PUSHW[ ]	/* 1 value pushed */
11
MDAP[1]	/* MoveDirectAbsPt */
PUSHW[ ]	/* 1 value pushed */
19
MDAP[1]	/* MoveDirectAbsPt */
PUSHW[ ]	/* 1 value pushed */
14
MDAP[1]	/* MoveDirectAbsPt */
PUSHW[ ]	/* 1 value pushed */
0
RCVT[ ]	/* ReadCVT */
IF[ ]	/* If */
PUSHW[ ]	/* 1 value pushed */
5
MDAP[1]	/* MoveDirectAbsPt */
ELSE[ ]	/* Else */
PUSHW[ ]	/* 2 values pushed */
5 5
MIAP[0]	/* MoveIndirectAbsPt */
EIF[ ]	/* EndIf */
IUP[0]	/* InterpolateUntPts */
IUP[1]	/* InterpolateUntPts */";
};
width = 325;
}
);
note = underscore;
unicode = 95;
},
{
glyphname = grave;
layers = (
{
layerId = m01;
shapes = (
{
closed = 1;
nodes = (
(108,213,qs),
(116,215,o),
(114,228,o),
(102,233,qs),
(93,238,o),
(80,257,o),
(74,268,qs),
(70,275,o),
(61,275,qs),
(56,275,o),
(48,269,o),
(50,263,qs),
(53,254,o),
(62,237,o),
(68,231,qs),
(88,209,o)
);
}
);
userData = {
assembly = "PUSHW[ ]	/* 1 value pushed */
0
CALL[ ]	/* CallFunction */
SVTCA[0]	/* SetFreedomAndProjectionVectorToAxis */
PUSHW[ ]	/* 1 value pushed */
6
MDAP[1]	/* MoveDirectAbsPt */
PUSHW[ ]	/* 1 value pushed */
8
MDAP[1]	/* MoveDirectAbsPt */
IUP[0]	/* InterpolateUntPts */
IUP[1]	/* InterpolateUntPts */";
};
width = 165;
}
);
note = grave;
unicode = 96;
},
{
glyphname = a;
layers = (
{
layerId = m01;
shapes = (
{
closed = 1;
nodes = (
(127,56,o),
(108,44,o),
(85,35,o),
(75,35,qs),
(62,36,o),
(54,51,o),
(56,62,qs),
(58,74,o),
(79,100,o),
(106,123,o),
(136,137,o),
(148,137,qs),
(159,137,o),
(174,132,o),
(179,129,q),
(175,124,o),
(167,112,o),
(164,105,qs),
(159,94,o),
(147,72,o),
(145,70,qs),
(142,67,o)
);
},
{
closed = 1;
nodes = (
(210,27,o),
(192,27,qs),
(183,27,o),
(183,47,o),
(185,55,qs),
(186,59,o),
(198,71,o),
(205,79,qs),
(223,97,o),
(230,110,qs),
(235,119,o),
(240,139,o),
(237,146,qs),
(232,158,o),
(218,158,qs),
(212,158,o),
(207,155,qs),
(203,153,o),
(196,146,q),
(187,154,o),
(161,165,o),
(144,165,qs),
(118,165,o),
(67,135,o),
(50,116,qs),
(42,107,o),
(20,71,o),
(22,48,qs),
(24,31,o),
(52,0,o),
(72,0,qs),
(84,1,o),
(109,10,o),
(120,15,qs),
(132,22,o),
(144,30,q),
(150,21,o),
(158,14,qs),
(164,8,o),
(181,-2,o),
(190,-2,qs),
(201,-2,o),
(223,9,o),
(242,22,o),
(255,35,o),
(258,38,qs),
(263,43,o),
(260,54,o),
(252,54,qs),
(250,54,o),
(244,52,qs),
(234,48,o)
);
}
);
userData = {
assembly = "PUSHW[ ]	/* 1 value pushed */
0
CALL[ ]	/* CallFunction */
SVTCA[0]	/* SetFreedomAndProjectionVectorToAxis */
PUSHW[ ]	/* 1 value pushed */
22
MDAP[1]	/* MoveDirectAbsPt */
PUSHW[ ]	/* 1 value pushed */
24
MDAP[1]	/* MoveDirectAbsPt */
PUSHW[ ]	/* 1 value pushed */
45
MDAP[1]	/* MoveDirectAbsPt */
PUSHW[ ]	/* 1 value pushed */
68
MDAP[1]	/* MoveDirectAbsPt */
PUSHW[ ]	/* 1 value pushed */
0
RCVT[ ]	/* ReadCVT */
IF[ ]	/* If */
PUSHW[ ]	/* 1 value pushed */
32
MDAP[1]	/* MoveDirectAbsPt */
ELSE[ ]	/* Else */
PUSHW[ ]	/* 2 values pushed */
32 5
MIAP[0]	/* MoveIndirectAbsPt */
EIF[ ]	/* EndIf */
PUSHW[ ]	/* 1 value pushed */
0
RCVT[ ]	/* ReadCVT */
IF[ ]	/* If */
PUSHW[ ]	/* 1 value pushed */
42
MDAP[1]	/* MoveDirectAbsPt */
ELSE[ ]	/* Else */
PUSHW[ ]	/* 2 values pushed */
42 5
MIAP[0]	/* MoveIndirectAbsPt */
EIF[ ]	/* EndIf */
PUSHW[ ]	/* 3 values pushed */
51 9 3
CALL[ ]	/* CallFunction */
PUSHW[ ]	/* 1 value pushed */
42
SRP0[ ]	/* SetRefPoint0 */
PUSHW[ ]	/* 1 value pushed */
17
MDRP[11100]	/* MoveDirectRelPt */
NPUSHW[ ]	/* 27 values pushed */
7 17 23 17 39 17 55 17 71 17 87 17 103 17 119 17 135 17 151 17 167 17 183 17 199 17 13
DELTAP1[ ]	/* DeltaExceptionP1 */
NPUSHW[ ]	/* 5 values pushed */
214 17 230 17 2
DELTAP1[ ]	/* DeltaExceptionP1 */
PUSHW[ ]	/* 1 value pushed */
51
SRP0[ ]	/* SetRefPoint0 */
PUSHW[ ]	/* 1 value pushed */
58
MDRP[10000]	/* MoveDirectRelPt */
PUSHW[ ]	/* 1 value pushed */
58
MDAP[1]	/* MoveDirectAbsPt */
PUSHW[ ]	/* 1 value pushed */
32
SRP0[ ]	/* SetRefPoint0 */
PUSHW[ ]	/* 1 value pushed */
71
MDRP[11100]	/* MoveDirectRelPt */
NPUSHW[ ]	/* 27 values pushed */
7 71 23 71 39 71 55 71 71 71 87 71 103 71 119 71 135 71 151 71 167 71 183 71 199 71 13
DELTAP1[ ]	/* DeltaExceptionP1 */
NPUSHW[ ]	/* 5 values pushed */
214 71 230 71 2
DELTAP1[ ]	/* DeltaExceptionP1 */
IUP[0]	/* InterpolateUntPts */
IUP[1]	/* InterpolateUntPts */";
};
width = 276;
}
);
note = a;
unicode = (97,224,225,226,227,229);
},
{
glyphname = b;
layers = (
{
layerId = m01;
shapes = (
{
closed = 1;
nodes = (
(119,21,o),
(102,21,qs),
(86,21,o),
(63,37,o),
(60,48,qs),
(59,56,o),
(82,69,o),
(91,82,qs),
(96,90,o),
(119,108,o),
(146,125,o),
(172,136,o),
(181,136,qs),
(200,135,o),
(209,113,o),
(207,100,qs),
(205,86,o),
(183,48,o),
(166,38,qs),
(151,30,o)
);
},
{
closed = 1;
nodes = (
(132,152,o),
(110,138,o),
(96,128,o),
(94,128,qs),
(89,128,o),
(101,148,o),
(107,162,qs),
(110,168,o),
(124,195,o),
(141,225,o),
(159,254,o),
(166,264,qs),
(179,283,o),
(201,309,o),
(204,320,qs),
(206,326,o),
(196,338,o),
(189,338,qs),
(184,338,o),
(179,333,qs),
(171,325,o),
(151,292,o),
(144,281,qs),
(137,269,o),
(110,221,o),
(97,198,qs),
(89,184,o),
(64,139,o),
(51,114,qs),
(43,98,o),
(29,70,o),
(28,55,qs),
(27,44,o),
(42,22,o),
(67,5,o),
(97,-7,o),
(111,-7,qs),
(114,-7,ls),
(140,-7,o),
(186,12,o),
(219,46,o),
(239,92,o),
(240,118,qs),
(240,132,o),
(227,151,o),
(207,162,o),
(183,166,o),
(171,165,qs),
(158,164,o)
);
}
);
userData = {
assembly = "PUSHW[ ]	/* 1 value pushed */
0
CALL[ ]	/* CallFunction */
SVTCA[0]	/* SetFreedomAndProjectionVectorToAxis */
PUSHW[ ]	/* 1 value pushed */
48
MDAP[1]	/* MoveDirectAbsPt */
PUSHW[ ]	/* 1 value pushed */
50
MDAP[1]	/* MoveDirectAbsPt */
PUSHW[ ]	/* 1 value pushed */
0
RCVT[ ]	/* ReadCVT */
IF[ ]	/* If */
PUSHW[ ]	/* 1 value pushed */
30
MDAP[1]	/* MoveDirectAbsPt */
ELSE[ ]	/* Else */
PUSHW[ ]	/* 2 values pushed */
30 5
MIAP[0]	/* MoveIndirectAbsPt */
EIF[ ]	/* EndIf */
PUSHW[ ]	/* 3 values pushed */
20 6 3
CALL[ ]	/* CallFunction */
PUSHW[ ]	/* 1 value pushed */
30
SRP0[ ]	/* SetRefPoint0 */
PUSHW[ ]	/* 1 value pushed */
17
MDRP[11100]	/* MoveDirectRelPt */
NPUSHW[ ]	/* 27 values pushed */
7 17 23 17 39 17 55 17 71 17 87 17 103 17 119 17 135 17 151 17 167 17 183 17 199 17 13
DELTAP1[ ]	/* DeltaExceptionP1 */
NPUSHW[ ]	/* 5 values pushed */
214 17 230 17 2
DELTAP1[ ]	/* DeltaExceptionP1 */
SVTCA[1]	/* SetFreedomAndProjectionVectorToAxis */
PUSHW[ ]	/* 3 values pushed */
25 3 3
CALL[ ]	/* CallFunction */
NPUSHW[ ]	/* 5 values pushed */
218 3 234 3 2
DELTAP1[ ]	/* DeltaExceptionP1 */
NPUSHW[ ]	/* 27 values pushed */
9 3 25 3 41 3 57 3 73 3 89 3 105 3 121 3 137 3 153 3 169 3 185 3 201 3 13
DELTAP1[ ]	/* DeltaExceptionP1 */
IUP[0]	/* InterpolateUntPts */
IUP[1]	/* InterpolateUntPts */";
};
width = 265;
}
);
note = b;
unicode = 98;
},
{
glyphname = c;
layers = (
{
layerId = m01;
shapes = (
{
closed = 1;
nodes = (
(173,124,qs),
(179,124,o),
(186,132,o),
(182,140,qs),
(173,159,o),
(138,159,q),
(129,160,o),
(86,146,o),
(66,129,qs),
(27,96,o),
(25,64,qs),
(25,55,o),
(31,33,o),
(47,13,o),
(74,-1,o),
(95,-1,qs),
(115,-1,o),
(157,13,o),
(194,32,o),
(222,49,o),
(227,52,qs),
(231,54,o),
(238,61,o),
(238,66,o),
(231,68,o),
(221,66,qs),
(210,63,o),
(179,51,o),
(145,40,o),
(111,31,o),
(97,31,qs),
(90,31,ls),
(75,33,o),
(59,58,o),
(61,72,qs),
(62,79,o),
(73,94,o),
(88,109,o),
(103,120,o),
(108,123,qs),
(116,127,o),
(138,132,o),
(147,132,qs),
(156,132,o),
(160,129,qs),
(167,124,o)
);
}
);
userData = {
assembly = "PUSHW[ ]	/* 1 value pushed */
0
CALL[ ]	/* CallFunction */
SVTCA[0]	/* SetFreedomAndProjectionVectorToAxis */
PUSHW[ ]	/* 1 value pushed */
0
RCVT[ ]	/* ReadCVT */
IF[ ]	/* If */
PUSHW[ ]	/* 1 value pushed */
29
MDAP[1]	/* MoveDirectAbsPt */
ELSE[ ]	/* Else */
PUSHW[ ]	/* 2 values pushed */
29 5
MIAP[0]	/* MoveIndirectAbsPt */
EIF[ ]	/* EndIf */
PUSHW[ ]	/* 3 values pushed */
39 2 3
CALL[ ]	/* CallFunction */
PUSHW[ ]	/* 1 value pushed */
29
SRP0[ ]	/* SetRefPoint0 */
PUSHW[ ]	/* 1 value pushed */
13
MDRP[11100]	/* MoveDirectRelPt */
SVTCA[1]	/* SetFreedomAndProjectionVectorToAxis */
PUSHW[ ]	/* 3 values pushed */
10 34 3
CALL[ ]	/* CallFunction */
NPUSHW[ ]	/* 27 values pushed */
6 10 22 10 38 10 54 10 70 10 86 10 102 10 118 10 134 10 150 10 166 10 182 10 198 10 13
DELTAP1[ ]	/* DeltaExceptionP1 */
NPUSHW[ ]	/* 5 values pushed */
213 10 229 10 2
DELTAP1[ ]	/* DeltaExceptionP1 */
IUP[0]	/* InterpolateUntPts */
IUP[1]	/* InterpolateUntPts */";
};
width = 258;
}
);
note = c;
unicode = 99;
},
{
glyphname = d;
layers = (
{
layerId = m01;
shapes = (
{
closed = 1;
nodes = (
(89,20,o),
(74,22,qs),
(65,22,o),
(64,49,o),
(69,63,qs),
(74,78,o),
(95,104,o),
(124,123,o),
(156,134,o),
(172,134,qs),
(181,134,o),
(197,131,o),
(203,129,q),
(189,113,o),
(155,72,o),
(138,58,qs),
(122,44,o)
);
},
{
closed = 1;
nodes = (
(329,352,o),
(314,325,o),
(299,295,o),
(292,282,qs),
(286,272,o),
(267,236,o),
(246,196,o),
(225,159,o),
(217,148,q),
(211,153,o),
(191,161,o),
(173,161,qs),
(149,161,o),
(101,145,o),
(61,117,o),
(34,76,o),
(31,51,qs),
(30,44,o),
(32,25,o),
(40,7,o),
(57,-6,o),
(70,-6,qs),
(75,-6,ls),
(92,-4,o),
(129,18,o),
(161,45,o),
(183,67,o),
(184,69,q),
(183,63,o),
(183,46,o),
(185,28,o),
(190,13,o),
(195,10,qs),
(205,5,o),
(218,5,qs),
(228,5,o),
(232,7,qs),
(237,9,o),
(241,18,o),
(234,20,qs),
(222,24,o),
(218,37,o),
(218,49,qs),
(219,77,o),
(240,123,o),
(257,152,qs),
(265,164,o),
(302,226,o),
(341,296,o),
(373,358,o),
(375,369,qs),
(377,377,o),
(368,385,o),
(361,385,qs),
(355,385,o),
(347,379,qs),
(342,374,o)
);
}
);
userData = {
assembly = "PUSHW[ ]	/* 1 value pushed */
0
CALL[ ]	/* CallFunction */
SVTCA[0]	/* SetFreedomAndProjectionVectorToAxis */
PUSHW[ ]	/* 1 value pushed */
36
MDAP[1]	/* MoveDirectAbsPt */
PUSHW[ ]	/* 1 value pushed */
38
MDAP[1]	/* MoveDirectAbsPt */
PUSHW[ ]	/* 1 value pushed */
40
MDAP[1]	/* MoveDirectAbsPt */
PUSHW[ ]	/* 1 value pushed */
0
RCVT[ ]	/* ReadCVT */
IF[ ]	/* If */
PUSHW[ ]	/* 1 value pushed */
50
MDAP[1]	/* MoveDirectAbsPt */
ELSE[ ]	/* Else */
PUSHW[ ]	/* 2 values pushed */
50 5
MIAP[0]	/* MoveIndirectAbsPt */
EIF[ ]	/* EndIf */
PUSHW[ ]	/* 3 values pushed */
61 6 3
CALL[ ]	/* CallFunction */
PUSHW[ ]	/* 1 value pushed */
50
SRP0[ ]	/* SetRefPoint0 */
PUSHW[ ]	/* 1 value pushed */
14
MDRP[11100]	/* MoveDirectRelPt */
NPUSHW[ ]	/* 27 values pushed */
7 14 23 14 39 14 55 14 71 14 87 14 103 14 119 14 135 14 151 14 167 14 183 14 199 14 13
DELTAP1[ ]	/* DeltaExceptionP1 */
NPUSHW[ ]	/* 5 values pushed */
214 14 230 14 2
DELTAP1[ ]	/* DeltaExceptionP1 */
IUP[0]	/* InterpolateUntPts */
IUP[1]	/* InterpolateUntPts */";
};
width = 282;
}
);
note = d;
unicode = 100;
},
{
glyphname = e;
lastChange = "2025-12-25 14:43:37 +0000";
layers = (
{
layerId = m01;
shapes = (
{
closed = 1;
nodes = (
(156,114,o),
(136,104,qs),
(119,96,o),
(88,92,o),
(74,92,q),
(82,109,o),
(91,116,qs),
(94,118,o),
(107,127,o),
(123,135,o),
(141,140,o),
(149,137,qs),
(169,130,o)
);
},
{
closed = 1;
nodes = (
(134,30,o),
(111,27,qs),
(89,25,o),
(69,38,o),
(65,47,qs),
(63,53,o),
(65,63,q),
(70,61,o),
(78,61,o),
(83,61,qs),
(100,61,o),
(133,71,o),
(142,76,qs),
(148,79,o),
(168,91,o),
(186,105,o),
(199,121,o),
(199,128,q),
(197,142,o),
(161,169,o),
(138,169,qs),
(119,169,o),
(82,149,o),
(69,136,qs),
(54,122,o),
(26,82,o),
(25,60,qs),
(24,31,o),
(58,-5,o),
(90,-5,qs),
(110,-5,o),
(166,13,o),
(183,23,qs),
(197,31,o),
(197,50,o),
(186,48,qs),
(175,46,o)
);
}
);
userData = {
assembly = "PUSHW[ ]	/* 1 value pushed */
0
CALL[ ]	/* CallFunction */
SVTCA[0]	/* SetFreedomAndProjectionVectorToAxis */
PUSHW[ ]	/* 1 value pushed */
28
MDAP[1]	/* MoveDirectAbsPt */
PUSHW[ ]	/* 1 value pushed */
13
MDAP[1]	/* MoveDirectAbsPt */
PUSHW[ ]	/* 1 value pushed */
44
MDAP[1]	/* MoveDirectAbsPt */
PUSHW[ ]	/* 1 value pushed */
0
RCVT[ ]	/* ReadCVT */
IF[ ]	/* If */
PUSHW[ ]	/* 1 value pushed */
19
MDAP[1]	/* MoveDirectAbsPt */
ELSE[ ]	/* Else */
PUSHW[ ]	/* 2 values pushed */
19 5
MIAP[0]	/* MoveIndirectAbsPt */
EIF[ ]	/* EndIf */
PUSHW[ ]	/* 3 values pushed */
7 39 3
CALL[ ]	/* CallFunction */
IUP[0]	/* InterpolateUntPts */
IUP[1]	/* InterpolateUntPts */";
};
width = 224;
}
);
note = e;
unicode = (101,232,233,234,235);
},
{
glyphname = f;
lastChange = "2025-12-25 15:26:47 +0000";
layers = (
{
layerId = m01;
shapes = (
{
closed = 1;
nodes = (
(185,370,o),
(158,329,o),
(138,284,o),
(132,268,qs),
(110,214,o),
(86,101,o),
(80,44,q),
(61,43,o),
(20,42,o),
(12,37,qs),
(4,31,o),
(7,13,o),
(22,10,qs),
(33,8,o),
(56,10,o),
(78,11,q),
(77,-6,o),
(76,-43,o),
(75,-75,o),
(73,-99,o),
(71,-105,qs),
(69,-112,o),
(74,-119,o),
(78,-119,qs),
(87,-119,o),
(93,-111,qs),
(99,-103,o),
(109,-60,o),
(109,-43,qs),
(109,-35,o),
(110,-7,o),
(111,11,q),
(124,12,o),
(171,22,o),
(220,35,o),
(262,52,o),
(270,61,qs),
(276,67,o),
(263,67,qs),
(257,67,o),
(239,65,o),
(221,62,o),
(205,58,o),
(201,57,qs),
(180,52,o),
(136,47,o),
(114,45,q),
(117,76,o),
(129,146,o),
(146,215,o),
(169,280,o),
(184,307,q),
(187,315,o),
(200,337,o),
(217,356,o),
(237,369,o),
(247,369,qs),
(261,369,o),
(273,348,o),
(274,338,qs),
(274,332,o),
(271,317,o),
(269,305,o),
(269,296,o),
(273,294,qs),
(282,291,o),
(294,301,o),
(301,317,o),
(303,336,o),
(303,340,qs),
(303,352,o),
(292,373,o),
(274,389,o),
(252,399,o),
(241,399,qs),
(219,399,o)
);
}
);
userData = {
assembly = "PUSHW[ ]	/* 1 value pushed */
0
CALL[ ]	/* CallFunction */
SVTCA[0]	/* SetFreedomAndProjectionVectorToAxis */
PUSHW[ ]	/* 1 value pushed */
43
MDAP[1]	/* MoveDirectAbsPt */
PUSHW[ ]	/* 1 value pushed */
59
MDAP[1]	/* MoveDirectAbsPt */
PUSHW[ ]	/* 1 value pushed */
62
MDAP[1]	/* MoveDirectAbsPt */
PUSHW[ ]	/* 3 values pushed */
0 18 3
CALL[ ]	/* CallFunction */
PUSHW[ ]	/* 1 value pushed */
43
SRP0[ ]	/* SetRefPoint0 */
PUSHW[ ]	/* 1 value pushed */
28
MDRP[11100]	/* MoveDirectRelPt */
PUSHW[ ]	/* 1 value pushed */
68
MDRP[10000]	/* MoveDirectRelPt */
PUSHW[ ]	/* 1 value pushed */
68
MDAP[1]	/* MoveDirectAbsPt */
SVTCA[1]	/* SetFreedomAndProjectionVectorToAxis */
PUSHW[ ]	/* 3 values pushed */
5 15 3
CALL[ ]	/* CallFunction */
NPUSHW[ ]	/* 5 values pushed */
218 15 234 15 2
DELTAP1[ ]	/* DeltaExceptionP1 */
NPUSHW[ ]	/* 27 values pushed */
9 15 25 15 41 15 57 15 73 15 89 15 105 15 121 15 137 15 153 15 169 15 185 15 201 15 13
DELTAP1[ ]	/* DeltaExceptionP1 */
IUP[0]	/* InterpolateUntPts */
IUP[1]	/* InterpolateUntPts */";
};
width = 273;
}
);
note = f;
unicode = 102;
},
{
glyphname = g;
layers = (
{
layerId = m01;
shapes = (
{
closed = 1;
nodes = (
(63,41,o),
(61,53,qs),
(60,62,o),
(67,78,o),
(80,92,o),
(96,104,o),
(103,108,qs),
(114,116,o),
(143,129,o),
(163,128,qs),
(179,128,o),
(184,122,q),
(181,110,o),
(178,101,q),
(177,91,o),
(175,72,q),
(168,66,o),
(144,53,o),
(120,41,o),
(97,33,o),
(89,33,qs),
(77,33,o)
);
},
{
closed = 1;
nodes = (
(220,101,qs),
(218,99,o),
(212,95,o),
(208,93,q),
(208,96,o),
(210,100,qs),
(213,109,o),
(231,133,o),
(236,135,qs),
(247,141,o),
(244,126,qs),
(242,118,o)
);
},
{
closed = 1;
nodes = (
(210,153,o),
(203,146,q),
(202,146,l),
(195,152,o),
(175,157,o),
(163,157,qs),
(144,157,o),
(98,141,o),
(56,113,o),
(27,77,o),
(26,57,qs),
(24,35,o),
(58,5,o),
(81,4,qs),
(85,4,ls),
(96,4,o),
(118,11,o),
(138,20,o),
(153,29,o),
(157,31,qs),
(160,33,o),
(169,39,o),
(175,43,q),
(175,18,o),
(187,-30,o),
(196,-53,qs),
(202,-68,o),
(209,-93,o),
(208,-103,qs),
(207,-111,o),
(191,-121,o),
(167,-129,o),
(137,-132,o),
(123,-132,qs),
(83,-132,o),
(46,-118,qs),
(29,-112,o),
(7,-97,o),
(-3,-94,qs),
(-12,-90,o),
(-17,-101,o),
(-8,-110,qs),
(-3,-115,o),
(36,-141,o),
(54,-149,qs),
(70,-155,o),
(112,-164,o),
(141,-164,qs),
(146,-164,o),
(157,-163,o),
(162,-163,qs),
(187,-162,o),
(219,-148,o),
(237,-129,o),
(244,-106,o),
(243,-97,qs),
(242,-90,o),
(232,-61,o),
(219,-27,o),
(208,9,o),
(206,23,qs),
(205,29,o),
(205,52,o),
(206,65,q),
(213,70,o),
(233,85,o),
(251,102,o),
(266,121,o),
(267,128,qs),
(269,140,o),
(258,165,o),
(236,163,qs),
(226,163,o)
);
}
);
userData = {
assembly = "PUSHW[ ]	/* 1 value pushed */
0
CALL[ ]	/* CallFunction */
SVTCA[0]	/* SetFreedomAndProjectionVectorToAxis */
PUSHW[ ]	/* 3 values pushed */
72 55 3
CALL[ ]	/* CallFunction */
PUSHW[ ]	/* 3 values pushed */
100 11 3
CALL[ ]	/* CallFunction */
PUSHW[ ]	/* 3 values pushed */
0 91 3
CALL[ ]	/* CallFunction */
PUSHW[ ]	/* 1 value pushed */
100
SRP0[ ]	/* SetRefPoint0 */
PUSHW[ ]	/* 1 value pushed */
34
MDRP[10000]	/* MoveDirectRelPt */
PUSHW[ ]	/* 1 value pushed */
34
MDAP[1]	/* MoveDirectAbsPt */
PUSHW[ ]	/* 1 value pushed */
55
SRP0[ ]	/* SetRefPoint0 */
PUSHW[ ]	/* 1 value pushed */
58
MDRP[10000]	/* MoveDirectRelPt */
PUSHW[ ]	/* 1 value pushed */
58
MDAP[1]	/* MoveDirectAbsPt */
SVTCA[1]	/* SetFreedomAndProjectionVectorToAxis */
PUSHW[ ]	/* 3 values pushed */
42 5 3
CALL[ ]	/* CallFunction */
NPUSHW[ ]	/* 5 values pushed */
218 5 234 5 2
DELTAP1[ ]	/* DeltaExceptionP1 */
NPUSHW[ ]	/* 27 values pushed */
9 5 25 5 41 5 57 5 73 5 89 5 105 5 121 5 137 5 153 5 169 5 185 5 201 5 13
DELTAP1[ ]	/* DeltaExceptionP1 */
PUSHW[ ]	/* 1 value pushed */
5
SRP0[ ]	/* SetRefPoint0 */
PUSHW[ ]	/* 1 value pushed */
7
MDRP[10000]	/* MoveDirectRelPt */
PUSHW[ ]	/* 1 value pushed */
7
MDAP[1]	/* MoveDirectAbsPt */
PUSHW[ ]	/* 1 value pushed */
42
SRP0[ ]	/* SetRefPoint0 */
PUSHW[ ]	/* 1 value pushed */
29
MDRP[10000]	/* MoveDirectRelPt */
PUSHW[ ]	/* 1 value pushed */
29
MDAP[1]	/* MoveDirectAbsPt */
PUSHW[ ]	/* 1 value pushed */
42
SRP0[ ]	/* SetRefPoint0 */
PUSHW[ ]	/* 1 value pushed */
45
MDRP[10000]	/* MoveDirectRelPt */
PUSHW[ ]	/* 1 value pushed */
42
SRP0[ ]	/* SetRefPoint0 */
PUSHW[ ]	/* 1 value pushed */
50
MDRP[11100]	/* MoveDirectRelPt */
PUSHW[ ]	/* 1 value pushed */
42
SRP0[ ]	/* SetRefPoint0 */
PUSHW[ ]	/* 1 value pushed */
77
MDRP[10000]	/* MoveDirectRelPt */
PUSHW[ ]	/* 1 value pushed */
77
MDAP[1]	/* MoveDirectAbsPt */
PUSHW[ ]	/* 1 value pushed */
5
SRP0[ ]	/* SetRefPoint0 */
PUSHW[ ]	/* 1 value pushed */
83
MDRP[10000]	/* MoveDirectRelPt */
IUP[0]	/* InterpolateUntPts */
IUP[1]	/* InterpolateUntPts */";
};
width = 290;
}
);
note = g;
unicode = 103;
},
{
glyphname = h;
layers = (
{
layerId = m01;
shapes = (
{
closed = 1;
nodes = (
(59,176,o),
(50,141,o),
(40,102,o),
(36,84,qs),
(31,64,o),
(23,28,o),
(25,22,qs),
(30,6,o),
(43,6,qs),
(50,6,o),
(59,13,o),
(61,18,qs),
(66,36,o),
(92,74,o),
(128,104,o),
(169,123,o),
(189,123,qs),
(203,123,o),
(215,105,o),
(206,82,qs),
(203,73,o),
(191,50,o),
(181,29,o),
(175,11,o),
(177,7,qs),
(181,-1,o),
(194,-6,o),
(199,-1,qs),
(202,3,o),
(216,29,o),
(231,60,o),
(244,88,o),
(245,93,qs),
(246,99,o),
(248,119,o),
(240,139,o),
(218,155,o),
(194,156,qs),
(174,158,o),
(133,143,o),
(116,133,qs),
(97,121,o),
(79,106,q),
(82,123,o),
(86,142,qs),
(90,158,o),
(98,199,o),
(103,220,qs),
(109,242,o),
(120,285,o),
(128,319,o),
(133,342,o),
(133,345,qs),
(131,358,o),
(122,358,qs),
(114,358,o),
(106,343,qs),
(102,333,o),
(91,299,o),
(81,260,o),
(71,223,o),
(68,209,qs),
(67,203,o)
);
}
);
userData = {
assembly = "PUSHW[ ]	/* 1 value pushed */
0
CALL[ ]	/* CallFunction */
SVTCA[0]	/* SetFreedomAndProjectionVectorToAxis */
PUSHW[ ]	/* 1 value pushed */
50
MDAP[1]	/* MoveDirectAbsPt */
PUSHW[ ]	/* 1 value pushed */
55
MDAP[1]	/* MoveDirectAbsPt */
PUSHW[ ]	/* 1 value pushed */
45
MDAP[1]	/* MoveDirectAbsPt */
PUSHW[ ]	/* 3 values pushed */
19 50 45
SRP1[ ]	/* SetRefPoint1 */
SRP2[ ]	/* SetRefPoint2 */
IP[ ]	/* InterpolatePts */
IUP[0]	/* InterpolateUntPts */
IUP[1]	/* InterpolateUntPts */";
};
width = 273;
}
);
note = h;
unicode = 104;
},
{
glyphname = k;
layers = (
{
layerId = m01;
shapes = (
{
closed = 1;
nodes = (
(256,149,o),
(248,144,qs),
(227,132,o),
(169,90,o),
(146,75,qs),
(118,57,o),
(80,35,o),
(69,35,qs),
(56,35,o),
(56,53,qs),
(56,60,o),
(68,88,o),
(87,123,o),
(109,160,o),
(118,176,qs),
(133,202,o),
(168,255,o),
(199,300,o),
(222,334,o),
(225,341,qs),
(229,349,o),
(219,361,o),
(213,361,qs),
(207,361,o),
(202,355,qs),
(199,351,o),
(174,316,o),
(138,263,o),
(97,199,o),
(77,164,qs),
(54,125,o),
(23,57,o),
(22,42,qs),
(21,27,o),
(41,1,o),
(63,0,qs),
(65,0,ls),
(91,0,o),
(136,27,o),
(154,40,q),
(159,45,o),
(174,55,q),
(180,42,o),
(197,23,o),
(207,13,q),
(214,8,o),
(236,-1,o),
(245,-2,qs),
(248,-2,o),
(256,2,o),
(262,7,o),
(263,12,o),
(260,13,qs),
(244,21,o),
(210,59,o),
(203,76,q),
(218,87,o),
(251,110,o),
(278,130,o),
(299,146,o),
(302,150,qs),
(310,158,o),
(299,173,o),
(290,170,qs),
(282,167,o)
);
}
);
userData = {
assembly = "PUSHW[ ]	/* 1 value pushed */
0
CALL[ ]	/* CallFunction */
SVTCA[0]	/* SetFreedomAndProjectionVectorToAxis */
PUSHW[ ]	/* 1 value pushed */
39
MDAP[1]	/* MoveDirectAbsPt */
PUSHW[ ]	/* 1 value pushed */
41
MDAP[1]	/* MoveDirectAbsPt */
PUSHW[ ]	/* 1 value pushed */
0
RCVT[ ]	/* ReadCVT */
IF[ ]	/* If */
PUSHW[ ]	/* 1 value pushed */
16
MDAP[1]	/* MoveDirectAbsPt */
ELSE[ ]	/* Else */
PUSHW[ ]	/* 2 values pushed */
16 5
MIAP[0]	/* MoveIndirectAbsPt */
EIF[ ]	/* EndIf */
PUSHW[ ]	/* 1 value pushed */
0
RCVT[ ]	/* ReadCVT */
IF[ ]	/* If */
PUSHW[ ]	/* 1 value pushed */
27
MDAP[1]	/* MoveDirectAbsPt */
ELSE[ ]	/* Else */
PUSHW[ ]	/* 2 values pushed */
27 5
MIAP[0]	/* MoveIndirectAbsPt */
EIF[ ]	/* EndIf */
PUSHW[ ]	/* 1 value pushed */
56
MDRP[11100]	/* MoveDirectRelPt */
NPUSHW[ ]	/* 27 values pushed */
7 56 23 56 39 56 55 56 71 56 87 56 103 56 119 56 135 56 151 56 167 56 183 56 199 56 13
DELTAP1[ ]	/* DeltaExceptionP1 */
NPUSHW[ ]	/* 5 values pushed */
214 56 230 56 2
DELTAP1[ ]	/* DeltaExceptionP1 */
SVTCA[1]	/* SetFreedomAndProjectionVectorToAxis */
PUSHW[ ]	/* 3 values pushed */
54 31 3
CALL[ ]	/* CallFunction */
NPUSHW[ ]	/* 27 values pushed */
6 54 22 54 38 54 54 54 70 54 86 54 102 54 118 54 134 54 150 54 166 54 182 54 198 54 13
DELTAP1[ ]	/* DeltaExceptionP1 */
NPUSHW[ ]	/* 5 values pushed */
213 54 229 54 2
DELTAP1[ ]	/* DeltaExceptionP1 */
IUP[0]	/* InterpolateUntPts */
IUP[1]	/* InterpolateUntPts */";
};
width = 307;
}
);
note = k;
unicode = 107;
},
{
glyphname = l;
layers = (
{
layerId = m01;
shapes = (
{
closed = 1;
nodes = (
(99,231,o),
(87,202,o),
(75,174,o),
(72,167,qs),
(64,146,o),
(51,112,o),
(49,107,qs),
(44,93,o),
(27,49,o),
(26,26,qs),
(26,20,o),
(31,6,o),
(38,-6,o),
(47,-14,o),
(51,-14,qs),
(59,-13,o),
(64,-6,o),
(59,5,qs),
(56,13,o),
(56,37,o),
(58,45,qs),
(60,56,o),
(79,104,o),
(100,155,o),
(118,197,o),
(120,202,qs),
(122,207,o),
(135,239,o),
(141,252,qs),
(154,280,o),
(173,323,o),
(178,329,qs),
(181,334,o),
(186,342,o),
(186,347,q),
(187,351,o),
(183,358,o),
(181,360,q),
(179,361,o),
(175,363,o),
(173,363,qs),
(164,363,o),
(155,350,qs),
(151,345,o),
(139,321,o),
(126,292,o),
(113,265,o),
(109,256,qs),
(108,254,o)
);
}
);
userData = {
assembly = "PUSHW[ ]	/* 1 value pushed */
0
CALL[ ]	/* CallFunction */
SVTCA[0]	/* SetFreedomAndProjectionVectorToAxis */
PUSHW[ ]	/* 1 value pushed */
7
MDAP[1]	/* MoveDirectAbsPt */
PUSHW[ ]	/* 1 value pushed */
10
MDAP[1]	/* MoveDirectAbsPt */
PUSHW[ ]	/* 1 value pushed */
0
RCVT[ ]	/* ReadCVT */
IF[ ]	/* If */
PUSHW[ ]	/* 1 value pushed */
33
MDAP[1]	/* MoveDirectAbsPt */
ELSE[ ]	/* Else */
PUSHW[ ]	/* 2 values pushed */
33 5
MIAP[0]	/* MoveIndirectAbsPt */
EIF[ ]	/* EndIf */
IUP[0]	/* InterpolateUntPts */
IUP[1]	/* InterpolateUntPts */";
};
width = 116;
}
);
note = l;
unicode = 108;
},
{
glyphname = m;
layers = (
{
layerId = m01;
shapes = (
{
closed = 1;
nodes = (
(37,73,o),
(30,51,o),
(29,44,qs),
(26,29,o),
(37,9,o),
(48,7,qs),
(63,5,o),
(92,34,o),
(112,52,qs),
(119,58,o),
(142,76,o),
(165,92,o),
(184,102,o),
(188,100,qs),
(195,97,o),
(176,63,o),
(166,43,qs),
(162,35,o),
(157,18,o),
(159,9,qs),
(160,6,o),
(171,2,o),
(185,2,o),
(198,5,o),
(201,9,qs),
(212,25,o),
(239,53,o),
(253,64,qs),
(262,72,o),
(287,89,o),
(311,102,o),
(333,109,o),
(339,107,qs),
(346,105,o),
(339,83,o),
(326,56,o),
(312,28,o),
(312,20,qs),
(311,10,o),
(321,0,o),
(328,-1,qs),
(336,-1,o),
(344,13,o),
(347,21,qs),
(355,41,o),
(375,76,o),
(378,97,qs),
(379,104,o),
(378,121,o),
(370,134,o),
(354,143,o),
(339,142,qs),
(321,141,o),
(285,124,o),
(255,103,o),
(233,85,o),
(228,83,qs),
(225,82,o),
(226,90,o),
(227,102,o),
(227,115,o),
(224,119,qs),
(221,124,o),
(208,133,o),
(197,134,qs),
(180,135,o),
(140,113,o),
(105,85,o),
(79,61,o),
(75,60,qs),
(72,59,o),
(76,72,o),
(84,90,o),
(90,109,o),
(88,113,q),
(86,121,o),
(64,126,o),
(59,119,qs),
(56,114,o),
(47,93,o),
(42,82,q),
(42,82,l)
);
}
);
userData = {
assembly = "PUSHW[ ]	/* 1 value pushed */
0
CALL[ ]	/* CallFunction */
SVTCA[0]	/* SetFreedomAndProjectionVectorToAxis */
PUSHW[ ]	/* 1 value pushed */
16
MDAP[1]	/* MoveDirectAbsPt */
PUSHW[ ]	/* 1 value pushed */
0
RCVT[ ]	/* ReadCVT */
IF[ ]	/* If */
PUSHW[ ]	/* 1 value pushed */
40
MDAP[1]	/* MoveDirectAbsPt */
ELSE[ ]	/* Else */
PUSHW[ ]	/* 2 values pushed */
40 5
MIAP[0]	/* MoveIndirectAbsPt */
EIF[ ]	/* EndIf */
PUSHW[ ]	/* 3 values pushed */
29 6 3
CALL[ ]	/* CallFunction */
PUSHW[ ]	/* 1 value pushed */
40
SRP0[ ]	/* SetRefPoint0 */
PUSHW[ ]	/* 1 value pushed */
75
MDRP[11100]	/* MoveDirectRelPt */
NPUSHW[ ]	/* 27 values pushed */
7 75 23 75 39 75 55 75 71 75 87 75 103 75 119 75 135 75 151 75 167 75 183 75 199 75 13
DELTAP1[ ]	/* DeltaExceptionP1 */
NPUSHW[ ]	/* 5 values pushed */
214 75 230 75 2
DELTAP1[ ]	/* DeltaExceptionP1 */
IUP[0]	/* InterpolateUntPts */
IUP[1]	/* InterpolateUntPts */";
};
width = 403;
}
);
note = m;
unicode = 109;
},
{
glyphname = n;
layers = (
{
layerId = m01;
shapes = (
{
closed = 1;
nodes = (
(34,49,o),
(28,33,o),
(25,23,o),
(25,18,qs),
(27,3,o),
(40,3,qs),
(46,3,o),
(51,8,qs),
(59,16,o),
(71,36,o),
(79,44,qs),
(85,50,o),
(110,77,o),
(143,105,o),
(179,126,o),
(195,127,qs),
(211,129,o),
(221,105,o),
(219,88,qs),
(218,77,o),
(212,59,o),
(208,48,qs),
(204,37,o),
(196,22,o),
(198,12,qs),
(201,2,o),
(211,2,qs),
(219,2,o),
(222,8,qs),
(226,16,o),
(236,41,o),
(245,68,o),
(251,94,o),
(250,103,qs),
(250,108,o),
(246,126,o),
(234,144,o),
(214,157,o),
(198,157,qs),
(175,157,o),
(124,123,o),
(105,106,qs),
(93,95,o),
(79,79,o),
(77,79,q),
(77,79,l),
(77,83,o),
(82,98,o),
(90,115,o),
(96,129,o),
(97,132,qs),
(99,140,o),
(90,149,o),
(84,149,qs),
(76,149,o),
(70,142,qs),
(62,133,o),
(56,107,o),
(50,90,qs),
(44,72,o)
);
}
);
userData = {
assembly = "PUSHW[ ]	/* 1 value pushed */
0
CALL[ ]	/* CallFunction */
SVTCA[0]	/* SetFreedomAndProjectionVectorToAxis */
PUSHW[ ]	/* 3 values pushed */
5 3 3
CALL[ ]	/* CallFunction */
PUSHW[ ]	/* 3 values pushed */
20 43 3
CALL[ ]	/* CallFunction */
SVTCA[1]	/* SetFreedomAndProjectionVectorToAxis */
PUSHW[ ]	/* 3 values pushed */
25 40 3
CALL[ ]	/* CallFunction */
NPUSHW[ ]	/* 5 values pushed */
218 40 234 40 2
DELTAP1[ ]	/* DeltaExceptionP1 */
NPUSHW[ ]	/* 27 values pushed */
9 40 25 40 41 40 57 40 73 40 89 40 105 40 121 40 137 40 153 40 169 40 185 40 201 40 13
DELTAP1[ ]	/* DeltaExceptionP1 */
IUP[0]	/* InterpolateUntPts */
IUP[1]	/* InterpolateUntPts */";
};
width = 276;
}
);
note = n;
unicode = (110,241);
},
{
glyphname = o;
layers = (
{
layerId = m01;
shapes = (
{
closed = 1;
nodes = (
(195,65,o),
(151,40,o),
(107,24,o),
(97,24,qs),
(83,24,o),
(58,42,o),
(58,57,qs),
(58,67,o),
(78,92,o),
(108,115,o),
(139,131,o),
(149,131,q),
(154,130,o),
(158,126,o),
(161,122,o),
(167,120,o),
(173,120,qs),
(178,121,o),
(180,131,o),
(178,137,q),
(180,136,o),
(183,136,qs),
(197,135,o),
(228,114,o),
(228,105,qs),
(229,93,o)
);
},
{
closed = 1;
nodes = (
(170,169,o),
(156,166,qs),
(152,165,o),
(150,161,q),
(143,162,o),
(137,161,qs),
(124,157,o),
(87,134,o),
(70,123,qs),
(64,119,o),
(47,105,o),
(30,87,o),
(19,66,o),
(20,55,qs),
(24,25,o),
(64,-4,o),
(106,-2,qs),
(121,-1,o),
(149,8,o),
(173,20,o),
(193,33,o),
(200,37,qs),
(209,42,o),
(230,59,o),
(248,78,o),
(260,97,o),
(260,104,qs),
(260,111,o),
(253,127,o),
(241,141,o),
(226,152,o),
(220,155,qs),
(208,160,o)
);
}
);
userData = {
assembly = "PUSHW[ ]	/* 1 value pushed */
0
CALL[ ]	/* CallFunction */
SVTCA[0]	/* SetFreedomAndProjectionVectorToAxis */
PUSHW[ ]	/* 1 value pushed */
21
MDAP[1]	/* MoveDirectAbsPt */
PUSHW[ ]	/* 1 value pushed */
0
RCVT[ ]	/* ReadCVT */
IF[ ]	/* If */
PUSHW[ ]	/* 1 value pushed */
41
MDAP[1]	/* MoveDirectAbsPt */
ELSE[ ]	/* Else */
PUSHW[ ]	/* 2 values pushed */
41 5
MIAP[0]	/* MoveIndirectAbsPt */
EIF[ ]	/* EndIf */
PUSHW[ ]	/* 3 values pushed */
54 13 3
CALL[ ]	/* CallFunction */
PUSHW[ ]	/* 1 value pushed */
13
SRP0[ ]	/* SetRefPoint0 */
PUSHW[ ]	/* 1 value pushed */
3
MDRP[10000]	/* MoveDirectRelPt */
PUSHW[ ]	/* 1 value pushed */
3
MDAP[1]	/* MoveDirectAbsPt */
PUSHW[ ]	/* 3 values pushed */
5 13 54
SRP1[ ]	/* SetRefPoint1 */
SRP2[ ]	/* SetRefPoint2 */
IP[ ]	/* InterpolatePts */
PUSHW[ ]	/* 1 value pushed */
54
SRP0[ ]	/* SetRefPoint0 */
PUSHW[ ]	/* 1 value pushed */
56
MDRP[10000]	/* MoveDirectRelPt */
PUSHW[ ]	/* 1 value pushed */
56
MDAP[1]	/* MoveDirectAbsPt */
SVTCA[1]	/* SetFreedomAndProjectionVectorToAxis */
PUSHW[ ]	/* 3 values pushed */
31 0 3
CALL[ ]	/* CallFunction */
NPUSHW[ ]	/* 5 values pushed */
218 0 234 0 2
DELTAP1[ ]	/* DeltaExceptionP1 */
NPUSHW[ ]	/* 27 values pushed */
9 0 25 0 41 0 57 0 73 0 89 0 105 0 121 0 137 0 153 0 169 0 185 0 201 0 13
DELTAP1[ ]	/* DeltaExceptionP1 */
IUP[0]	/* InterpolateUntPts */
IUP[1]	/* InterpolateUntPts */";
};
width = 280;
}
);
note = o;
unicode = (111,242,243,244,245);
},
{
glyphname = p;
layers = (
{
layerId = m01;
shapes = (
{
closed = 1;
nodes = (
(83,40,o),
(81,35,qs),
(79,32,o),
(81,24,o),
(83,22,q),
(94,6,o),
(134,-7,o),
(152,-7,qs),
(173,-7,o),
(214,13,o),
(248,44,o),
(269,85,o),
(270,106,qs),
(270,115,o),
(262,137,o),
(244,156,o),
(214,168,o),
(191,168,qs),
(170,168,o),
(129,141,o),
(112,124,qs),
(93,105,o),
(76,81,q),
(77,86,o),
(78,91,qs),
(79,96,o),
(80,105,o),
(81,107,qs),
(84,115,o),
(93,135,o),
(87,140,q),
(83,142,o),
(80,142,qs),
(69,142,o),
(59,123,qs),
(56,117,o),
(51,93,o),
(46,66,o),
(42,40,o),
(40,33,q),
(40,30,o),
(29,10,o),
(16,-20,o),
(2,-55,o),
(-1,-72,qs),
(-12,-120,o),
(-4,-139,qs),
(-1,-147,o),
(9,-147,qs),
(19,-147,o),
(23,-140,qs),
(27,-134,o),
(39,-87,o),
(51,-34,o),
(62,14,o),
(65,22,qs),
(69,34,o),
(92,67,o),
(121,100,o),
(150,127,o),
(161,132,qs),
(170,136,o),
(190,142,o),
(201,142,qs),
(215,142,o),
(229,134,qs),
(238,128,o),
(242,104,o),
(234,77,o),
(217,51,o),
(206,43,qs),
(192,32,o),
(162,20,o),
(140,20,qs),
(126,20,o),
(104,28,o),
(94,39,qs),
(92,42,o)
);
}
);
userData = {
assembly = "PUSHW[ ]	/* 1 value pushed */
0
CALL[ ]	/* CallFunction */
SVTCA[0]	/* SetFreedomAndProjectionVectorToAxis */
PUSHW[ ]	/* 1 value pushed */
0
RCVT[ ]	/* ReadCVT */
IF[ ]	/* If */
PUSHW[ ]	/* 1 value pushed */
69
MDAP[1]	/* MoveDirectAbsPt */
ELSE[ ]	/* Else */
PUSHW[ ]	/* 2 values pushed */
69 5
MIAP[0]	/* MoveIndirectAbsPt */
EIF[ ]	/* EndIf */
PUSHW[ ]	/* 3 values pushed */
59 13 3
CALL[ ]	/* CallFunction */
PUSHW[ ]	/* 1 value pushed */
69
SRP0[ ]	/* SetRefPoint0 */
PUSHW[ ]	/* 1 value pushed */
3
MDRP[11100]	/* MoveDirectRelPt */
NPUSHW[ ]	/* 27 values pushed */
7 3 23 3 39 3 55 3 71 3 87 3 103 3 119 3 135 3 151 3 167 3 183 3 199 3 13
DELTAP1[ ]	/* DeltaExceptionP1 */
NPUSHW[ ]	/* 5 values pushed */
214 3 230 3 2
DELTAP1[ ]	/* DeltaExceptionP1 */
PUSHW[ ]	/* 1 value pushed */
13
SRP0[ ]	/* SetRefPoint0 */
PUSHW[ ]	/* 1 value pushed */
11
MDRP[11100]	/* MoveDirectRelPt */
PUSHW[ ]	/* 1 value pushed */
13
SRP0[ ]	/* SetRefPoint0 */
PUSHW[ ]	/* 1 value pushed */
44
MDRP[10000]	/* MoveDirectRelPt */
IUP[0]	/* InterpolateUntPts */
IUP[1]	/* InterpolateUntPts */";
};
width = 290;
}
);
note = p;
unicode = 112;
},
{
glyphname = q;
lastChange = "2025-12-25 14:54:59 +0000";
layers = (
{
layerId = m01;
shapes = (
{
closed = 1;
nodes = (
(183,113,o),
(181,120,qs),
(180,125,o),
(172,138,o),
(158,151,o),
(137,161,o),
(124,161,qs),
(108,161,o),
(74,144,o),
(46,118,o),
(28,85,o),
(27,68,qs),
(25,47,o),
(49,14,o),
(67,11,qs),
(72,10,o),
(81,9,o),
(85,9,qs),
(102,9,o),
(114,14,q),
(120,15,o),
(125,18,q),
(120,11,o),
(103,-20,o),
(84,-57,o),
(63,-97,o),
(55,-113,qs),
(38,-149,o),
(22,-200,o),
(20,-224,qs),
(19,-235,o),
(22,-254,o),
(24,-257,q),
(26,-263,o),
(42,-263,o),
(45,-258,qs),
(47,-253,o),
(45,-232,o),
(48,-220,qs),
(51,-204,o),
(64,-170,o),
(78,-138,o),
(93,-110,o),
(98,-99,qs),
(103,-88,o),
(127,-47,o),
(151,-5,o),
(172,28,o),
(174,32,qs),
(184,48,o),
(199,66,qs),
(203,71,o),
(216,87,o),
(230,104,o),
(242,119,o),
(245,123,qs),
(250,131,o),
(258,150,o),
(255,158,q),
(252,163,o),
(237,173,o),
(229,168,qs),
(221,163,o),
(204,131,o),
(189,114,qs),
(175,99,o),
(151,64,o),
(145,61,qs),
(130,52,o),
(99,37,o),
(86,37,qs),
(79,37,o),
(73,40,qs),
(62,45,o),
(62,69,o),
(64,79,qs),
(67,89,o),
(80,109,o),
(98,124,o),
(119,133,o),
(130,133,qs),
(141,133,o),
(152,126,o),
(154,124,qs),
(158,119,o),
(163,108,o),
(169,106,qs),
(176,104,o)
);
}
);
userData = {
assembly = "PUSHW[ ]	/* 1 value pushed */
0
CALL[ ]	/* CallFunction */
SVTCA[0]	/* SetFreedomAndProjectionVectorToAxis */
PUSHW[ ]	/* 3 values pushed */
80 6 3
CALL[ ]	/* CallFunction */
PUSHW[ ]	/* 3 values pushed */
16 69 3
CALL[ ]	/* CallFunction */
PUSHW[ ]	/* 1 value pushed */
69
SRP0[ ]	/* SetRefPoint0 */
PUSHW[ ]	/* 1 value pushed */
72
MDRP[10000]	/* MoveDirectRelPt */
PUSHW[ ]	/* 1 value pushed */
72
MDAP[1]	/* MoveDirectAbsPt */
SVTCA[1]	/* SetFreedomAndProjectionVectorToAxis */
PUSHW[ ]	/* 3 values pushed */
51 57 3
CALL[ ]	/* CallFunction */
NPUSHW[ ]	/* 27 values pushed */
6 51 22 51 38 51 54 51 70 51 86 51 102 51 118 51 134 51 150 51 166 51 182 51 198 51 13
DELTAP1[ ]	/* DeltaExceptionP1 */
NPUSHW[ ]	/* 5 values pushed */
213 51 229 51 2
DELTAP1[ ]	/* DeltaExceptionP1 */
PUSHW[ ]	/* 1 value pushed */
57
SRP0[ ]	/* SetRefPoint0 */
PUSHW[ ]	/* 1 value pushed */
75
MDRP[10000]	/* MoveDirectRelPt */
PUSHW[ ]	/* 1 value pushed */
75
MDAP[1]	/* MoveDirectAbsPt */
IUP[0]	/* InterpolateUntPts */
IUP[1]	/* InterpolateUntPts */";
};
width = 265;
}
);
note = q;
unicode = 113;
},
{
glyphname = r;
lastChange = "2025-12-25 14:55:25 +0000";
layers = (
{
layerId = m01;
shapes = (
{
closed = 1;
nodes = (
(23,36,o),
(25,25,qs),
(27,15,o),
(39,3,o),
(46,3,qs),
(48,3,o),
(54,5,qs),
(60,8,o),
(62,27,o),
(65,49,qs),
(68,66,o),
(102,102,o),
(128,113,qs),
(148,122,o),
(187,130,o),
(190,136,qs),
(200,151,o),
(169,151,qs),
(154,151,o),
(128,147,o),
(114,142,qs),
(103,138,o),
(90,131,o),
(88,131,qs),
(87,131,o),
(87,132,q),
(86,134,o),
(88,143,o),
(86,148,qs),
(85,151,o),
(76,158,o),
(71,158,qs),
(63,158,o),
(57,148,q),
(52,136,o),
(44,103,o),
(38,83,qs),
(31,64,o)
);
}
);
userData = {
assembly = "PUSHW[ ]	/* 1 value pushed */
0
CALL[ ]	/* CallFunction */
SVTCA[0]	/* SetFreedomAndProjectionVectorToAxis */
PUSHW[ ]	/* 1 value pushed */
3
MDAP[1]	/* MoveDirectAbsPt */
PUSHW[ ]	/* 1 value pushed */
5
MDAP[1]	/* MoveDirectAbsPt */
PUSHW[ ]	/* 1 value pushed */
8
MDAP[1]	/* MoveDirectAbsPt */
PUSHW[ ]	/* 1 value pushed */
19
MDAP[1]	/* MoveDirectAbsPt */
IUP[0]	/* InterpolateUntPts */
IUP[1]	/* InterpolateUntPts */";
};
width = 197;
}
);
note = r;
unicode = 114;
},
{
glyphname = s;
layers = (
{
layerId = m01;
shapes = (
{
closed = 1;
nodes = (
(140,177,o),
(133,177,qs),
(110,177,o),
(67,154,o),
(64,128,qs),
(62,114,o),
(80,82,o),
(93,71,qs),
(101,64,o),
(117,54,o),
(130,48,o),
(137,44,o),
(135,42,q),
(131,40,o),
(105,30,o),
(87,25,qs),
(68,20,o),
(33,20,o),
(28,19,qs),
(20,17,o),
(10,6,o),
(21,1,qs),
(35,-6,o),
(61,-6,qs),
(75,-6,o),
(110,0,o),
(143,12,o),
(170,32,o),
(174,45,qs),
(176,50,o),
(155,66,o),
(125,80,qs),
(111,87,o),
(90,112,o),
(93,122,qs),
(98,138,o),
(125,154,o),
(142,154,qs),
(146,154,o),
(154,153,o),
(159,152,qs),
(165,150,o),
(170,155,o),
(170,162,o),
(165,171,o),
(161,172,qs),
(154,175,o)
);
}
);
userData = {
assembly = "PUSHW[ ]	/* 1 value pushed */
0
CALL[ ]	/* CallFunction */
SVTCA[0]	/* SetFreedomAndProjectionVectorToAxis */
PUSHW[ ]	/* 1 value pushed */
0
RCVT[ ]	/* ReadCVT */
IF[ ]	/* If */
PUSHW[ ]	/* 1 value pushed */
0
MDAP[1]	/* MoveDirectAbsPt */
ELSE[ ]	/* Else */
PUSHW[ ]	/* 2 values pushed */
0 9
MIAP[0]	/* MoveIndirectAbsPt */
EIF[ ]	/* EndIf */
PUSHW[ ]	/* 1 value pushed */
0
RCVT[ ]	/* ReadCVT */
IF[ ]	/* If */
PUSHW[ ]	/* 1 value pushed */
44
MDAP[1]	/* MoveDirectAbsPt */
ELSE[ ]	/* Else */
PUSHW[ ]	/* 2 values pushed */
44 9
MIAP[0]	/* MoveIndirectAbsPt */
EIF[ ]	/* EndIf */
PUSHW[ ]	/* 1 value pushed */
0
RCVT[ ]	/* ReadCVT */
IF[ ]	/* If */
PUSHW[ ]	/* 1 value pushed */
22
MDAP[1]	/* MoveDirectAbsPt */
ELSE[ ]	/* Else */
PUSHW[ ]	/* 2 values pushed */
22 5
MIAP[0]	/* MoveIndirectAbsPt */
EIF[ ]	/* EndIf */
PUSHW[ ]	/* 1 value pushed */
0
RCVT[ ]	/* ReadCVT */
IF[ ]	/* If */
PUSHW[ ]	/* 1 value pushed */
24
MDAP[1]	/* MoveDirectAbsPt */
ELSE[ ]	/* Else */
PUSHW[ ]	/* 2 values pushed */
24 5
MIAP[0]	/* MoveIndirectAbsPt */
EIF[ ]	/* EndIf */
PUSHW[ ]	/* 1 value pushed */
0
SRP0[ ]	/* SetRefPoint0 */
PUSHW[ ]	/* 1 value pushed */
5
MDRP[11100]	/* MoveDirectRelPt */
NPUSHW[ ]	/* 5 values pushed */
217 5 233 5 2
DELTAP1[ ]	/* DeltaExceptionP1 */
NPUSHW[ ]	/* 27 values pushed */
8 5 24 5 40 5 56 5 72 5 88 5 104 5 120 5 136 5 152 5 168 5 184 5 200 5 13
DELTAP1[ ]	/* DeltaExceptionP1 */
PUSHW[ ]	/* 1 value pushed */
8
MDRP[10000]	/* MoveDirectRelPt */
PUSHW[ ]	/* 1 value pushed */
24
SRP0[ ]	/* SetRefPoint0 */
PUSHW[ ]	/* 1 value pushed */
27
MDRP[11100]	/* MoveDirectRelPt */
NPUSHW[ ]	/* 27 values pushed */
7 27 23 27 39 27 55 27 71 27 87 27 103 27 119 27 135 27 151 27 167 27 183 27 199 27 13
DELTAP1[ ]	/* DeltaExceptionP1 */
NPUSHW[ ]	/* 5 values pushed */
214 27 230 27 2
DELTAP1[ ]	/* DeltaExceptionP1 */
IUP[0]	/* InterpolateUntPts */
IUP[1]	/* InterpolateUntPts */";
};
width = 209;
}
);
note = s;
unicode = 115;
},
{
glyphname = t;
layers = (
{
layerId = m01;
shapes = (
{
closed = 1;
nodes = (
(146,325,o),
(133,279,o),
(119,226,o),
(113,201,qs),
(109,187,o),
(99,142,o),
(94,122,q),
(90,121,o),
(84,121,o),
(80,120,qs),
(60,117,o),
(29,110,o),
(24,94,qs),
(20,80,o),
(39,44,o),
(49,30,qs),
(56,20,o),
(71,0,o),
(81,-2,qs),
(92,-4,o),
(102,4,o),
(105,12,qs),
(107,19,o),
(110,36,o),
(112,52,qs),
(114,60,o),
(118,82,o),
(120,95,q),
(127,96,o),
(160,101,o),
(195,107,o),
(224,113,o),
(226,115,q),
(240,124,o),
(225,132,o),
(210,133,qs),
(198,133,o),
(153,129,o),
(127,126,q),
(132,145,o),
(139,180,o),
(142,194,qs),
(147,217,o),
(159,265,o),
(171,307,o),
(182,340,o),
(185,347,qs),
(190,358,o),
(198,366,o),
(199,372,q),
(199,383,o),
(188,390,o),
(181,388,qs),
(173,386,o),
(164,374,o),
(158,361,qs),
(156,357,o)
);
},
{
closed = 1;
nodes = (
(77,87,o),
(88,89,q),
(85,73,o),
(79,45,o),
(76,45,q),
(74,46,o),
(66,56,o),
(59,68,o),
(56,79,o),
(58,81,qs),
(60,83,o)
);
}
);
userData = {
assembly = "PUSHW[ ]	/* 1 value pushed */
0
CALL[ ]	/* CallFunction */
SVTCA[0]	/* SetFreedomAndProjectionVectorToAxis */
PUSHW[ ]	/* 1 value pushed */
23
MDAP[1]	/* MoveDirectAbsPt */
PUSHW[ ]	/* 1 value pushed */
46
MDAP[1]	/* MoveDirectAbsPt */
PUSHW[ ]	/* 1 value pushed */
49
MDAP[1]	/* MoveDirectAbsPt */
PUSHW[ ]	/* 1 value pushed */
0
RCVT[ ]	/* ReadCVT */
IF[ ]	/* If */
PUSHW[ ]	/* 1 value pushed */
37
MDAP[1]	/* MoveDirectAbsPt */
ELSE[ ]	/* Else */
PUSHW[ ]	/* 2 values pushed */
37 5
MIAP[0]	/* MoveIndirectAbsPt */
EIF[ ]	/* EndIf */
PUSHW[ ]	/* 3 values pushed */
17 28 3
CALL[ ]	/* CallFunction */
PUSHW[ ]	/* 1 value pushed */
17
SRP0[ ]	/* SetRefPoint0 */
PUSHW[ ]	/* 1 value pushed */
20
MDRP[10000]	/* MoveDirectRelPt */
PUSHW[ ]	/* 1 value pushed */
20
MDAP[1]	/* MoveDirectAbsPt */
PUSHW[ ]	/* 1 value pushed */
37
SRP0[ ]	/* SetRefPoint0 */
PUSHW[ ]	/* 1 value pushed */
62
MDRP[11100]	/* MoveDirectRelPt */
NPUSHW[ ]	/* 27 values pushed */
7 62 23 62 39 62 55 62 71 62 87 62 103 62 119 62 135 62 151 62 167 62 183 62 199 62 13
DELTAP1[ ]	/* DeltaExceptionP1 */
NPUSHW[ ]	/* 5 values pushed */
214 62 230 62 2
DELTAP1[ ]	/* DeltaExceptionP1 */
PUSHW[ ]	/* 1 value pushed */
28
SRP0[ ]	/* SetRefPoint0 */
PUSHW[ ]	/* 1 value pushed */
65
MDRP[10000]	/* MoveDirectRelPt */
PUSHW[ ]	/* 1 value pushed */
65
MDAP[1]	/* MoveDirectAbsPt */
IUP[0]	/* InterpolateUntPts */
IUP[1]	/* InterpolateUntPts */";
};
width = 226;
}
);
note = t;
unicode = 116;
},
{
glyphname = u;
layers = (
{
layerId = m01;
shapes = (
{
closed = 1;
nodes = (
(37,121,o),
(30,100,o),
(27,78,o),
(27,71,qs),
(27,44,o),
(62,0,o),
(91,0,qs),
(106,0,o),
(138,21,o),
(167,49,o),
(190,78,o),
(196,87,qs),
(207,104,o),
(228,135,o),
(230,146,qs),
(231,152,o),
(223,159,o),
(218,159,qs),
(207,159,o),
(203,149,qs),
(191,124,o),
(147,71,o),
(126,54,qs),
(118,46,o),
(100,34,o),
(92,34,qs),
(72,34,o),
(58,68,o),
(58,84,qs),
(58,95,o),
(64,111,o),
(72,123,o),
(77,133,o),
(77,138,qs),
(77,148,o),
(64,148,qs),
(56,148,o),
(52,144,q),
(46,140,o)
);
}
);
userData = {
assembly = "PUSHW[ ]	/* 1 value pushed */
0
CALL[ ]	/* CallFunction */
SVTCA[0]	/* SetFreedomAndProjectionVectorToAxis */
PUSHW[ ]	/* 1 value pushed */
0
RCVT[ ]	/* ReadCVT */
IF[ ]	/* If */
PUSHW[ ]	/* 1 value pushed */
31
MDAP[1]	/* MoveDirectAbsPt */
ELSE[ ]	/* Else */
PUSHW[ ]	/* 2 values pushed */
31 5
MIAP[0]	/* MoveIndirectAbsPt */
EIF[ ]	/* EndIf */
PUSHW[ ]	/* 1 value pushed */
12
MDRP[11100]	/* MoveDirectRelPt */
NPUSHW[ ]	/* 27 values pushed */
7 12 23 12 39 12 55 12 71 12 87 12 103 12 119 12 135 12 151 12 167 12 183 12 199 12 13
DELTAP1[ ]	/* DeltaExceptionP1 */
NPUSHW[ ]	/* 5 values pushed */
214 12 230 12 2
DELTAP1[ ]	/* DeltaExceptionP1 */
SVTCA[1]	/* SetFreedomAndProjectionVectorToAxis */
PUSHW[ ]	/* 1 value pushed */
39
MDAP[1]	/* MoveDirectAbsPt */
PUSHW[ ]	/* 1 value pushed */
18
MDAP[1]	/* MoveDirectAbsPt */
PUSHW[ ]	/* 1 value pushed */
39
SRP0[ ]	/* SetRefPoint0 */
PUSHW[ ]	/* 1 value pushed */
34
MDRP[10000]	/* MoveDirectRelPt */
PUSHW[ ]	/* 1 value pushed */
34
MDAP[1]	/* MoveDirectAbsPt */
PUSHW[ ]	/* 1 value pushed */
9
MDRP[11100]	/* MoveDirectRelPt */
NPUSHW[ ]	/* 27 values pushed */
6 9 22 9 38 9 54 9 70 9 86 9 102 9 118 9 134 9 150 9 166 9 182 9 198 9 13
DELTAP1[ ]	/* DeltaExceptionP1 */
NPUSHW[ ]	/* 5 values pushed */
213 9 229 9 2
DELTAP1[ ]	/* DeltaExceptionP1 */
PUSHW[ ]	/* 1 value pushed */
0
MDRP[10000]	/* MoveDirectRelPt */
PUSHW[ ]	/* 1 value pushed */
0
MDAP[1]	/* MoveDirectAbsPt */
PUSHW[ ]	/* 1 value pushed */
9
SRP0[ ]	/* SetRefPoint0 */
PUSHW[ ]	/* 1 value pushed */
2
MDRP[10000]	/* MoveDirectRelPt */
PUSHW[ ]	/* 1 value pushed */
2
MDAP[1]	/* MoveDirectAbsPt */
NPUSHW[ ]	/* 5 values pushed */
218 18 234 18 2
DELTAP1[ ]	/* DeltaExceptionP1 */
NPUSHW[ ]	/* 27 values pushed */
9 18 25 18 41 18 57 18 73 18 89 18 105 18 121 18 137 18 153 18 169 18 185 18 201 18 13
DELTAP1[ ]	/* DeltaExceptionP1 */
PUSHW[ ]	/* 1 value pushed */
18
SRP0[ ]	/* SetRefPoint0 */
PUSHW[ ]	/* 1 value pushed */
23
MDRP[11100]	/* MoveDirectRelPt */
PUSHW[ ]	/* 1 value pushed */
18
SRP0[ ]	/* SetRefPoint0 */
PUSHW[ ]	/* 1 value pushed */
26
MDRP[10000]	/* MoveDirectRelPt */
PUSHW[ ]	/* 1 value pushed */
26
MDAP[1]	/* MoveDirectAbsPt */
IUP[0]	/* InterpolateUntPts */
IUP[1]	/* InterpolateUntPts */";
};
width = 245;
}
);
note = u;
unicode = (117,249,250,251);
},
{
glyphname = v;
layers = (
{
layerId = m01;
shapes = (
{
closed = 1;
nodes = (
(77,-6,o),
(87,-1,qs),
(101,5,o),
(142,53,o),
(170,76,qs),
(183,87,o),
(218,113,o),
(251,137,o),
(277,155,o),
(281,158,qs),
(286,161,o),
(290,178,o),
(281,177,qs),
(273,177,o),
(239,159,o),
(217,147,qs),
(202,138,o),
(167,116,o),
(133,91,o),
(101,65,o),
(90,53,q),
(87,53,o),
(80,73,o),
(72,98,o),
(64,124,o),
(61,130,qs),
(56,140,o),
(44,140,qs),
(35,140,o),
(31,130,qs),
(30,126,o),
(32,106,o),
(37,82,o),
(44,59,o),
(46,53,qs),
(54,28,o)
);
}
);
userData = {
assembly = "PUSHW[ ]	/* 1 value pushed */
0
CALL[ ]	/* CallFunction */
SVTCA[0]	/* SetFreedomAndProjectionVectorToAxis */
PUSHW[ ]	/* 1 value pushed */
0
RCVT[ ]	/* ReadCVT */
IF[ ]	/* If */
PUSHW[ ]	/* 1 value pushed */
22
MDAP[1]	/* MoveDirectAbsPt */
ELSE[ ]	/* Else */
PUSHW[ ]	/* 2 values pushed */
22 9
MIAP[0]	/* MoveIndirectAbsPt */
EIF[ ]	/* EndIf */
IUP[0]	/* InterpolateUntPts */
IUP[1]	/* InterpolateUntPts */";
};
width = 266;
}
);
note = v;
unicode = 118;
},
{
glyphname = w;
layers = (
{
layerId = m01;
shapes = (
{
closed = 1;
nodes = (
(118,111,o),
(123,114,qs),
(129,117,o),
(120,139,o),
(103,141,qs),
(97,141,o),
(79,128,o),
(62,112,o),
(48,95,o),
(45,90,qs),
(40,82,o),
(24,52,o),
(26,40,qs),
(28,26,o),
(58,7,o),
(70,7,qs),
(84,7,o),
(108,22,o),
(117,27,qs),
(130,34,o),
(157,55,o),
(160,55,q),
(160,51,o),
(170,34,o),
(185,17,o),
(205,5,o),
(217,5,qs),
(234,5,o),
(276,25,o),
(314,56,o),
(341,94,o),
(342,111,q),
(344,121,o),
(339,138,o),
(323,143,qs),
(320,144,o),
(310,144,o),
(303,140,o),
(302,133,o),
(307,126,qs),
(310,121,o),
(308,92,o),
(288,75,qs),
(276,65,o),
(234,40,o),
(218,40,qs),
(197,40,o),
(197,66,qs),
(197,75,o),
(201,96,o),
(187,101,qs),
(182,103,o),
(165,94,o),
(147,80,o),
(127,64,o),
(119,58,qs),
(105,49,o),
(81,38,o),
(70,39,qs),
(58,40,o),
(67,67,o),
(75,79,qs),
(84,91,o),
(105,112,o),
(107,114,qs),
(109,116,o)
);
}
);
userData = {
assembly = "PUSHW[ ]	/* 1 value pushed */
0
CALL[ ]	/* CallFunction */
SVTCA[0]	/* SetFreedomAndProjectionVectorToAxis */
PUSHW[ ]	/* 1 value pushed */
30
MDAP[1]	/* MoveDirectAbsPt */
PUSHW[ ]	/* 1 value pushed */
60
MDAP[1]	/* MoveDirectAbsPt */
PUSHW[ ]	/* 3 values pushed */
19 38 3
CALL[ ]	/* CallFunction */
PUSHW[ ]	/* 1 value pushed */
19
SRP0[ ]	/* SetRefPoint0 */
PUSHW[ ]	/* 1 value pushed */
6
MDRP[10000]	/* MoveDirectRelPt */
PUSHW[ ]	/* 1 value pushed */
6
MDAP[1]	/* MoveDirectAbsPt */
PUSHW[ ]	/* 1 value pushed */
38
SRP0[ ]	/* SetRefPoint0 */
PUSHW[ ]	/* 1 value pushed */
49
MDRP[10000]	/* MoveDirectRelPt */
PUSHW[ ]	/* 1 value pushed */
49
MDAP[1]	/* MoveDirectAbsPt */
SVTCA[1]	/* SetFreedomAndProjectionVectorToAxis */
PUSHW[ ]	/* 3 values pushed */
17 43 3
CALL[ ]	/* CallFunction */
NPUSHW[ ]	/* 27 values pushed */
6 17 22 17 38 17 54 17 70 17 86 17 102 17 118 17 134 17 150 17 166 17 182 17 198 17 13
DELTAP1[ ]	/* DeltaExceptionP1 */
NPUSHW[ ]	/* 5 values pushed */
213 17 229 17 2
DELTAP1[ ]	/* DeltaExceptionP1 */
IUP[0]	/* InterpolateUntPts */
IUP[1]	/* InterpolateUntPts */";
};
width = 365;
}
);
note = w;
unicode = 119;
},
{
glyphname = x;
layers = (
{
layerId = m01;
shapes = (
{
closed = 1;
nodes = (
(216,142,o),
(174,120,o),
(135,97,o),
(125,91,q),
(120,99,o),
(112,113,o),
(109,118,qs),
(101,129,o),
(89,155,o),
(81,157,qs),
(71,160,o),
(56,145,o),
(58,139,qs),
(59,135,o),
(81,97,o),
(95,75,q),
(92,73,o),
(85,69,o),
(82,67,qs),
(58,54,o),
(21,36,o),
(18,24,qs),
(17,19,o),
(30,2,o),
(44,5,qs),
(61,10,o),
(84,25,o),
(100,35,qs),
(104,37,o),
(111,42,o),
(116,44,q),
(128,27,o),
(138,19,qs),
(149,11,o),
(168,-3,o),
(180,-3,qs),
(192,-3,o),
(210,3,o),
(205,11,q),
(203,16,o),
(190,20,o),
(183,25,qs),
(172,32,o),
(153,51,o),
(145,62,q),
(154,68,o),
(169,78,o),
(174,82,qs),
(180,87,o),
(206,106,o),
(232,125,o),
(255,141,o),
(258,143,qs),
(264,148,o),
(269,162,o),
(258,160,qs),
(251,159,o)
);
}
);
userData = {
assembly = "PUSHW[ ]	/* 1 value pushed */
0
CALL[ ]	/* CallFunction */
SVTCA[0]	/* SetFreedomAndProjectionVectorToAxis */
PUSHW[ ]	/* 1 value pushed */
0
RCVT[ ]	/* ReadCVT */
IF[ ]	/* If */
PUSHW[ ]	/* 1 value pushed */
20
MDAP[1]	/* MoveDirectAbsPt */
ELSE[ ]	/* Else */
PUSHW[ ]	/* 2 values pushed */
20 5
MIAP[0]	/* MoveIndirectAbsPt */
EIF[ ]	/* EndIf */
IUP[0]	/* InterpolateUntPts */
IUP[1]	/* InterpolateUntPts */";
};
width = 267;
}
);
note = x;
unicode = 120;
},
{
glyphname = y;
lastChange = "2025-12-25 14:54:30 +0000";
layers = (
{
layerId = m01;
shapes = (
{
closed = 1;
nodes = (
(50,8,o),
(74,6,qs),
(79,5,o),
(89,5,qs),
(106,5,o),
(115,8,qs),
(121,9,o),
(125,10,q),
(121,3,o),
(108,-23,o),
(91,-53,o),
(73,-85,o),
(64,-100,qs),
(57,-111,o),
(39,-142,o),
(21,-176,o),
(6,-207,o),
(1,-218,qs),
(-4,-229,o),
(-15,-263,o),
(-23,-298,o),
(-26,-330,o),
(-24,-340,qs),
(-22,-346,o),
(-5,-346,o),
(-3,-339,qs),
(2,-314,o),
(16,-268,o),
(24,-245,qs),
(31,-225,o),
(55,-179,o),
(81,-134,o),
(107,-92,o),
(116,-75,qs),
(125,-58,o),
(153,-15,o),
(182,27,o),
(208,62,o),
(216,72,qs),
(226,84,o),
(246,117,o),
(251,128,qs),
(254,134,o),
(241,142,o),
(233,142,qs),
(227,142,o),
(222,139,qs),
(220,138,o),
(205,122,o),
(186,102,o),
(166,81,o),
(158,75,qs),
(139,60,o),
(100,33,o),
(80,39,qs),
(66,43,o),
(67,70,o),
(72,80,qs),
(76,86,o),
(93,104,o),
(111,121,o),
(128,135,o),
(133,138,qs),
(139,141,o),
(128,153,o),
(119,153,qs),
(108,153,o),
(77,133,o),
(50,105,o),
(30,74,o),
(29,63,qs),
(27,40,o)
);
}
);
userData = {
assembly = "PUSHW[ ]	/* 1 value pushed */
0
CALL[ ]	/* CallFunction */
SVTCA[0]	/* SetFreedomAndProjectionVectorToAxis */
PUSHW[ ]	/* 1 value pushed */
63
MDAP[1]	/* MoveDirectAbsPt */
PUSHW[ ]	/* 1 value pushed */
65
MDAP[1]	/* MoveDirectAbsPt */
PUSHW[ ]	/* 1 value pushed */
67
MDAP[1]	/* MoveDirectAbsPt */
PUSHW[ ]	/* 1 value pushed */
69
MDAP[1]	/* MoveDirectAbsPt */
PUSHW[ ]	/* 3 values pushed */
5 26 3
CALL[ ]	/* CallFunction */
SVTCA[1]	/* SetFreedomAndProjectionVectorToAxis */
PUSHW[ ]	/* 3 values pushed */
45 48 3
CALL[ ]	/* CallFunction */
PUSHW[ ]	/* 3 values pushed */
58 0 3
CALL[ ]	/* CallFunction */
NPUSHW[ ]	/* 27 values pushed */
6 45 22 45 38 45 54 45 70 45 86 45 102 45 118 45 134 45 150 45 166 45 182 45 198 45 13
DELTAP1[ ]	/* DeltaExceptionP1 */
NPUSHW[ ]	/* 5 values pushed */
213 45 229 45 2
DELTAP1[ ]	/* DeltaExceptionP1 */
NPUSHW[ ]	/* 27 values pushed */
6 58 22 58 38 58 54 58 70 58 86 58 102 58 118 58 134 58 150 58 166 58 182 58 198 58 13
DELTAP1[ ]	/* DeltaExceptionP1 */
NPUSHW[ ]	/* 5 values pushed */
213 58 229 58 2
DELTAP1[ ]	/* DeltaExceptionP1 */
IUP[0]	/* InterpolateUntPts */
IUP[1]	/* InterpolateUntPts */";
};
width = 269;
}
);
note = y;
unicode = (121,253,255);
},
